<?xml version="1.0" encoding="utf-8"?>
<!-- Generated by IcoMoon.io -->
<!DOCTYPE svg PUBLIC "-//W3C//DTD SVG 1.1//EN" "http://www.w3.org/Graphics/SVG/1.1/DTD/svg11.dtd">
<svg version="1.1" xmlns="http://www.w3.org/2000/svg" xmlns:xlink="http://www.w3.org/1999/xlink" width="32" height="32" viewBox="0 0 32 32">
<path d="M6 2.55c-2.069 0-3.75 1.731-3.75 3.8s1.681 3.75 3.75 3.75c1.828 0 3.367-1.316 3.7-3.050h10.95l-11.3 18.85c-0.069 0.105-0.111 0.233-0.111 0.372 0 0.375 0.304 0.679 0.679 0.679 0.011 0 0.022-0 0.033-0.001l12.248 0c0.352 1.71 1.889 3 3.7 3 2.069 0 3.75-1.681 3.75-3.75s-1.681-3.75-3.75-3.75c-1.861 0-3.406 1.369-3.7 3.15h-11.050l11.25-18.9c0.051-0.093 0.081-0.204 0.081-0.322 0-0.358-0.277-0.652-0.629-0.677l-12.152-0c-0.313-1.758-1.855-3.15-3.7-3.15zM6 3.95c1.335 0 2.4 1.065 2.4 2.4s-1.065 2.4-2.4 2.4c-1.335 0-2.4-1.065-2.4-2.4s1.065-2.4 2.4-2.4zM25.9 23.8c1.335 0 2.4 1.065 2.4 2.4s-1.065 2.4-2.4 2.4c-1.335 0-2.45-1.065-2.45-2.4s1.115-2.4 2.45-2.4z"></path>
</svg>
