<?xml version="1.0" encoding="UTF-8" standalone="no"?>
<!-- Generated by IcoMoon.io -->

<svg
   xmlns:dc="http://purl.org/dc/elements/1.1/"
   xmlns:cc="http://creativecommons.org/ns#"
   xmlns:rdf="http://www.w3.org/1999/02/22-rdf-syntax-ns#"
   xmlns:svg="http://www.w3.org/2000/svg"
   xmlns="http://www.w3.org/2000/svg"
   xmlns:sodipodi="http://sodipodi.sourceforge.net/DTD/sodipodi-0.dtd"
   xmlns:inkscape="http://www.inkscape.org/namespaces/inkscape"
   version="1.1"
   width="20"
   height="20"
   viewBox="0 0 20 20"
   id="svg2"
   inkscape:version="0.48.4 r9939"
   sodipodi:docname="action2.svg">
  <metadata
     id="metadata10">
    <rdf:RDF>
      <cc:Work
         rdf:about="">
        <dc:format>image/svg+xml</dc:format>
        <dc:type
           rdf:resource="http://purl.org/dc/dcmitype/StillImage" />
        <dc:title></dc:title>
      </cc:Work>
    </rdf:RDF>
  </metadata>
  <defs
     id="defs8" />
  <sodipodi:namedview
     pagecolor="#ffffff"
     bordercolor="#666666"
     borderopacity="1"
     objecttolerance="10"
     gridtolerance="10"
     guidetolerance="10"
     inkscape:pageopacity="0"
     inkscape:pageshadow="2"
     inkscape:window-width="1280"
     inkscape:window-height="748"
     id="namedview6"
     showgrid="false"
     inkscape:zoom="16.68772"
     inkscape:cx="8.421014"
     inkscape:cy="11.990563"
     inkscape:window-x="0"
     inkscape:window-y="0"
     inkscape:window-maximized="1"
     inkscape:current-layer="svg2" />
  <path
     style="font-size:medium;font-style:normal;font-variant:normal;font-weight:normal;font-stretch:normal;text-indent:0;text-align:start;text-decoration:none;line-height:normal;letter-spacing:normal;word-spacing:normal;text-transform:none;direction:ltr;block-progression:tb;writing-mode:lr-tb;text-anchor:start;baseline-shift:baseline;color:#000000;fill:#000000;fill-opacity:1;stroke:none;stroke-width:0.84888756;marker:none;visibility:visible;display:inline;overflow:visible;enable-background:accumulate;font-family:Sans;-inkscape-font-specification:Sans"
     d="M 3.75 1.59375 C 2.4567934 1.59375 1.40625 2.6755434 1.40625 3.96875 C 1.40625 5.261959 2.4567957 6.3125 3.75 6.3125 C 4.8922848 6.3125 5.8544167 5.4901342 6.0625 4.40625 L 12.90625 4.40625 L 5.84375 16.1875 A 0.42448623 0.42448623 0 0 0 6.21875 16.84375 L 13.875 16.84375 C 14.095037 17.912594 15.055944 18.71875 16.1875 18.71875 C 17.480704 18.71875 18.53125 17.668209 18.53125 16.375 C 18.53125 15.081793 17.480707 14.031248 16.1875 14.03125 C 15.024177 14.03125 14.058584 14.886776 13.875 16 L 6.96875 16 L 14 4.1875 A 0.42448623 0.42448623 0 0 0 13.65625 3.5625 L 6.0625 3.5625 C 5.8667357 2.4637125 4.903016 1.5937479 3.75 1.59375 z M 3.75 2.46875 C 4.5844335 2.46875 5.25 3.1343165 5.25 3.96875 C 5.25 4.8031859 4.5844359 5.4687523 3.75 5.46875 C 2.9155665 5.46875 2.25 4.8031835 2.25 3.96875 C 2.25 3.1343188 2.9155688 2.46875 3.75 2.46875 z M 16.1875 14.875 C 17.021931 14.875 17.6875 15.540569 17.6875 16.375 C 17.6875 17.209434 17.021934 17.875 16.1875 17.875 C 15.353064 17.875 14.65625 17.209436 14.65625 16.375 C 14.65625 15.540566 15.353066 14.875 16.1875 14.875 z "
     id="polyline5104-5-2-0" />
  <g
     id="g5106-8-6-6"
     transform="matrix(0.02348215,0,0,0.02348215,-93.40728,-33.589918)"
     style="fill:none;stroke:#000000;stroke-width:36.15032196;stroke-miterlimit:4;stroke-opacity:1;stroke-dasharray:none" />
  <g
     id="g5110-8-1-6"
     transform="matrix(0.02348215,0,0,0.02348215,-93.40728,-33.589918)"
     style="fill:none;stroke:#000000;stroke-width:36.15032196;stroke-miterlimit:4;stroke-opacity:1;stroke-dasharray:none" />
</svg>
