<?xml version="1.0" encoding="utf-8"?>
<!-- Generated by IcoMoon.io -->
<!DOCTYPE svg PUBLIC "-//W3C//DTD SVG 1.1//EN" "http://www.w3.org/Graphics/SVG/1.1/DTD/svg11.dtd">
<svg version="1.1" xmlns="http://www.w3.org/2000/svg" xmlns:xlink="http://www.w3.org/1999/xlink" width="32" height="32" viewBox="0 0 32 32">
<path d="M26.88 24.162c-1.83-1.374-2.88-3.475-2.88-5.762v-4.8c0-4.021-2.71-7.421-6.4-8.467v-1.133c0-1.323-1.077-2.4-2.4-2.4s-2.4 1.077-2.4 2.4v1.133c-3.69 1.048-6.4 4.446-6.4 8.467v4.8c0 2.286-1.050 4.386-2.88 5.762-0.275 0.206-0.387 0.566-0.278 0.893s0.414 0.547 0.758 0.547h7.28c-0.053 0.262-0.082 0.53-0.082 0.8 0 2.205 1.795 4 4 4s4-1.795 4-4c0-0.269-0.027-0.538-0.080-0.8h7.28c0.344 0 0.65-0.221 0.758-0.547s-0.003-0.686-0.278-0.893zM14.4 4c0-0.442 0.358-0.8 0.8-0.8s0.8 0.358 0.8 0.8v0.837c-0.264-0.024-0.53-0.037-0.8-0.037s-0.536 0.013-0.8 0.037v-0.837zM17.6 26.4c0 1.323-1.077 2.4-2.4 2.4s-2.4-1.077-2.4-2.4c0-0.274 0.048-0.544 0.138-0.8h4.525c0.090 0.256 0.138 0.526 0.138 0.8zM5.987 24c0.408-0.494 0.763-1.034 1.054-1.602 0.637-1.245 0.958-2.59 0.958-3.998v-4.8c0-3.97 3.23-7.2 7.2-7.2s7.2 3.23 7.2 7.2v4.8c0 1.408 0.323 2.754 0.958 3.998 0.291 0.57 0.646 1.107 1.054 1.602h-18.427z"></path>
</svg>
