<?xml version="1.0" encoding="utf-8"?>
<!-- Generated by IcoMoon.io -->
<!DOCTYPE svg PUBLIC "-//W3C//DTD SVG 1.1//EN" "http://www.w3.org/Graphics/SVG/1.1/DTD/svg11.dtd">
<svg version="1.1" xmlns="http://www.w3.org/2000/svg" xmlns:xlink="http://www.w3.org/1999/xlink" width="32" height="32" viewBox="0 0 32 32">
<path d="M22.4 9.6h1.6v1.6h-1.6v-1.6z"></path>
<path d="M22.4 12.8h1.6v1.6h-1.6v-1.6z"></path>
<path d="M22.4 16h1.6v1.6h-1.6v-1.6z"></path>
<path d="M22.4 19.2h1.6v1.6h-1.6v-1.6z"></path>
<path d="M22.4 25.6h1.6v1.6h-1.6v-1.6z"></path>
<path d="M22.4 22.4h1.6v1.6h-1.6v-1.6z"></path>
<path d="M9.6 9.6h1.6v1.6h-1.6v-1.6z"></path>
<path d="M9.6 12.8h1.6v1.6h-1.6v-1.6z"></path>
<path d="M9.6 16h1.6v1.6h-1.6v-1.6z"></path>
<path d="M9.6 19.2h1.6v1.6h-1.6v-1.6z"></path>
<path d="M9.6 25.6h1.6v1.6h-1.6v-1.6z"></path>
<path d="M9.6 22.4h1.6v1.6h-1.6v-1.6z"></path>
<path d="M6.4 9.6h1.6v1.6h-1.6v-1.6z"></path>
<path d="M6.4 12.8h1.6v1.6h-1.6v-1.6z"></path>
<path d="M6.4 16h1.6v1.6h-1.6v-1.6z"></path>
<path d="M6.4 19.2h1.6v1.6h-1.6v-1.6z"></path>
<path d="M6.4 25.6h1.6v1.6h-1.6v-1.6z"></path>
<path d="M6.4 22.4h1.6v1.6h-1.6v-1.6z"></path>
<path d="M12.8 9.6h1.6v1.6h-1.6v-1.6z"></path>
<path d="M12.8 12.8h1.6v1.6h-1.6v-1.6z"></path>
<path d="M12.8 16h1.6v1.6h-1.6v-1.6z"></path>
<path d="M12.8 19.2h1.6v1.6h-1.6v-1.6z"></path>
<path d="M12.8 25.6h1.6v1.6h-1.6v-1.6z"></path>
<path d="M12.8 22.4h1.6v1.6h-1.6v-1.6z"></path>
<path d="M29.6 30.4h-0.8v-21.6c0-1.221-0.907-2.478-2.066-2.866l-7.534-2.512v-2.624c0-0.253-0.12-0.491-0.323-0.642s-0.466-0.197-0.707-0.125l-14.467 4.341c-1.179 0.354-2.102 1.595-2.102 2.826v23.2h-0.8c-0.442 0-0.8 0.358-0.8 0.8s0.358 0.8 0.8 0.8h28.8c0.442 0 0.8-0.358 0.8-0.8s-0.358-0.8-0.8-0.8zM26.229 7.453c0.509 0.17 0.971 0.811 0.971 1.347v21.6h-8v-25.29l7.029 2.342zM3.2 7.2c0-0.526 0.459-1.142 0.963-1.293l13.437-4.032v28.525h-14.4v-23.2z"></path>
</svg>
