<?xml version="1.0" encoding="utf-8"?>
<!-- Generated by IcoMoon.io -->
<!DOCTYPE svg PUBLIC "-//W3C//DTD SVG 1.1//EN" "http://www.w3.org/Graphics/SVG/1.1/DTD/svg11.dtd">
<svg version="1.1" xmlns="http://www.w3.org/2000/svg" xmlns:xlink="http://www.w3.org/1999/xlink" width="32" height="32" viewBox="0 0 32 32">
<path d="M4.451 6.051c-2.87 2.87-4.451 6.688-4.451 10.749s1.581 7.877 4.451 10.749 6.688 4.451 10.749 4.451 7.877-1.581 10.749-4.451 4.451-6.688 4.451-10.747-1.581-7.877-4.451-10.749-6.688-4.451-10.749-4.451-7.877 1.581-10.749 4.451zM28.8 16.8c0 7.499-6.101 13.6-13.6 13.6s-13.6-6.101-13.6-13.6c0-7.499 6.101-13.6 13.6-13.6s13.6 6.101 13.6 13.6z"></path>
<path d="M14.635 7.435l-6.4 6.4c-0.312 0.312-0.312 0.819 0 1.131s0.819 0.312 1.131 0l5.034-5.035v16.469c0 0.442 0.358 0.8 0.8 0.8s0.8-0.358 0.8-0.8v-16.469l5.035 5.034c0.312 0.312 0.819 0.312 1.131 0 0.157-0.157 0.234-0.362 0.234-0.565s-0.078-0.41-0.235-0.565l-6.4-6.4c-0.312-0.312-0.819-0.312-1.131 0z"></path>
</svg>
