<?xml version="1.0" encoding="utf-8"?>
<!-- Generated by IcoMoon.io -->
<!DOCTYPE svg PUBLIC "-//W3C//DTD SVG 1.1//EN" "http://www.w3.org/Graphics/SVG/1.1/DTD/svg11.dtd">
<svg version="1.1" xmlns="http://www.w3.org/2000/svg" xmlns:xlink="http://www.w3.org/1999/xlink" width="32" height="32" viewBox="0 0 32 32">
<path d="M20.226 30.509h-11.049c-0.339 0-0.614-0.275-0.614-0.614s0.274-0.614 0.614-0.614h11.049c0.339 0 0.614 0.275 0.614 0.614s-0.274 0.614-0.614 0.614z"></path>
<path d="M14.701 29.687c-0.339 0-0.614-0.126-0.614-0.282v-6.761c0-0.155 0.274-0.282 0.614-0.282s0.614 0.126 0.614 0.282v6.761c0 0.155-0.274 0.282-0.614 0.282z"></path>
<path d="M15.056 19.293c-0.2 0-0.397-0.098-0.514-0.278l-10.435-15.96c-0.186-0.284-0.106-0.664 0.178-0.85 0.282-0.186 0.664-0.106 0.85 0.178l10.435 15.96c0.186 0.283 0.106 0.664-0.178 0.85-0.103 0.068-0.22 0.1-0.335 0.1z"></path>
<path d="M25.75 10.699c-0.853 0-1.676-0.25-2.384-0.722-0.282-0.188-0.358-0.57-0.169-0.851s0.568-0.358 0.853-0.169c0.505 0.338 1.093 0.516 1.701 0.516 0.959 0 1.845-0.436 2.431-1.196 0.587-0.761 0.78-1.749 0.527-2.711-0.271-1.038-1.085-1.851-2.122-2.122-0.961-0.251-1.951-0.059-2.711 0.529s-1.195 1.472-1.195 2.431c0 0.339-0.274 0.614-0.614 0.614s-0.614-0.275-0.614-0.614c0-1.341 0.61-2.582 1.673-3.403s2.441-1.093 3.773-0.744c1.466 0.383 2.616 1.532 2.999 2.999 0.349 1.333 0.078 2.708-0.744 3.772-0.821 1.062-2.061 1.672-3.404 1.672z"></path>
<path d="M14.702 23.59c-0.198 0-0.393-0.096-0.511-0.273l-11.049-16.574c-0.125-0.188-0.138-0.431-0.031-0.63s0.315-0.324 0.541-0.324h22.099c0.224 0 0.43 0.122 0.538 0.319s0.1 0.435-0.020 0.625l-8.594 13.505c-0.182 0.286-0.56 0.37-0.848 0.188-0.286-0.182-0.371-0.562-0.188-0.847l7.994-12.561h-19.834l10.413 15.619c0.188 0.282 0.112 0.663-0.17 0.851-0.104 0.069-0.223 0.102-0.339 0.102z"></path>
</svg>
