<?xml version="1.0" encoding="utf-8"?>
<!-- Generated by IcoMoon.io -->
<!DOCTYPE svg PUBLIC "-//W3C//DTD SVG 1.1//EN" "http://www.w3.org/Graphics/SVG/1.1/DTD/svg11.dtd">
<svg version="1.1" xmlns="http://www.w3.org/2000/svg" xmlns:xlink="http://www.w3.org/1999/xlink" width="32" height="32" viewBox="0 0 32 32">
<path d="M11.4 0.266c-1.697 0-3.197 0.949-3.953 2.438-0.226-0.043-0.458-0.063-0.688-0.063-2.021 0-3.672 1.635-3.672 3.656 0 1.643 1.086 3.035 2.578 3.5v17.625c0 1.232 1.002 2.234 2.234 2.234h13.75c1.232 0 2.234-1.002 2.234-2.234v-5.5h2.922c1.232 0 2.234-1.002 2.234-2.234v-6.875c0-1.232-1.002-2.234-2.234-2.234h-2.922v-1.328c0.91-0.668 1.5-1.74 1.5-2.953 0-2.021-1.634-3.656-3.656-3.656-0.203 0-0.412 0.009-0.625 0.047-0.662-0.46-1.439-0.703-2.25-0.703-0.792 0-1.548 0.245-2.203 0.688-0.467-0.063-0.855-0.034-1.266 0.063-0.748-1.488-2.297-2.469-3.984-2.469zM11.4 1.297c1.422 0 2.723 0.898 3.219 2.234l0.172 0.484 0.484-0.172c0.303-0.115 0.622-0.172 0.938-0.172 0.142 0 0.299 0.013 0.484 0.047l0.219 0.031 0.188-0.125c0.514-0.391 1.11-0.609 1.75-0.609 0.66 0 1.291 0.214 1.813 0.625l0.203 0.156 0.234-0.047c0.221-0.053 0.429-0.078 0.625-0.078 1.453 0 2.625 1.172 2.625 2.625s-1.172 2.641-2.625 2.641c-0.425 0-0.846-0.107-1.234-0.313l-0.219-0.109-0.234 0.094c-0.721 0.321-1.532 0.341-2.266 0.047l-0.219-0.094-0.203 0.109c-0.943 0.458-2.068 0.295-2.844-0.359l-0.453-0.391-0.313 0.516c-0.482 0.802-1.335 1.281-2.266 1.281s-1.768-0.48-2.25-1.281l-0.313-0.516-0.469 0.391c-0.475 0.4-1.068 0.625-1.688 0.625-0.097 0-0.187-0.006-0.281-0.016-0.082-0.055-0.372-0.086-0.406-0.078-1.124-0.301-1.953-1.329-1.953-2.547 0-1.453 1.188-2.625 2.641-2.625 0.276 0 0.547 0.038 0.813 0.125l0.469 0.156 0.172-0.469c0.515-1.33 1.764-2.188 3.188-2.188zM8.666 9.422c0.691 0.838 1.705 1.328 2.813 1.328s2.137-0.49 2.828-1.328c0.976 0.595 2.219 0.713 3.297 0.266 0.857 0.29 1.796 0.269 2.641-0.047 0.474 0.213 0.971 0.328 1.484 0.328 0.395 0 0.768-0.071 1.125-0.188v17.641c0 0.663-0.54 1.203-1.203 1.203h-13.75c-0.663 0-1.203-0.54-1.203-1.203v-17.453c0.019 0 0.043 0 0.063 0 0.675 0 1.334-0.198 1.906-0.547zM23.885 11.609h2.922c0.663 0 1.203 0.54 1.203 1.203v6.875c0 0.663-0.54 1.203-1.203 1.203h-2.922v-9.281zM10.479 12.297c-0.285 0-0.516 0.231-0.516 0.516v13.75c0 0.285 0.231 0.516 0.516 0.516s0.516-0.231 0.516-0.516v-13.75c0-0.285-0.231-0.516-0.516-0.516zM14.775 12.297c-0.285 0-0.516 0.231-0.516 0.516v13.75c0 0.285 0.231 0.516 0.516 0.516s0.516-0.231 0.516-0.516v-13.75c0-0.285-0.231-0.516-0.516-0.516zM19.072 12.297c-0.285 0-0.516 0.231-0.516 0.516v13.75c0 0.285 0.231 0.516 0.516 0.516s0.516-0.231 0.516-0.516v-13.75c0-0.285-0.231-0.516-0.516-0.516zM7.901 30.344c-0.285 0-0.516 0.231-0.516 0.516s0.231 0.516 0.516 0.516h13.75c0.285 0 0.516-0.231 0.516-0.516s-0.231-0.516-0.516-0.516h-13.75z"></path>
</svg>
