<?xml version="1.0" encoding="utf-8"?>
<!-- Generated by IcoMoon.io -->
<!DOCTYPE svg PUBLIC "-//W3C//DTD SVG 1.1//EN" "http://www.w3.org/Graphics/SVG/1.1/DTD/svg11.dtd">
<svg version="1.1" xmlns="http://www.w3.org/2000/svg" xmlns:xlink="http://www.w3.org/1999/xlink" width="32" height="32" viewBox="0 0 32 32">
<path d="M8.8 14.403c-1.325 0-2.403-1.078-2.403-2.403s1.078-2.403 2.403-2.403 2.403 1.078 2.403 2.403-1.078 2.403-2.403 2.403zM8.8 11.197c-0.443 0-0.803 0.36-0.803 0.803s0.36 0.803 0.803 0.803 0.803-0.36 0.803-0.803-0.36-0.803-0.803-0.803z"></path>
<path d="M15.2 27.2c-0.442 0-0.8-0.358-0.8-0.8v-4.797c0-1.235 0.93-2.469 2.118-2.81l2.4-0.686-5.216-3.477-2.736 2.736c-0.15 0.15-0.354 0.234-0.566 0.234h-3.203c-0.442 0-0.8-0.358-0.8-0.8s0.358-0.8 0.8-0.8h2.872l2.966-2.966c0.27-0.27 0.693-0.312 1.010-0.101l5.869 3.912c0.88 0.587 0.877 1.275 0.835 1.546s-0.25 0.926-1.266 1.218l-2.523 0.723c-0.501 0.144-0.958 0.749-0.958 1.272v4.797c0 0.442-0.358 0.8-0.8 0.8z"></path>
<path d="M24 32c-3.53 0-6.4-2.87-6.4-6.4s2.87-6.4 6.4-6.4 6.4 2.87 6.4 6.4-2.87 6.4-6.4 6.4zM24 20.8c-2.646 0-4.8 2.154-4.8 4.8s2.154 4.8 4.8 4.8 4.8-2.154 4.8-4.8-2.154-4.8-4.8-4.8z"></path>
<path d="M6.398 32c-3.528 0-6.398-2.87-6.398-6.398s2.87-6.398 6.398-6.398 6.398 2.87 6.398 6.398-2.87 6.398-6.398 6.398zM6.398 20.803c-2.646 0-4.798 2.152-4.798 4.798s2.152 4.798 4.798 4.798 4.798-2.152 4.798-4.798-2.152-4.798-4.798-4.798z"></path>
</svg>
