<?xml version="1.0" encoding="utf-8"?>
<!-- Generated by IcoMoon.io -->
<!DOCTYPE svg PUBLIC "-//W3C//DTD SVG 1.1//EN" "http://www.w3.org/Graphics/SVG/1.1/DTD/svg11.dtd">
<svg version="1.1" xmlns="http://www.w3.org/2000/svg" xmlns:xlink="http://www.w3.org/1999/xlink" width="32" height="32" viewBox="0 0 32 32">
<path d="M30.553 31.424h-29.112c-0.171 0-0.333-0.072-0.447-0.2s-0.168-0.296-0.15-0.466l0.356-3.277c0.36-4.327 3.481-7.219 8.227-7.701-0.542-1.169-0.902-2.59-1.212-4.016-0.31-0.077-0.693-0.335-1.042-1.029-0.396-0.787-0.793-2.349-0.169-3.188 0.126-0.17 0.373-0.413 0.786-0.485 0.045-1.561 0.27-3.695 0.498-4.587 0.784-3.068 4.004-5.294 7.657-5.294 3.715 0 6.723 2.045 7.662 5.21 0.292 0.984 0.525 2.975 0.553 4.544 0.383 0.008 0.722 0.179 0.955 0.491 0.568 0.761 0.4 2.227-0.090 3.205-0.34 0.678-0.815 1.072-1.348 1.124-0.309 1.428-0.669 2.85-1.217 4.026 4.776 0.487 7.937 3.395 8.337 7.756 0.002 0.018 0.002 0.036 0.002 0.055 0.005 0.136 0.125 1.156 0.204 1.831 0.131 1.119 0.152 1.316 0.152 1.401 0.001 0.331-0.269 0.6-0.6 0.6zM2.111 30.222h27.774c-0.024-0.205-0.051-0.439-0.077-0.66-0.147-1.252-0.203-1.754-0.211-1.932-0.364-3.889-3.339-6.432-7.801-6.697-0.146 0.203-0.303 0.391-0.47 0.563-1.178 1.205-3.295 2.612-5.382 2.612-1.965 0-4.186-1.375-5.42-2.652-0.155-0.16-0.3-0.336-0.436-0.524-4.498 0.258-7.364 2.731-7.692 6.663l-0.285 2.627zM10.92 20.019c0.145 0.225 0.3 0.429 0.469 0.603 1.278 1.324 3.194 2.285 4.555 2.285 1.604 0 3.427-1.13 4.523-2.251 1.211-1.238 1.787-3.977 2.131-5.613 0.033-0.157 0.127-0.294 0.262-0.381 0.117-0.075 0.256-0.107 0.392-0.092 0.049-0 0.121-0.004 0.179-0.007 0.056-0.003 0.102-0.004 0.123-0.004 0.065 0 0.322-0.193 0.529-0.786 0.298-0.85 0.176-1.538 0.059-1.64-0.002 0.001-0.020 0-0.053 0.007-0.048 0.009-0.1 0.023-0.148 0.037-0.356 0.608-0.458 1.157-0.459 1.163-0.052 0.286-0.301 0.497-0.592 0.497h-0.979c-0.29 0-0.539-0.207-0.591-0.493l-0.407-2.228c-4.17 0.855-6.4-1.075-7.477-2.615-0.338 1.144-1.041 2.447-2.498 2.685l-0.265 2.124c-0.037 0.301-0.293 0.526-0.596 0.526h-0.868c-0.161 0-0.315-0.065-0.428-0.179s-0.175-0.27-0.173-0.43c0.003-0.395-0.128-0.896-0.29-0.965-0.039 0.003-0.107 0.003-0.185-0.011-0.159-0.028-0.166-0.009-0.2 0.083-0.23 0.619 0.269 1.996 0.576 2.253 0.046-0.001 0.101-0.004 0.129-0.006 0.315-0.054 0.588 0.157 0.655 0.473 0.31 1.468 0.755 3.571 1.599 4.92 0.010 0.015 0.019 0.030 0.028 0.046zM22.411 12.634h0.017c0.099-0.307 0.265-0.723 0.529-1.155 0.026-1.475-0.214-3.77-0.504-4.747-0.784-2.643-3.339-4.35-6.51-4.35-3.112 0-5.843 1.846-6.493 4.39-0.215 0.842-0.435 3.010-0.465 4.487 0.299 0.194 0.499 0.502 0.626 0.836l0.193-1.547c0.038-0.305 0.316-0.535 0.607-0.526 0.010 0 0.021 0 0.031 0 1.955 0 2.101-3.347 2.102-3.381 0.011-0.294 0.233-0.536 0.524-0.574 0.295-0.039 0.568 0.142 0.652 0.423 0.060 0.196 1.557 4.828 7.444 3.333 0.061-0.015 0.123-0.021 0.187-0.017l0.080 0.005c0.275 0.018 0.503 0.22 0.552 0.492l0.426 2.331z"></path>
</svg>
