<?xml version="1.0" encoding="utf-8"?>
<!-- Generated by IcoMoon.io -->
<!DOCTYPE svg PUBLIC "-//W3C//DTD SVG 1.1//EN" "http://www.w3.org/Graphics/SVG/1.1/DTD/svg11.dtd">
<svg version="1.1" xmlns="http://www.w3.org/2000/svg" xmlns:xlink="http://www.w3.org/1999/xlink" width="32" height="32" viewBox="0 0 32 32">
<path d="M16 14.4h-4c-0.442 0-0.8-0.358-0.8-0.8v-4.8c0-0.442 0.358-0.8 0.8-0.8h4c1.765 0 3.2 1.435 3.2 3.2s-1.435 3.2-3.2 3.2zM12.8 12.8h3.2c0.882 0 1.6-0.718 1.6-1.6s-0.718-1.6-1.6-1.6h-3.2v3.2z"></path>
<path d="M17.6 24h-5.6c-0.442 0-0.8-0.358-0.8-0.8v-4.8c0-0.442 0.358-0.8 0.8-0.8h5.6c1.765 0 3.2 1.435 3.2 3.2s-1.435 3.2-3.2 3.2zM12.8 22.4h4.8c0.882 0 1.6-0.718 1.6-1.6s-0.718-1.6-1.6-1.6h-4.8v3.2z"></path>
<path d="M17.6 28.8h-8.8c-1.323 0-2.4-1.077-2.4-2.4v-20.8c0-1.323 1.077-2.4 2.4-2.4h7.2c4.411 0 8 3.589 8 8 0 1.318-0.323 2.605-0.939 3.758 1.621 1.512 2.539 3.605 2.539 5.842 0 4.411-3.589 8-8 8zM8.8 4.8c-0.442 0-0.8 0.358-0.8 0.8v20.8c0 0.442 0.358 0.8 0.8 0.8h8.8c3.53 0 6.4-2.87 6.4-6.4 0-1.979-0.898-3.816-2.462-5.042-0.338-0.264-0.405-0.746-0.16-1.091 0.669-1.034 1.022-2.232 1.022-3.467 0-3.53-2.87-6.4-6.4-6.4h-7.2z"></path>
</svg>
