<?xml version="1.0" encoding="utf-8"?>
<!-- Generated by IcoMoon.io -->
<!DOCTYPE svg PUBLIC "-//W3C//DTD SVG 1.1//EN" "http://www.w3.org/Graphics/SVG/1.1/DTD/svg11.dtd">
<svg version="1.1" xmlns="http://www.w3.org/2000/svg" xmlns:xlink="http://www.w3.org/1999/xlink" width="32" height="32" viewBox="0 0 32 32">
<path d="M23.2 28.8h-16c-0.442 0-0.8-0.358-0.8-0.8s0.358-0.8 0.8-0.8h16c0.442 0 0.8 0.358 0.8 0.8s-0.358 0.8-0.8 0.8z"></path>
<path d="M26.4 4.8c-0.442 0-0.8 0.358-0.8 0.8v24c0 0.442-0.358 0.8-0.8 0.8h-17.6c-1.323 0-2.4-1.077-2.4-2.4s1.077-2.4 2.4-2.4h14.4c1.323 0 2.4-1.077 2.4-2.4v-19.2c0-1.323-1.077-2.4-2.4-2.4h-16c-1.323 0-2.4 1.077-2.4 2.4v24c0 2.205 1.795 4 4 4h17.6c1.323 0 2.4-1.077 2.4-2.4v-24c0-0.442-0.358-0.8-0.8-0.8zM5.6 3.2h16c0.442 0 0.8 0.358 0.8 0.8v19.2c0 0.442-0.358 0.8-0.8 0.8h-14.4c-0.899 0-1.731 0.299-2.4 0.802v-20.802c0-0.442 0.358-0.8 0.8-0.8z"></path>
</svg>
