<?xml version="1.0" encoding="utf-8"?>
<!-- Generated by IcoMoon.io -->
<!DOCTYPE svg PUBLIC "-//W3C//DTD SVG 1.1//EN" "http://www.w3.org/Graphics/SVG/1.1/DTD/svg11.dtd">
<svg version="1.1" xmlns="http://www.w3.org/2000/svg" xmlns:xlink="http://www.w3.org/1999/xlink" width="32" height="32" viewBox="0 0 32 32">
<path d="M24.8 32c-0.229 0-0.453-0.099-0.608-0.28l-8.992-10.491-8.992 10.491c-0.218 0.254-0.571 0.346-0.885 0.23s-0.523-0.416-0.523-0.75v-28.8c0-0.442 0.358-0.8 0.8-0.8h19.2c0.442 0 0.8 0.358 0.8 0.8v28.8c0 0.334-0.208 0.634-0.523 0.75-0.091 0.034-0.184 0.050-0.277 0.050zM15.2 19.2c0.234 0 0.456 0.102 0.608 0.28l8.192 9.558v-25.837h-17.6v25.837l8.192-9.558c0.152-0.178 0.374-0.28 0.608-0.28z"></path>
</svg>
