<?xml version="1.0" encoding="utf-8"?>
<!-- Generated by IcoMoon.io -->
<!DOCTYPE svg PUBLIC "-//W3C//DTD SVG 1.1//EN" "http://www.w3.org/Graphics/SVG/1.1/DTD/svg11.dtd">
<svg version="1.1" xmlns="http://www.w3.org/2000/svg" xmlns:xlink="http://www.w3.org/1999/xlink" width="32" height="32" viewBox="0 0 32 32">
<path d="M29.6 8h-7.2v-2.4c0-1.323-1.077-2.4-2.4-2.4h-8c-1.323 0-2.4 1.077-2.4 2.4v2.4h-7.2c-1.323 0-2.4 1.077-2.4 2.4v17.6c0 1.323 1.077 2.4 2.4 2.4h27.2c1.323 0 2.4-1.077 2.4-2.4v-17.6c0-1.323-1.077-2.4-2.4-2.4zM11.2 5.6c0-0.442 0.358-0.8 0.8-0.8h8c0.442 0 0.8 0.358 0.8 0.8v2.4h-9.6v-2.4zM2.4 9.6h27.2c0.442 0 0.8 0.358 0.8 0.8v12h-3.2v-0.8c0-0.442-0.358-0.8-0.8-0.8h-3.2c-0.442 0-0.8 0.358-0.8 0.8v0.8h-12.8v-0.8c0-0.442-0.358-0.8-0.8-0.8h-3.2c-0.442 0-0.8 0.358-0.8 0.8v0.8h-3.2v-12c0-0.442 0.358-0.8 0.8-0.8zM25.6 22.4v1.6h-1.6v-1.6h1.6zM8 22.4v1.6h-1.6v-1.6h1.6zM29.6 28.8h-27.2c-0.442 0-0.8-0.358-0.8-0.8v-4h3.2v0.8c0 0.442 0.358 0.8 0.8 0.8h3.2c0.442 0 0.8-0.358 0.8-0.8v-0.8h12.8v0.8c0 0.442 0.358 0.8 0.8 0.8h3.2c0.442 0 0.8-0.358 0.8-0.8v-0.8h3.2v4c0 0.442-0.358 0.8-0.8 0.8z"></path>
</svg>
