<?xml version="1.0" encoding="utf-8"?>
<!-- Generated by IcoMoon.io -->
<!DOCTYPE svg PUBLIC "-//W3C//DTD SVG 1.1//EN" "http://www.w3.org/Graphics/SVG/1.1/DTD/svg11.dtd">
<svg version="1.1" xmlns="http://www.w3.org/2000/svg" xmlns:xlink="http://www.w3.org/1999/xlink" width="32" height="32" viewBox="0 0 32 32">
<path d="M0.8 30.4c-0.36 0-0.675-0.24-0.771-0.587s0.051-0.715 0.36-0.899c2.706-1.622 3.827-3.982 4.226-5.086-2.941-2.251-4.614-5.366-4.614-8.627 0-1.646 0.413-3.242 1.229-4.742 0.778-1.43 1.888-2.712 3.298-3.81 2.859-2.224 6.65-3.45 10.674-3.45s7.814 1.226 10.674 3.45c1.41 1.096 2.52 2.378 3.298 3.81 0.816 1.499 1.229 3.094 1.229 4.742s-0.413 3.242-1.229 4.742c-0.778 1.43-1.888 2.712-3.298 3.81-2.859 2.224-6.65 3.45-10.674 3.45-1.653 0-3.275-0.206-4.826-0.616-0.686 0.458-1.97 1.269-3.502 2.032-2.381 1.184-4.422 1.784-6.070 1.784zM15.2 4.8c-7.499 0-13.6 4.666-13.6 10.4 0 2.904 1.608 5.699 4.41 7.667 0.275 0.194 0.4 0.538 0.314 0.862-0.187 0.698-0.824 2.613-2.528 4.461 2.083-0.73 4.326-1.995 5.982-3.134 0.197-0.136 0.443-0.176 0.674-0.11 1.517 0.434 3.115 0.654 4.749 0.654 7.499 0 13.6-4.666 13.6-10.4s-6.101-10.4-13.6-10.4z"></path>
</svg>
