<?xml version="1.0" encoding="utf-8"?>
<!-- Generated by IcoMoon.io -->
<!DOCTYPE svg PUBLIC "-//W3C//DTD SVG 1.1//EN" "http://www.w3.org/Graphics/SVG/1.1/DTD/svg11.dtd">
<svg version="1.1" xmlns="http://www.w3.org/2000/svg" xmlns:xlink="http://www.w3.org/1999/xlink" width="32" height="32" viewBox="0 0 32 32">
<path d="M28 19.2h-2.424c-0.099-1.758-0.528-3.445-1.25-4.963 1.658-0.488 2.872-2.022 2.872-3.837 0-0.442-0.358-0.8-0.8-0.8s-0.8 0.358-0.8 0.8c0 1.218-0.912 2.227-2.090 2.379-0.278-0.426-0.584-0.834-0.914-1.219-0.173-0.202-0.35-0.394-0.533-0.579 0.224-0.702 0.336-1.434 0.336-2.181 0-3.97-3.23-7.2-7.2-7.2s-7.2 3.23-7.2 7.2c0 0.747 0.114 1.478 0.336 2.181-0.182 0.186-0.36 0.378-0.533 0.579-0.331 0.386-0.635 0.794-0.914 1.219-1.178-0.152-2.090-1.162-2.090-2.379 0-0.442-0.358-0.8-0.8-0.8s-0.8 0.358-0.8 0.8c0 1.814 1.214 3.349 2.872 3.837-0.722 1.518-1.149 3.205-1.25 4.963h-2.422c-0.442 0-0.8 0.358-0.8 0.8s0.358 0.8 0.8 0.8h2.424c0.099 1.758 0.528 3.445 1.25 4.963-1.658 0.488-2.872 2.022-2.872 3.837 0 0.442 0.358 0.8 0.8 0.8s0.8-0.358 0.8-0.8c0-1.218 0.912-2.227 2.090-2.379 0.278 0.426 0.584 0.834 0.914 1.219 1.968 2.296 4.594 3.56 7.395 3.56s5.429-1.264 7.395-3.56c0.331-0.386 0.635-0.794 0.914-1.219 1.178 0.152 2.090 1.162 2.090 2.379 0 0.442 0.358 0.8 0.8 0.8s0.8-0.358 0.8-0.8c0-1.814-1.214-3.349-2.872-3.837 0.722-1.518 1.149-3.205 1.25-4.963h2.422c0.442 0 0.8-0.358 0.8-0.8s-0.358-0.8-0.8-0.8zM15.2 3.2c3.088 0 5.6 2.512 5.6 5.6 0 0.344-0.030 0.682-0.091 1.014-1.635-1.181-3.528-1.814-5.509-1.814s-3.874 0.632-5.509 1.814c-0.061-0.333-0.091-0.67-0.091-1.014 0-3.088 2.512-5.6 5.6-5.6zM6.4 20c0-5.416 3.522-9.877 8-10.357v20.714c-4.478-0.48-8-4.941-8-10.357zM16 30.357v-20.714c4.478 0.48 8 4.941 8 10.357s-3.522 9.877-8 10.357z"></path>
</svg>
