<?xml version="1.0" encoding="utf-8"?>
<!-- Generated by IcoMoon.io -->
<!DOCTYPE svg PUBLIC "-//W3C//DTD SVG 1.1//EN" "http://www.w3.org/Graphics/SVG/1.1/DTD/svg11.dtd">
<svg version="1.1" xmlns="http://www.w3.org/2000/svg" xmlns:xlink="http://www.w3.org/1999/xlink" width="32" height="32" viewBox="0 0 32 32">
<path d="M31.022 4.958c-0.925-2.776-2.154-3.358-3.022-3.358-0.018 0-0.037 0-0.056 0.002-0.885 0.019-2.458 0.478-4.813 1.17-4.934 1.445-12.39 3.63-19.933 3.63-1.824 0-3.2 2.408-3.2 5.6s1.376 5.6 3.2 5.6c0.59 0 1.181 0.013 1.768 0.038l2.666 10.605c0.304 1.21 1.518 2.157 2.766 2.157h2.101c0.693 0 1.282-0.288 1.613-0.792s0.366-1.157 0.096-1.794l-4.123-9.677c5.018 0.739 9.635 2.093 13.046 3.091 2.355 0.69 3.928 1.15 4.813 1.17 0.019 0 0.037 0.002 0.056 0.002 0.867 0 2.096-0.582 3.022-3.358 0.63-1.893 0.978-4.394 0.978-7.042s-0.347-5.149-0.978-7.042zM25.6 12c0-0.821 0.035-1.624 0.102-2.394 0.821 0.083 1.498 1.146 1.498 2.394s-0.675 2.312-1.498 2.394c-0.067-0.77-0.102-1.573-0.102-2.394zM1.6 12c0-2.442 0.947-4 1.6-4 1.816 0 3.622-0.122 5.389-0.326-0.379 1.213-0.589 2.715-0.589 4.326s0.208 3.114 0.589 4.326c-1.766-0.205-3.573-0.326-5.389-0.326-0.653 0-1.6-1.558-1.6-4zM12.738 28.442c0.066 0.154 0.061 0.256 0.042 0.285s-0.11 0.074-0.278 0.074h-2.101c-0.51 0-1.090-0.451-1.214-0.947l-2.541-10.11c0.536 0.043 1.070 0.094 1.6 0.155l4.493 10.544zM10.382 16.565c-0.486-1.099-0.782-2.797-0.782-4.565 0-1.795 0.288-3.461 0.781-4.563 5.096-0.757 9.754-2.12 13.2-3.131 0.664-0.195 1.298-0.381 1.874-0.542-0.165 0.344-0.325 0.741-0.477 1.195-0.63 1.893-0.978 4.394-0.978 7.042s0.347 5.149 0.978 7.042c0.152 0.454 0.312 0.851 0.477 1.195-0.576-0.162-1.21-0.347-1.874-0.542-3.448-1.010-8.104-2.374-13.2-3.131zM29.504 18.536c-0.597 1.792-1.245 2.264-1.504 2.264s-0.907-0.474-1.504-2.264c-0.251-0.752-0.453-1.614-0.6-2.554 0.778-0.090 1.509-0.53 2.042-1.24 0.557-0.742 0.862-1.717 0.862-2.742s-0.307-2.002-0.862-2.742c-0.533-0.71-1.264-1.15-2.042-1.24 0.149-0.938 0.35-1.802 0.6-2.554 0.597-1.792 1.245-2.266 1.504-2.266s0.907 0.474 1.504 2.264c0.578 1.734 0.896 4.054 0.896 6.536s-0.318 4.802-0.896 6.536z"></path>
</svg>
