<?xml version="1.0" encoding="utf-8"?>
<!-- Generated by IcoMoon.io -->
<!DOCTYPE svg PUBLIC "-//W3C//DTD SVG 1.1//EN" "http://www.w3.org/Graphics/SVG/1.1/DTD/svg11.dtd">
<svg version="1.1" xmlns="http://www.w3.org/2000/svg" xmlns:xlink="http://www.w3.org/1999/xlink" width="32" height="32" viewBox="0 0 32 32">
<path d="M8.8 25.6c-1.323 0-2.4-1.077-2.4-2.4s1.077-2.4 2.4-2.4 2.4 1.077 2.4 2.4-1.077 2.4-2.4 2.4zM8.8 22.4c-0.442 0-0.8 0.358-0.8 0.8s0.358 0.8 0.8 0.8 0.8-0.358 0.8-0.8-0.358-0.8-0.8-0.8z"></path>
<path d="M23.2 25.6c-1.323 0-2.4-1.077-2.4-2.4s1.077-2.4 2.4-2.4 2.4 1.077 2.4 2.4-1.077 2.4-2.4 2.4zM23.2 22.4c-0.442 0-0.8 0.358-0.8 0.8s0.358 0.8 0.8 0.8 0.8-0.358 0.8-0.8-0.358-0.8-0.8-0.8z"></path>
<path d="M21.6 8h-11.2c-0.442 0-0.8-0.358-0.8-0.8s0.358-0.8 0.8-0.8h11.2c0.442 0 0.8 0.358 0.8 0.8s-0.358 0.8-0.8 0.8z"></path>
<path d="M24.8 9.6h-17.6c-0.442 0-0.8 0.358-0.8 0.8v8c0 0.442 0.358 0.8 0.8 0.8h7.997c0.002 0 0.002 0 0.003 0s0.002 0 0.003 0h7.994c0.002 0 0.002 0 0.003 0s0.002 0 0.003 0h1.597c0.442 0 0.8-0.358 0.8-0.8v-8c0-0.442-0.358-0.8-0.8-0.8zM8 11.2h16v6.4h-0.558l-4.598-3.066c-0.368-0.245-0.864-0.146-1.109 0.222s-0.146 0.864 0.222 1.109l2.602 1.734h-5.115l-4.598-3.066c-0.368-0.245-0.864-0.146-1.109 0.222s-0.146 0.864 0.222 1.109l2.602 1.734h-4.558v-6.4z"></path>
<path d="M24.986 2.853c-2.181-0.83-5.205-1.253-8.986-1.253s-6.803 0.421-8.986 1.253c-3.154 1.202-3.814 3.027-3.814 4.347v17.6c0 1.931 1.376 3.547 3.2 3.92v1.68c0 0.882 0.718 1.6 1.6 1.6h1.6c0.882 0 1.6-0.718 1.6-1.6v-1.6h9.6v1.6c0 0.882 0.718 1.6 1.6 1.6h1.6c0.882 0 1.6-0.718 1.6-1.6v-1.68c1.824-0.371 3.2-1.987 3.2-3.92v-17.6c0-1.32-0.662-3.146-3.814-4.347zM9.6 30.4h-1.6v-1.6h1.6v1.6zM22.4 30.4v-1.6h1.6v1.6h-1.6zM27.2 24.8c0 1.323-1.077 2.4-2.4 2.4h-17.6c-1.323 0-2.4-1.077-2.4-2.4v-17.6c0-1.189 0.938-2.149 2.786-2.853 1.971-0.75 4.88-1.147 8.414-1.147s6.445 0.397 8.414 1.147c1.848 0.704 2.786 1.664 2.786 2.853v17.6z"></path>
</svg>
