<?xml version="1.0" encoding="utf-8"?>
<!-- Generated by IcoMoon.io -->
<!DOCTYPE svg PUBLIC "-//W3C//DTD SVG 1.1//EN" "http://www.w3.org/Graphics/SVG/1.1/DTD/svg11.dtd">
<svg version="1.1" xmlns="http://www.w3.org/2000/svg" xmlns:xlink="http://www.w3.org/1999/xlink" width="32" height="32" viewBox="0 0 32 32">
<path d="M29.6 3.2h-4v-0.8c0-0.442-0.358-0.8-0.8-0.8s-0.8 0.358-0.8 0.8v0.8h-16v-0.8c0-0.442-0.358-0.8-0.8-0.8s-0.8 0.358-0.8 0.8v0.8h-4c-1.323 0-2.4 1.077-2.4 2.4v22.4c0 1.323 1.077 2.4 2.4 2.4h27.2c1.323 0 2.4-1.077 2.4-2.4v-22.4c0-1.323-1.077-2.4-2.4-2.4zM2.4 4.8h4v2.4c0 0.442 0.358 0.8 0.8 0.8s0.8-0.358 0.8-0.8v-2.4h16v2.4c0 0.442 0.358 0.8 0.8 0.8s0.8-0.358 0.8-0.8v-2.4h4c0.442 0 0.8 0.358 0.8 0.8v4h-28.8v-4c0-0.442 0.358-0.8 0.8-0.8zM29.6 28.8h-27.2c-0.442 0-0.8-0.358-0.8-0.8v-16.8h28.8v16.8c0 0.442-0.358 0.8-0.8 0.8z"></path>
<path d="M12 16h-1.6c-0.442 0-0.8-0.358-0.8-0.8s0.358-0.8 0.8-0.8h1.6c0.442 0 0.8 0.358 0.8 0.8s-0.358 0.8-0.8 0.8z"></path>
<path d="M16.8 16h-1.6c-0.442 0-0.8-0.358-0.8-0.8s0.358-0.8 0.8-0.8h1.6c0.442 0 0.8 0.358 0.8 0.8s-0.358 0.8-0.8 0.8z"></path>
<path d="M21.6 16h-1.6c-0.442 0-0.8-0.358-0.8-0.8s0.358-0.8 0.8-0.8h1.6c0.442 0 0.8 0.358 0.8 0.8s-0.358 0.8-0.8 0.8z"></path>
<path d="M26.4 16h-1.6c-0.442 0-0.8-0.358-0.8-0.8s0.358-0.8 0.8-0.8h1.6c0.442 0 0.8 0.358 0.8 0.8s-0.358 0.8-0.8 0.8z"></path>
<path d="M7.2 19.2h-1.6c-0.442 0-0.8-0.358-0.8-0.8s0.358-0.8 0.8-0.8h1.6c0.442 0 0.8 0.358 0.8 0.8s-0.358 0.8-0.8 0.8z"></path>
<path d="M12 19.2h-1.6c-0.442 0-0.8-0.358-0.8-0.8s0.358-0.8 0.8-0.8h1.6c0.442 0 0.8 0.358 0.8 0.8s-0.358 0.8-0.8 0.8z"></path>
<path d="M16.8 19.2h-1.6c-0.442 0-0.8-0.358-0.8-0.8s0.358-0.8 0.8-0.8h1.6c0.442 0 0.8 0.358 0.8 0.8s-0.358 0.8-0.8 0.8z"></path>
<path d="M21.6 19.2h-1.6c-0.442 0-0.8-0.358-0.8-0.8s0.358-0.8 0.8-0.8h1.6c0.442 0 0.8 0.358 0.8 0.8s-0.358 0.8-0.8 0.8z"></path>
<path d="M26.4 19.2h-1.6c-0.442 0-0.8-0.358-0.8-0.8s0.358-0.8 0.8-0.8h1.6c0.442 0 0.8 0.358 0.8 0.8s-0.358 0.8-0.8 0.8z"></path>
<path d="M7.2 22.4h-1.6c-0.442 0-0.8-0.358-0.8-0.8s0.358-0.8 0.8-0.8h1.6c0.442 0 0.8 0.358 0.8 0.8s-0.358 0.8-0.8 0.8z"></path>
<path d="M12 22.4h-1.6c-0.442 0-0.8-0.358-0.8-0.8s0.358-0.8 0.8-0.8h1.6c0.442 0 0.8 0.358 0.8 0.8s-0.358 0.8-0.8 0.8z"></path>
<path d="M16.8 22.4h-1.6c-0.442 0-0.8-0.358-0.8-0.8s0.358-0.8 0.8-0.8h1.6c0.442 0 0.8 0.358 0.8 0.8s-0.358 0.8-0.8 0.8z"></path>
<path d="M21.6 22.4h-1.6c-0.442 0-0.8-0.358-0.8-0.8s0.358-0.8 0.8-0.8h1.6c0.442 0 0.8 0.358 0.8 0.8s-0.358 0.8-0.8 0.8z"></path>
<path d="M26.4 22.4h-1.6c-0.442 0-0.8-0.358-0.8-0.8s0.358-0.8 0.8-0.8h1.6c0.442 0 0.8 0.358 0.8 0.8s-0.358 0.8-0.8 0.8z"></path>
<path d="M7.2 25.6h-1.6c-0.442 0-0.8-0.358-0.8-0.8s0.358-0.8 0.8-0.8h1.6c0.442 0 0.8 0.358 0.8 0.8s-0.358 0.8-0.8 0.8z"></path>
<path d="M12 25.6h-1.6c-0.442 0-0.8-0.358-0.8-0.8s0.358-0.8 0.8-0.8h1.6c0.442 0 0.8 0.358 0.8 0.8s-0.358 0.8-0.8 0.8z"></path>
<path d="M16.8 25.6h-1.6c-0.442 0-0.8-0.358-0.8-0.8s0.358-0.8 0.8-0.8h1.6c0.442 0 0.8 0.358 0.8 0.8s-0.358 0.8-0.8 0.8z"></path>
<path d="M21.6 25.6h-1.6c-0.442 0-0.8-0.358-0.8-0.8s0.358-0.8 0.8-0.8h1.6c0.442 0 0.8 0.358 0.8 0.8s-0.358 0.8-0.8 0.8z"></path>
<path d="M26.4 25.6h-1.6c-0.442 0-0.8-0.358-0.8-0.8s0.358-0.8 0.8-0.8h1.6c0.442 0 0.8 0.358 0.8 0.8s-0.358 0.8-0.8 0.8z"></path>
</svg>
