<?xml version="1.0" encoding="utf-8"?>
<!-- Generated by IcoMoon.io -->
<!DOCTYPE svg PUBLIC "-//W3C//DTD SVG 1.1//EN" "http://www.w3.org/Graphics/SVG/1.1/DTD/svg11.dtd">
<svg version="1.1" xmlns="http://www.w3.org/2000/svg" xmlns:xlink="http://www.w3.org/1999/xlink" width="32" height="32" viewBox="0 0 32 32">
<path d="M15.2 24c-3.97 0-7.2-3.23-7.2-7.2s3.23-7.2 7.2-7.2c3.97 0 7.2 3.23 7.2 7.2s-3.23 7.2-7.2 7.2zM15.2 11.2c-3.088 0-5.6 2.512-5.6 5.6s2.512 5.6 5.6 5.6 5.6-2.512 5.6-5.6-2.512-5.6-5.6-5.6z"></path>
<path d="M28 28.8h-25.6c-1.323 0-2.4-1.077-2.4-2.4v-16c0-1.323 1.077-2.4 2.4-2.4h2.4c0.664 0 1.696-0.427 2.166-0.898l0.938-0.938c0.779-0.779 2.197-1.366 3.298-1.366h8c1.101 0 2.518 0.587 3.298 1.366l0.938 0.938c0.469 0.469 1.502 0.898 2.166 0.898h2.4c1.323 0 2.4 1.077 2.4 2.4v16c0 1.323-1.077 2.4-2.4 2.4zM2.4 9.6c-0.442 0-0.8 0.358-0.8 0.8v16c0 0.442 0.358 0.8 0.8 0.8h25.6c0.442 0 0.8-0.358 0.8-0.8v-16c0-0.442-0.358-0.8-0.8-0.8h-2.4c-1.101 0-2.518-0.587-3.298-1.366l-0.938-0.938c-0.469-0.469-1.502-0.898-2.166-0.898h-8c-0.664 0-1.696 0.427-2.166 0.898l-0.938 0.938c-0.779 0.779-2.195 1.366-3.298 1.366h-2.4z"></path>
</svg>
