<?xml version="1.0" encoding="utf-8"?>
<!-- Generated by IcoMoon.io -->
<!DOCTYPE svg PUBLIC "-//W3C//DTD SVG 1.1//EN" "http://www.w3.org/Graphics/SVG/1.1/DTD/svg11.dtd">
<svg version="1.1" xmlns="http://www.w3.org/2000/svg" xmlns:xlink="http://www.w3.org/1999/xlink" width="32" height="32" viewBox="0 0 32 32">
<path d="M30.61 27.285c0 0 0 0 0 0-0.387 0-0.776-0.155-1.158-0.461l-5.501-4.402c-0.883-0.707-1.55-2.093-1.55-3.224v-4.8c0-1.131 0.666-2.517 1.55-3.224l5.501-4.402c0.382-0.306 0.771-0.461 1.158-0.461 0.693 0 1.39 0.522 1.39 1.685v17.6c0 0.445-0.102 0.819-0.304 1.11-0.251 0.365-0.648 0.574-1.086 0.574zM30.4 8.064l-5.451 4.36c-0.496 0.397-0.949 1.339-0.949 1.974v4.8c0 0.637 0.453 1.578 0.949 1.974l5.451 4.36v-17.47z"></path>
<path d="M18.4 27.2h-16c-1.323 0-2.4-1.077-2.4-2.4v-16c0-1.323 1.077-2.4 2.4-2.4h16c1.323 0 2.4 1.077 2.4 2.4v16c0 1.323-1.077 2.4-2.4 2.4zM2.4 8c-0.442 0-0.8 0.358-0.8 0.8v16c0 0.442 0.358 0.8 0.8 0.8h16c0.442 0 0.8-0.358 0.8-0.8v-16c0-0.442-0.358-0.8-0.8-0.8h-16z"></path>
</svg>
