<?xml version="1.0" encoding="utf-8"?>
<!-- Generated by IcoMoon.io -->
<!DOCTYPE svg PUBLIC "-//W3C//DTD SVG 1.1//EN" "http://www.w3.org/Graphics/SVG/1.1/DTD/svg11.dtd">
<svg version="1.1" xmlns="http://www.w3.org/2000/svg" xmlns:xlink="http://www.w3.org/1999/xlink" width="32" height="32" viewBox="0 0 32 32">
<path d="M12.8 32c-1.765 0-3.2-1.435-3.2-3.2s1.435-3.2 3.2-3.2 3.2 1.435 3.2 3.2-1.435 3.2-3.2 3.2zM12.8 27.2c-0.882 0-1.6 0.718-1.6 1.6s0.718 1.6 1.6 1.6 1.6-0.718 1.6-1.6-0.718-1.6-1.6-1.6z"></path>
<path d="M24 32c-1.765 0-3.2-1.435-3.2-3.2s1.435-3.2 3.2-3.2 3.2 1.435 3.2 3.2-1.435 3.2-3.2 3.2zM24 27.2c-0.882 0-1.6 0.718-1.6 1.6s0.718 1.6 1.6 1.6 1.6-0.718 1.6-1.6-0.718-1.6-1.6-1.6z"></path>
<path d="M28.062 7.147c-0.402-0.475-1.008-0.747-1.662-0.747h-19.589l-0.158-0.954c-0.21-1.259-1.374-2.246-2.653-2.246h-1.6c-0.442 0-0.8 0.358-0.8 0.8s0.358 0.8 0.8 0.8h1.6c0.491 0 0.994 0.426 1.074 0.91l2.674 16.043c0.21 1.259 1.374 2.246 2.653 2.246h16c0.442 0 0.8-0.358 0.8-0.8s-0.358-0.8-0.8-0.8h-16c-0.491 0-0.994-0.426-1.074-0.91l-0.395-2.368 15.944-1.387c1.24-0.107 2.373-1.154 2.578-2.382l1.074-6.443c0.107-0.646-0.061-1.29-0.462-1.763zM26.947 8.646l-1.074 6.443c-0.085 0.506-0.626 1.006-1.138 1.051l-16.069 1.397-1.59-9.539h19.322c0.187 0 0.344 0.064 0.442 0.181s0.136 0.282 0.106 0.466z"></path>
</svg>
