<?xml version="1.0" encoding="utf-8"?>
<!-- Generated by IcoMoon.io -->
<!DOCTYPE svg PUBLIC "-//W3C//DTD SVG 1.1//EN" "http://www.w3.org/Graphics/SVG/1.1/DTD/svg11.dtd">
<svg version="1.1" xmlns="http://www.w3.org/2000/svg" xmlns:xlink="http://www.w3.org/1999/xlink" width="32" height="32" viewBox="0 0 32 32">
<path d="M28 32h-25.6c-1.323 0-2.4-1.077-2.4-2.4v-25.6c0-1.323 1.077-2.4 2.4-2.4h25.6c1.323 0 2.4 1.077 2.4 2.4v25.6c0 1.323-1.077 2.4-2.4 2.4zM2.4 3.2c-0.442 0-0.8 0.358-0.8 0.8v25.6c0 0.442 0.358 0.8 0.8 0.8h25.6c0.442 0 0.8-0.358 0.8-0.8v-25.6c0-0.442-0.358-0.8-0.8-0.8h-25.6z"></path>
<path d="M10.4 27.2h-3.2c-0.442 0-0.8-0.358-0.8-0.8v-14.4c0-0.442 0.358-0.8 0.8-0.8h3.2c0.442 0 0.8 0.358 0.8 0.8v14.4c0 0.442-0.358 0.8-0.8 0.8zM8 25.6h1.6v-12.8h-1.6v12.8z"></path>
<path d="M16.8 27.2h-3.2c-0.442 0-0.8-0.358-0.8-0.8v-19.2c0-0.442 0.358-0.8 0.8-0.8h3.2c0.442 0 0.8 0.358 0.8 0.8v19.2c0 0.442-0.358 0.8-0.8 0.8zM14.4 25.6h1.6v-17.6h-1.6v17.6z"></path>
<path d="M23.2 27.2h-3.2c-0.442 0-0.8-0.358-0.8-0.8v-8c0-0.442 0.358-0.8 0.8-0.8h3.2c0.442 0 0.8 0.358 0.8 0.8v8c0 0.442-0.358 0.8-0.8 0.8zM20.8 25.6h1.6v-6.4h-1.6v6.4z"></path>
</svg>
