<?xml version="1.0" encoding="utf-8"?>
<!-- Generated by IcoMoon.io -->
<!DOCTYPE svg PUBLIC "-//W3C//DTD SVG 1.1//EN" "http://www.w3.org/Graphics/SVG/1.1/DTD/svg11.dtd">
<svg version="1.1" xmlns="http://www.w3.org/2000/svg" xmlns:xlink="http://www.w3.org/1999/xlink" width="32" height="32" viewBox="0 0 32 32">
<path d="M15.2 32c-4.061 0-7.877-1.581-10.749-4.451s-4.451-6.688-4.451-10.747c0-4.061 1.581-7.877 4.451-10.749s6.688-4.453 10.749-4.453c4.061 0 7.877 1.581 10.749 4.453s4.451 6.688 4.451 10.749-1.581 7.877-4.451 10.747c-2.87 2.87-6.688 4.451-10.749 4.451zM15.2 3.2c-7.499 0-13.6 6.101-13.6 13.6s6.101 13.6 13.6 13.6 13.6-6.101 13.6-13.6-6.101-13.6-13.6-13.6z"></path>
<path d="M12 23.2c-0.205 0-0.41-0.078-0.566-0.234l-4.8-4.8c-0.312-0.312-0.312-0.819 0-1.131s0.819-0.312 1.131 0l4.234 4.234 10.634-10.634c0.312-0.312 0.819-0.312 1.131 0s0.312 0.819 0 1.131l-11.2 11.2c-0.157 0.157-0.362 0.234-0.566 0.234z"></path>
</svg>
