<?xml version="1.0" encoding="utf-8"?>
<!-- Generated by IcoMoon.io -->
<!DOCTYPE svg PUBLIC "-//W3C//DTD SVG 1.1//EN" "http://www.w3.org/Graphics/SVG/1.1/DTD/svg11.dtd">
<svg version="1.1" xmlns="http://www.w3.org/2000/svg" xmlns:xlink="http://www.w3.org/1999/xlink" width="32" height="32" viewBox="0 0 32 32">
<path d="M4.451 6.051c2.87-2.87 6.688-4.451 10.749-4.451s7.877 1.581 10.749 4.451 4.451 6.688 4.451 10.747-1.581 7.877-4.451 10.749-6.688 4.451-10.749 4.451-7.877-1.581-10.749-4.451-4.451-6.688-4.451-10.749 1.581-7.877 4.451-10.747zM15.2 30.4c7.499 0 13.6-6.101 13.6-13.6s-6.101-13.6-13.6-13.6c-7.499 0-13.6 6.101-13.6 13.6s6.101 13.6 13.6 13.6z"></path>
<path d="M17.6 25.6c0.205 0 0.41-0.078 0.566-0.234 0.312-0.312 0.312-0.819 0-1.131l-7.434-7.434 7.434-7.434c0.312-0.312 0.312-0.819 0-1.131s-0.819-0.312-1.131 0l-8 8c-0.312 0.312-0.312 0.819 0 1.131l8 8c0.157 0.157 0.362 0.234 0.566 0.234z"></path>
</svg>
