<?xml version="1.0" encoding="utf-8"?>
<!-- Generated by IcoMoon.io -->
<!DOCTYPE svg PUBLIC "-//W3C//DTD SVG 1.1//EN" "http://www.w3.org/Graphics/SVG/1.1/DTD/svg11.dtd">
<svg version="1.1" xmlns="http://www.w3.org/2000/svg" xmlns:xlink="http://www.w3.org/1999/xlink" width="32" height="32" viewBox="0 0 32 32">
<path d="M25.949 6.051c-2.87-2.87-6.688-4.451-10.749-4.451s-7.877 1.581-10.749 4.451-4.451 6.688-4.451 10.747 1.581 7.877 4.451 10.749 6.688 4.451 10.749 4.451 7.877-1.581 10.749-4.451 4.451-6.688 4.451-10.749-1.581-7.877-4.451-10.747zM15.2 30.4c-7.499 0-13.6-6.101-13.6-13.6s6.101-13.6 13.6-13.6c7.499 0 13.6 6.101 13.6 13.6s-6.101 13.6-13.6 13.6z"></path>
<path d="M24.8 17.6h-19.2c-0.442 0-0.8-0.358-0.8-0.8s0.358-0.8 0.8-0.8h19.2c0.442 0 0.8 0.358 0.8 0.8s-0.358 0.8-0.8 0.8z"></path>
</svg>
