<?xml version="1.0" encoding="utf-8"?>
<!-- Generated by IcoMoon.io -->
<!DOCTYPE svg PUBLIC "-//W3C//DTD SVG 1.1//EN" "http://www.w3.org/Graphics/SVG/1.1/DTD/svg11.dtd">
<svg version="1.1" xmlns="http://www.w3.org/2000/svg" xmlns:xlink="http://www.w3.org/1999/xlink" width="26" height="32" viewBox="0 0 26 32">
<path d="M5.67 9.002c-1.395 0-2.534-1.139-2.534-2.534s1.139-2.534 2.534-2.534 2.534 1.139 2.534 2.534-1.139 2.534-2.534 2.534zM5.67 4.446c-1.114 0-2.022 0.909-2.022 2.022s0.909 2.022 2.022 2.022 2.022-0.909 2.022-2.022-0.909-2.022-2.022-2.022z"></path>
<path d="M9.472 13.508h-7.552v-0.256c0-2.15 1.626-3.763 3.776-3.763s3.776 1.613 3.776 3.763v0.256zM2.419 12.996h6.49c-0.128-1.728-1.472-2.995-3.251-2.995s-3.11 1.267-3.238 2.995z"></path>
<path d="M12.902 22.302c-1.395 0-2.534-1.139-2.534-2.534s1.139-2.534 2.534-2.534c1.395 0 2.534 1.139 2.534 2.534s-1.139 2.534-2.534 2.534zM12.902 17.745c-1.114 0-2.022 0.909-2.022 2.022s0.909 2.022 2.022 2.022 2.022-0.909 2.022-2.022c-0.013-1.114-0.909-2.022-2.022-2.022z"></path>
<path d="M16.64 26.82h-7.552v-0.256c0-2.15 1.626-3.763 3.776-3.763s3.776 1.613 3.776 3.763v0.256zM9.651 26.308h6.49c-0.128-1.728-1.472-2.995-3.251-2.995-1.766 0-3.11 1.267-3.238 2.995z"></path>
<path d="M20.122 9.002c-1.395 0-2.534-1.139-2.534-2.534s1.139-2.534 2.534-2.534 2.534 1.139 2.534 2.534-1.139 2.534-2.534 2.534zM20.122 4.446c-1.114 0-2.022 0.909-2.022 2.022s0.909 2.022 2.022 2.022c1.114 0 2.022-0.909 2.022-2.022s-0.909-2.022-2.022-2.022z"></path>
<path d="M23.936 13.508h-7.552v-0.256c0-2.15 1.626-3.763 3.776-3.763s3.776 1.626 3.776 3.763v0.256zM16.883 12.996h6.49c-0.128-1.728-1.472-2.995-3.251-2.995s-3.123 1.267-3.238 2.995z"></path>
<path d="M16.934 4.714c-1.267-0.589-2.637-0.883-4.032-0.883-1.408 0-2.765 0.294-4.032 0.883l-0.218-0.461c1.344-0.614 2.765-0.922 4.25-0.922s2.906 0.307 4.25 0.922l-0.218 0.461z"></path>
<path d="M9.408 23.658c-4.045-1.485-6.771-5.414-6.771-9.638h0.512c0 4.096 2.586 7.757 6.438 9.165l-0.179 0.474z"></path>
<path d="M16.23 23.658l-0.166-0.474c3.955-1.344 6.502-4.941 6.502-9.165h0.512c0 4.352-2.688 8.218-6.848 9.638z"></path>
</svg>
