<?xml version="1.0" encoding="utf-8"?>
<!-- Generated by IcoMoon.io -->
<!DOCTYPE svg PUBLIC "-//W3C//DTD SVG 1.1//EN" "http://www.w3.org/Graphics/SVG/1.1/DTD/svg11.dtd">
<svg version="1.1" xmlns="http://www.w3.org/2000/svg" xmlns:xlink="http://www.w3.org/1999/xlink" width="32" height="32" viewBox="0 0 32 32">
<path d="M16.078 0.203c-8.711 0-15.797 7.085-15.797 15.797s7.085 15.781 15.797 15.781c8.711 0 15.781-7.070 15.781-15.781s-7.070-15.797-15.781-15.797zM16.078 1.594c7.959 0 14.391 6.448 14.391 14.406s-6.432 14.391-14.391 14.391c-7.959 0-14.406-6.432-14.406-14.391s6.448-14.406 14.406-14.406zM18.016 8.188c-0.384-0.001-0.789 0.036-1.203 0.125-0.672 0.144-1.551 0.338-2.422 0.797-1.484 0.782-2.839 2.312-3.234 4.594h-1.672v1.391h1.531c-0.028 0.465-0.038 0.931-0.016 1.391h-1.516v1.391h1.672c0.094 0.502 0.225 0.983 0.406 1.438 0.587 1.47 1.52 2.405 2.375 3.016 0.863 0.617 2.114 0.989 3.406 1.016 0.846 0.017 1.685-0.099 2.391-0.25 0.353-0.075 0.678-0.152 0.953-0.25s0.483-0.177 0.75-0.406l-1.125-1.313c0.091-0.078-0.040 0.014-0.219 0.078s-0.427 0.125-0.719 0.188c-0.584 0.124-1.325 0.217-2 0.203-0.927-0.019-2.017-0.398-2.422-0.688-0.669-0.478-1.313-1.116-1.766-2.25-0.095-0.237-0.169-0.503-0.234-0.781h6.984v-1.391h-7.188c-0.029-0.454-0.029-0.918 0-1.391h7.188v-1.391h-7c0.355-1.589 1.254-2.514 2.266-3.047 0.618-0.326 1.321-0.502 1.969-0.641 1.449-0.31 3.063 0.438 3.063 0.438l0.781-1.563c0 0-1.132-0.593-2.625-0.688-0.124-0.008-0.247-0.015-0.375-0.016z"></path>
</svg>
