<?xml version="1.0" encoding="utf-8"?>
<!-- Generated by IcoMoon.io -->
<!DOCTYPE svg PUBLIC "-//W3C//DTD SVG 1.1//EN" "http://www.w3.org/Graphics/SVG/1.1/DTD/svg11.dtd">
<svg version="1.1" xmlns="http://www.w3.org/2000/svg" xmlns:xlink="http://www.w3.org/1999/xlink" width="32" height="32" viewBox="0 0 32 32">
<path d="M26.112 27.381c2.766-2.851 4.288-6.598 4.288-10.581 0-3.792-1.379-7.373-3.901-10.168l1.101-1.101 1.035 1.034c0.157 0.157 0.362 0.234 0.565 0.234s0.41-0.078 0.565-0.234c0.312-0.312 0.312-0.819 0-1.131l-3.2-3.2c-0.312-0.312-0.819-0.312-1.131 0s-0.312 0.819 0 1.131l1.035 1.034-1.101 1.101c-2.795-2.522-6.376-3.901-10.168-3.901s-7.373 1.379-10.168 3.901l-1.101-1.101 1.034-1.034c0.312-0.312 0.312-0.819 0-1.131s-0.819-0.312-1.131 0l-3.2 3.2c-0.312 0.312-0.312 0.819 0 1.131 0.157 0.157 0.362 0.234 0.566 0.234s0.41-0.078 0.566-0.234l1.034-1.034 1.101 1.101c-2.522 2.795-3.901 6.376-3.901 10.168 0 3.982 1.522 7.73 4.288 10.581l-3.254 3.254c-0.312 0.312-0.312 0.819 0 1.131 0.157 0.157 0.362 0.235 0.566 0.235s0.41-0.078 0.566-0.235l3.296-3.294c2.728 2.285 6.138 3.53 9.739 3.53s7.011-1.245 9.739-3.53l3.294 3.294c0.157 0.157 0.362 0.235 0.566 0.235s0.41-0.078 0.565-0.235c0.312-0.312 0.312-0.819 0-1.131l-3.254-3.254zM1.6 16.8c0-7.499 6.101-13.6 13.6-13.6s13.6 6.101 13.6 13.6c0 7.499-6.101 13.6-13.6 13.6s-13.6-6.101-13.6-13.6z"></path>
<path d="M24.206 11.6c-0.221-0.382-0.71-0.514-1.093-0.293l-7.872 4.546-6.136-4.296c-0.362-0.253-0.861-0.165-1.114 0.197s-0.165 0.861 0.197 1.114l6.554 4.589c0.002 0.002 0.003 0.002 0.003 0.003 0.014 0.010 0.029 0.019 0.043 0.027 0.003 0.002 0.006 0.005 0.010 0.006 0.014 0.008 0.029 0.016 0.043 0.024 0.003 0.002 0.006 0.003 0.010 0.005 0.016 0.008 0.032 0.014 0.050 0.022 0.010 0.005 0.021 0.008 0.030 0.011 0.006 0.002 0.013 0.005 0.021 0.008 0.011 0.003 0.022 0.006 0.034 0.010 0.006 0.002 0.013 0.003 0.019 0.005 0.011 0.003 0.022 0.005 0.035 0.008 0.006 0.002 0.013 0.003 0.019 0.003 0.011 0.002 0.022 0.003 0.034 0.005 0.008 0.002 0.016 0.002 0.024 0.003 0.010 0.002 0.019 0.002 0.029 0.003 0.014 0.002 0.029 0.002 0.043 0.002 0.003 0 0.006 0 0.010 0 0 0 0 0 0 0s0 0 0.002 0c0.030 0 0.059-0.002 0.090-0.005 0.002 0 0.003 0 0.005 0 0.029-0.003 0.058-0.008 0.086-0.016 0.003 0 0.005-0.002 0.008-0.002 0.027-0.006 0.054-0.014 0.080-0.024 0.005-0.002 0.010-0.003 0.013-0.005 0.026-0.010 0.050-0.019 0.074-0.032 0.006-0.003 0.011-0.006 0.018-0.010 0.008-0.005 0.018-0.008 0.026-0.013l8.314-4.8c0.382-0.221 0.514-0.71 0.293-1.093z"></path>
</svg>
