<?xml version="1.0" encoding="utf-8"?>
<!-- Generated by IcoMoon.io -->
<!DOCTYPE svg PUBLIC "-//W3C//DTD SVG 1.1//EN" "http://www.w3.org/Graphics/SVG/1.1/DTD/svg11.dtd">
<svg version="1.1" xmlns="http://www.w3.org/2000/svg" xmlns:xlink="http://www.w3.org/1999/xlink" width="32" height="32" viewBox="0 0 32 32">
<path d="M25.6 25.6h-15.2c-0.442 0-0.8-0.358-0.8-0.8s0.358-0.8 0.8-0.8h15.2c2.646 0 4.8-2.154 4.8-4.8s-2.154-4.8-4.8-4.8c-0.549 0-1.088 0.091-1.6 0.272-0.347 0.123-0.733-0.008-0.934-0.315s-0.168-0.714 0.082-0.984c0.55-0.594 0.853-1.365 0.853-2.174 0-1.765-1.435-3.2-3.2-3.2-1.688 0-3.090 1.317-3.194 3-0.021 0.339-0.254 0.629-0.581 0.72s-0.677-0.032-0.872-0.31c-1.499-2.134-3.949-3.41-6.554-3.41-4.411 0-8 3.589-8 8 0 0.243 0.011 0.488 0.032 0.728 0.040 0.44-0.285 0.829-0.725 0.869s-0.829-0.285-0.869-0.725c-0.026-0.288-0.038-0.581-0.038-0.872 0-5.293 4.307-9.6 9.6-9.6 2.578 0 5.029 1.040 6.818 2.842 0.754-1.68 2.443-2.842 4.382-2.842 2.646 0 4.8 2.154 4.8 4.8 0 0.554-0.094 1.096-0.275 1.606 0.091-0.003 0.184-0.006 0.275-0.006 3.53 0 6.4 2.87 6.4 6.4s-2.87 6.4-6.4 6.4z"></path>
<path d="M5.6 24.8c-0.205 0-0.41-0.078-0.566-0.234l-3.2-3.2c-0.312-0.312-0.312-0.819 0-1.131s0.819-0.312 1.131 0l2.634 2.634 7.434-7.434c0.312-0.312 0.819-0.312 1.131 0s0.312 0.819 0 1.131l-8 8c-0.157 0.157-0.362 0.234-0.566 0.234z"></path>
</svg>
