<?xml version="1.0" encoding="utf-8"?>
<!-- Generated by IcoMoon.io -->
<!DOCTYPE svg PUBLIC "-//W3C//DTD SVG 1.1//EN" "http://www.w3.org/Graphics/SVG/1.1/DTD/svg11.dtd">
<svg version="1.1" xmlns="http://www.w3.org/2000/svg" xmlns:xlink="http://www.w3.org/1999/xlink" width="32" height="32" viewBox="0 0 32 32">
<path d="M25.61 25.6h-5.61c-0.442 0-0.8-0.358-0.8-0.8s0.358-0.8 0.8-0.8h5.61c2.642 0 4.79-2.149 4.79-4.79s-2.149-4.79-4.79-4.79c-0.563 0-1.114 0.096-1.637 0.286-0.349 0.126-0.739-0.003-0.942-0.314s-0.166-0.72 0.090-0.989c0.568-0.597 0.88-1.379 0.88-2.203 0-1.765-1.435-3.2-3.2-3.2-1.027 0-1.966 0.475-2.576 1.302-0.366 0.496-0.579 1.083-0.618 1.698-0.021 0.339-0.254 0.629-0.582 0.722s-0.677-0.034-0.872-0.312l-0.008-0.011c-0.171-0.243-0.362-0.483-0.562-0.707-1.518-1.709-3.699-2.69-5.984-2.69-4.411 0-8 3.589-8 8s3.589 8 8 8h4c0.442 0 0.8 0.358 0.8 0.8s-0.358 0.8-0.8 0.8h-4c-5.293 0-9.6-4.307-9.6-9.6s4.307-9.6 9.6-9.6c2.565 0 5.019 1.029 6.818 2.84 0.139-0.312 0.314-0.61 0.518-0.888 0.902-1.222 2.347-1.952 3.864-1.952 2.646 0 4.8 2.154 4.8 4.8 0 0.562-0.098 1.11-0.282 1.627 0.098-0.005 0.195-0.006 0.293-0.006 3.523 0 6.39 2.867 6.39 6.39s-2.867 6.39-6.39 6.39z"></path>
<path d="M20.566 19.434l-3.2-3.2c-0.312-0.312-0.819-0.312-1.131 0l-3.2 3.2c-0.312 0.312-0.312 0.819 0 1.131s0.819 0.312 1.131 0l1.834-1.834v6.069c0 0.442 0.358 0.8 0.8 0.8s0.8-0.358 0.8-0.8v-6.069l1.834 1.834c0.157 0.157 0.362 0.234 0.566 0.234s0.41-0.078 0.566-0.234c0.312-0.312 0.312-0.819 0-1.131z"></path>
</svg>
