<?xml version="1.0" encoding="utf-8"?>
<!-- Generated by IcoMoon.io -->
<!DOCTYPE svg PUBLIC "-//W3C//DTD SVG 1.1//EN" "http://www.w3.org/Graphics/SVG/1.1/DTD/svg11.dtd">
<svg version="1.1" xmlns="http://www.w3.org/2000/svg" xmlns:xlink="http://www.w3.org/1999/xlink" width="32" height="32" viewBox="0 0 32 32">
<path d="M25.61 25.6h-16.010c-5.293 0-9.6-4.307-9.6-9.6s4.307-9.6 9.6-9.6c2.563 0 5.019 1.029 6.816 2.84 0.141-0.31 0.314-0.608 0.52-0.888 0.902-1.222 2.347-1.952 3.864-1.952 2.646 0 4.8 2.154 4.8 4.8 0 0.562-0.098 1.11-0.285 1.627 0.098-0.005 0.195-0.006 0.294-0.006 3.523 0 6.39 2.867 6.39 6.39s-2.867 6.39-6.39 6.39zM9.6 8c-4.411 0-8 3.589-8 8s3.589 8 8 8h16.010c2.642 0 4.79-2.149 4.79-4.79s-2.149-4.79-4.79-4.79c-0.566 0-1.118 0.098-1.642 0.288-0.349 0.128-0.739-0.002-0.944-0.312s-0.166-0.72 0.090-0.99c0.571-0.602 0.886-1.384 0.886-2.206 0-1.765-1.435-3.2-3.2-3.2-1.027 0-1.966 0.475-2.576 1.302-0.368 0.499-0.584 1.085-0.621 1.691-0.021 0.339-0.254 0.629-0.581 0.72s-0.677-0.032-0.872-0.309c-0.176-0.25-0.366-0.491-0.566-0.715-1.518-1.709-3.699-2.69-5.984-2.69z"></path>
</svg>
