<?xml version="1.0" encoding="utf-8"?>
<!-- Generated by IcoMoon.io -->
<!DOCTYPE svg PUBLIC "-//W3C//DTD SVG 1.1//EN" "http://www.w3.org/Graphics/SVG/1.1/DTD/svg11.dtd">
<svg version="1.1" xmlns="http://www.w3.org/2000/svg" xmlns:xlink="http://www.w3.org/1999/xlink" width="32" height="32" viewBox="0 0 32 32">
<path d="M25.61 12.819c-0.098 0-0.195 0.002-0.293 0.006 0.186-0.515 0.283-1.066 0.283-1.627 0-2.646-2.154-4.8-4.8-4.8-1.517 0-2.962 0.73-3.864 1.952-0.206 0.278-0.379 0.576-0.518 0.888-1.797-1.811-4.253-2.84-6.818-2.84-5.293 0-9.6 4.307-9.6 9.6s4.307 9.6 9.6 9.6h16.010c3.523 0 6.39-2.867 6.39-6.39s-2.867-6.39-6.39-6.39zM25.61 24h-16.010c-4.411 0-8-3.589-8-8s3.589-8 8-8c2.285 0 4.466 0.981 5.984 2.69 0.2 0.226 0.389 0.464 0.562 0.707l0.008 0.011c0.195 0.278 0.544 0.405 0.872 0.312s0.562-0.381 0.582-0.722c0.038-0.614 0.251-1.202 0.618-1.698 0.611-0.827 1.55-1.302 2.578-1.302 1.765 0 3.2 1.435 3.2 3.2 0 0.824-0.312 1.606-0.88 2.203-0.256 0.269-0.293 0.678-0.090 0.989s0.594 0.44 0.942 0.314c0.523-0.19 1.074-0.286 1.637-0.286 2.642 0 4.79 2.149 4.79 4.79s-2.149 4.79-4.79 4.79z"></path>
<path d="M10.246 19.134c-0.211 0.043-0.429 0.066-0.646 0.066-1.765 0-3.2-1.435-3.2-3.2v-0.469l0.234 0.234c0.157 0.157 0.362 0.234 0.566 0.234s0.41-0.078 0.566-0.234c0.312-0.312 0.312-0.819 0-1.131l-1.6-1.6c-0.312-0.312-0.819-0.312-1.131 0l-1.6 1.6c-0.312 0.312-0.312 0.819 0 1.131s0.819 0.312 1.131 0l0.234-0.234v0.469c0 2.646 2.154 4.8 4.8 4.8 0.325 0 0.65-0.034 0.966-0.098 0.434-0.088 0.712-0.512 0.624-0.944s-0.51-0.712-0.944-0.624z"></path>
<path d="M14.634 16.234l-0.234 0.234v-0.469c0-2.646-2.154-4.8-4.8-4.8-0.325 0-0.65 0.034-0.966 0.098-0.434 0.088-0.712 0.512-0.624 0.944s0.512 0.712 0.944 0.624c0.211-0.043 0.429-0.066 0.646-0.066 1.765 0 3.2 1.435 3.2 3.2v0.469l-0.234-0.234c-0.312-0.312-0.819-0.312-1.131 0s-0.312 0.819 0 1.131l1.6 1.6c0.157 0.157 0.362 0.234 0.566 0.234s0.41-0.078 0.566-0.234l1.6-1.6c0.312-0.312 0.312-0.819 0-1.131s-0.819-0.312-1.131 0z"></path>
</svg>
