<?xml version="1.0" encoding="utf-8"?>
<!-- Generated by IcoMoon.io -->
<!DOCTYPE svg PUBLIC "-//W3C//DTD SVG 1.1//EN" "http://www.w3.org/Graphics/SVG/1.1/DTD/svg11.dtd">
<svg version="1.1" xmlns="http://www.w3.org/2000/svg" xmlns:xlink="http://www.w3.org/1999/xlink" width="32" height="32" viewBox="0 0 32 32">
<path d="M8 24c-0.205 0-0.41-0.078-0.566-0.234l-6.4-6.4c-0.312-0.312-0.312-0.819 0-1.131l6.4-6.4c0.312-0.312 0.819-0.312 1.131 0s0.312 0.819 0 1.131l-5.834 5.834 5.834 5.834c0.312 0.312 0.312 0.819 0 1.131-0.157 0.157-0.362 0.234-0.566 0.234z"></path>
<path d="M24 24c-0.205 0-0.41-0.078-0.566-0.234-0.312-0.312-0.312-0.819 0-1.131l5.834-5.834-5.834-5.834c-0.312-0.312-0.312-0.819 0-1.131s0.819-0.312 1.131 0l6.4 6.4c0.312 0.312 0.312 0.819 0 1.131l-6.4 6.4c-0.157 0.157-0.362 0.234-0.566 0.234z"></path>
<path d="M12 24c-0.146 0-0.291-0.040-0.424-0.122-0.374-0.234-0.488-0.728-0.254-1.102l8-12.8c0.234-0.374 0.728-0.488 1.102-0.254s0.488 0.728 0.254 1.102l-8 12.8c-0.152 0.243-0.413 0.376-0.678 0.376z"></path>
</svg>
