<?xml version="1.0" encoding="utf-8"?>
<!-- Generated by IcoMoon.io -->
<!DOCTYPE svg PUBLIC "-//W3C//DTD SVG 1.1//EN" "http://www.w3.org/Graphics/SVG/1.1/DTD/svg11.dtd">
<svg version="1.1" xmlns="http://www.w3.org/2000/svg" xmlns:xlink="http://www.w3.org/1999/xlink" width="32" height="32" viewBox="0 0 32 32">
<path d="M16 24c-2.646 0-4.8-2.154-4.8-4.8s2.154-4.8 4.8-4.8 4.8 2.154 4.8 4.8-2.154 4.8-4.8 4.8zM16 16c-1.765 0-3.2 1.435-3.2 3.2s1.435 3.2 3.2 3.2c1.765 0 3.2-1.435 3.2-3.2s-1.435-3.2-3.2-3.2z"></path>
<path d="M25.446 3.29l-0.283-1.131c-0.302-1.21-1.517-2.158-2.765-2.158h-12.8c-1.248 0-2.461 0.949-2.765 2.158l-0.283 1.131c-1.010 0.283-1.754 1.211-1.754 2.31v1.6c0 1.061 0.691 1.962 1.646 2.278l1.442 20.182c0.093 1.29 1.219 2.339 2.512 2.339h11.2c1.293 0 2.419-1.050 2.512-2.339l1.442-20.182c0.955-0.317 1.646-1.218 1.646-2.278v-1.6c0-1.099-0.742-2.027-1.754-2.31zM9.6 1.6h12.8c0.51 0 1.088 0.451 1.211 0.946l0.163 0.654h-15.55l0.163-0.654c0.123-0.494 0.701-0.946 1.211-0.946zM23.827 11.2h-15.653l-0.114-1.6h15.882l-0.114 1.6zM22.798 25.6h-13.595l-0.914-12.8h15.424l-0.914 12.8zM21.6 30.4h-11.2c-0.464 0-0.883-0.39-0.917-0.853l-0.168-2.347h13.368l-0.168 2.347c-0.034 0.462-0.453 0.853-0.917 0.853zM25.6 7.2c0 0.442-0.358 0.8-0.8 0.8h-17.6c-0.442 0-0.8-0.358-0.8-0.8v-1.6c0-0.44 0.358-0.798 0.798-0.8 0.002 0 0.002 0 0.003 0s0.003 0 0.005 0h17.595c0.442 0 0.8 0.358 0.8 0.8v1.6z"></path>
</svg>
