<?xml version="1.0" encoding="utf-8"?>
<!-- Generated by IcoMoon.io -->
<!DOCTYPE svg PUBLIC "-//W3C//DTD SVG 1.1//EN" "http://www.w3.org/Graphics/SVG/1.1/DTD/svg11.dtd">
<svg version="1.1" xmlns="http://www.w3.org/2000/svg" xmlns:xlink="http://www.w3.org/1999/xlink" width="32" height="32" viewBox="0 0 32 32">
<path d="M12.21 31.523c-0.066 0-0.133-0.008-0.2-0.026-1.437-0.37-2.818-0.939-4.102-1.694-0.373-0.219-0.504-0.694-0.298-1.074 0.254-0.467 0.389-0.995 0.389-1.531 0-1.765-1.435-3.2-3.2-3.2-0.534 0-1.064 0.134-1.531 0.389-0.379 0.206-0.854 0.075-1.074-0.298-0.755-1.286-1.325-2.666-1.694-4.102-0.104-0.406 0.123-0.824 0.52-0.957 1.302-0.438 2.179-1.658 2.179-3.032s-0.875-2.594-2.179-3.032c-0.397-0.134-0.624-0.55-0.52-0.957 0.37-1.437 0.939-2.818 1.694-4.102 0.219-0.373 0.694-0.504 1.074-0.298 0.466 0.254 0.995 0.389 1.531 0.389 1.765 0 3.2-1.435 3.2-3.2 0-0.534-0.134-1.064-0.389-1.531-0.206-0.379-0.075-0.854 0.298-1.074 1.286-0.755 2.666-1.325 4.102-1.694 0.406-0.104 0.824 0.123 0.957 0.52 0.438 1.302 1.658 2.179 3.032 2.179s2.594-0.875 3.032-2.179c0.134-0.397 0.552-0.624 0.957-0.52 1.437 0.37 2.818 0.939 4.102 1.694 0.373 0.219 0.504 0.694 0.298 1.074-0.254 0.467-0.389 0.995-0.389 1.531 0 1.765 1.435 3.2 3.2 3.2 0.534 0 1.064-0.134 1.531-0.389 0.379-0.206 0.854-0.075 1.074 0.298 0.755 1.286 1.325 2.666 1.694 4.102 0.104 0.406-0.123 0.824-0.52 0.957-1.302 0.438-2.179 1.658-2.179 3.032s0.875 2.594 2.179 3.032c0.397 0.134 0.624 0.55 0.52 0.957-0.37 1.437-0.939 2.818-1.694 4.102-0.219 0.373-0.694 0.504-1.074 0.298-0.467-0.254-0.995-0.389-1.531-0.389-1.765 0-3.2 1.435-3.2 3.2 0 0.534 0.134 1.064 0.389 1.531 0.206 0.379 0.075 0.854-0.298 1.074-1.286 0.755-2.666 1.325-4.102 1.694-0.406 0.104-0.824-0.123-0.957-0.52-0.438-1.302-1.658-2.179-3.032-2.179s-2.594 0.875-3.032 2.179c-0.112 0.331-0.422 0.546-0.758 0.546zM16 27.2c1.803 0 3.427 1.005 4.248 2.563 0.832-0.258 1.642-0.59 2.416-0.995-0.173-0.502-0.262-1.034-0.262-1.568 0-2.646 2.154-4.8 4.8-4.8 0.534 0 1.066 0.090 1.568 0.262 0.405-0.774 0.739-1.582 0.995-2.416-1.558-0.819-2.563-2.443-2.563-4.248s1.005-3.427 2.563-4.248c-0.258-0.832-0.59-1.642-0.995-2.416-0.502 0.173-1.034 0.262-1.568 0.262-2.646 0-4.8-2.154-4.8-4.8 0-0.534 0.090-1.066 0.262-1.568-0.774-0.405-1.582-0.739-2.416-0.995-0.819 1.558-2.443 2.563-4.248 2.563s-3.427-1.005-4.248-2.563c-0.832 0.256-1.642 0.59-2.416 0.995 0.173 0.502 0.262 1.034 0.262 1.568 0 2.646-2.154 4.8-4.8 4.8-0.534 0-1.066-0.090-1.568-0.262-0.405 0.774-0.739 1.582-0.995 2.416 1.558 0.819 2.563 2.443 2.563 4.248s-1.005 3.427-2.563 4.248c0.256 0.832 0.59 1.642 0.995 2.416 0.502-0.173 1.034-0.262 1.568-0.262 2.646 0 4.8 2.154 4.8 4.8 0 0.534-0.090 1.066-0.262 1.568 0.774 0.405 1.582 0.739 2.416 0.995 0.819-1.558 2.443-2.563 4.248-2.563z"></path>
<path d="M16 20.8c-2.646 0-4.8-2.154-4.8-4.8s2.154-4.8 4.8-4.8 4.8 2.154 4.8 4.8-2.154 4.8-4.8 4.8zM16 12.8c-1.765 0-3.2 1.435-3.2 3.2s1.435 3.2 3.2 3.2c1.765 0 3.2-1.435 3.2-3.2s-1.435-3.2-3.2-3.2z"></path>
</svg>
