<?xml version="1.0" encoding="utf-8"?>
<!-- Generated by IcoMoon.io -->
<!DOCTYPE svg PUBLIC "-//W3C//DTD SVG 1.1//EN" "http://www.w3.org/Graphics/SVG/1.1/DTD/svg11.dtd">
<svg version="1.1" xmlns="http://www.w3.org/2000/svg" xmlns:xlink="http://www.w3.org/1999/xlink" width="32" height="32" viewBox="0 0 32 32">
<path d="M32 8v-2.4c0-0.442-0.358-0.8-0.8-0.8h-5.6c0 0 0 0 0 0h-8c0 0 0 0 0 0h-8c0 0 0 0 0 0h-8.8c-0.442 0-0.8 0.358-0.8 0.8v9.6c0 0.442 0.358 0.8 0.8 0.8h2.4v9.6h-0.8c-0.442 0-0.8 0.358-0.8 0.8s0.358 0.8 0.8 0.8h6.4c0.442 0 0.8-0.358 0.8-0.8s-0.358-0.8-0.8-0.8h-0.8v-4.8h16v4.8h-0.8c-0.442 0-0.8 0.358-0.8 0.8s0.358 0.8 0.8 0.8h6.4c0.442 0 0.8-0.358 0.8-0.8s-0.358-0.8-0.8-0.8h-0.8v-9.6h2.4c0.442 0 0.8-0.358 0.8-0.8v-7.2c0 0 0 0 0 0zM30.4 7.669l-6.731 6.731h-5.738l8-8h4.469v1.269zM9.931 14.4l8-8h5.738l-8 8h-5.738zM1.931 14.4l8-8h5.738l-8 8h-5.738zM7.669 6.4l-6.069 6.069v-6.069h6.069zM4.8 25.6v-9.6h1.6v9.6h-1.6zM8 19.2v-3.2h16v3.2h-16zM27.2 25.6h-1.6v-9.6h1.6v9.6zM25.931 14.4l4.469-4.469v4.469h-4.469z"></path>
</svg>
