<?xml version="1.0" encoding="utf-8"?>
<!-- Generated by IcoMoon.io -->
<!DOCTYPE svg PUBLIC "-//W3C//DTD SVG 1.1//EN" "http://www.w3.org/Graphics/SVG/1.1/DTD/svg11.dtd">
<svg version="1.1" xmlns="http://www.w3.org/2000/svg" xmlns:xlink="http://www.w3.org/1999/xlink" width="32" height="32" viewBox="0 0 32 32">
<path d="M31.2 24h-4.8c-0.442 0-0.8-0.358-0.8-0.8s0.358-0.8 0.8-0.8h4.8c0.442 0 0.8 0.358 0.8 0.8s-0.358 0.8-0.8 0.8z"></path>
<path d="M20 24h-11.2c-0.442 0-0.8-0.358-0.8-0.8v-11.2c0-0.442 0.358-0.8 0.8-0.8s0.8 0.358 0.8 0.8v10.4h10.4c0.442 0 0.8 0.358 0.8 0.8s-0.358 0.8-0.8 0.8z"></path>
<path d="M8.8 6.4c-0.442 0-0.8-0.358-0.8-0.8v-4.8c0-0.442 0.358-0.8 0.8-0.8s0.8 0.358 0.8 0.8v4.8c0 0.442-0.358 0.8-0.8 0.8z"></path>
<path d="M23.2 32c-0.442 0-0.8-0.358-0.8-0.8v-21.6h-21.6c-0.442 0-0.8-0.358-0.8-0.8s0.358-0.8 0.8-0.8h22.4c0.442 0 0.8 0.358 0.8 0.8v22.4c0 0.442-0.358 0.8-0.8 0.8z"></path>
</svg>
