<?xml version="1.0" encoding="utf-8"?>
<!-- Generated by IcoMoon.io -->
<!DOCTYPE svg PUBLIC "-//W3C//DTD SVG 1.1//EN" "http://www.w3.org/Graphics/SVG/1.1/DTD/svg11.dtd">
<svg version="1.1" xmlns="http://www.w3.org/2000/svg" xmlns:xlink="http://www.w3.org/1999/xlink" width="32" height="32" viewBox="0 0 32 32">
<path d="M22.931 22.602l-6.528-5.802 6.528-5.802c0.33-0.293 0.36-0.798 0.067-1.13s-0.798-0.36-1.13-0.067l-6.669 5.928-6.669-5.928c-0.33-0.293-0.835-0.264-1.13 0.067s-0.264 0.835 0.067 1.13l6.528 5.802-6.528 5.802c-0.33 0.293-0.36 0.798-0.067 1.13 0.158 0.178 0.378 0.269 0.598 0.269 0.189 0 0.379-0.067 0.531-0.202l6.669-5.928 6.669 5.928c0.152 0.136 0.342 0.202 0.531 0.202 0.221 0 0.44-0.091 0.598-0.269 0.293-0.33 0.264-0.835-0.067-1.13z"></path>
<path d="M15.2 32c-4.061 0-7.877-1.581-10.749-4.451s-4.451-6.688-4.451-10.747c0-4.061 1.581-7.877 4.451-10.749s6.688-4.453 10.749-4.453c4.061 0 7.877 1.581 10.749 4.453s4.451 6.688 4.451 10.749-1.581 7.877-4.451 10.747c-2.87 2.87-6.688 4.451-10.749 4.451zM15.2 3.2c-7.499 0-13.6 6.101-13.6 13.6s6.101 13.6 13.6 13.6 13.6-6.101 13.6-13.6-6.101-13.6-13.6-13.6z"></path>
</svg>
