<?xml version="1.0" encoding="utf-8"?>
<!-- Generated by IcoMoon.io -->
<!DOCTYPE svg PUBLIC "-//W3C//DTD SVG 1.1//EN" "http://www.w3.org/Graphics/SVG/1.1/DTD/svg11.dtd">
<svg version="1.1" xmlns="http://www.w3.org/2000/svg" xmlns:xlink="http://www.w3.org/1999/xlink" width="32" height="32" viewBox="0 0 32 32">
<path d="M28.907 2.574c-0.795-0.522-1.909-0.984-3.31-1.373-2.787-0.774-6.48-1.2-10.397-1.2s-7.61 0.427-10.397 1.2c-1.403 0.389-2.517 0.851-3.31 1.373-0.99 0.651-1.493 1.398-1.493 2.226v19.2c0 0.827 0.502 1.576 1.493 2.226 0.795 0.522 1.909 0.984 3.31 1.373 2.787 0.774 6.48 1.2 10.397 1.2s7.61-0.427 10.397-1.202c1.403-0.389 2.517-0.851 3.31-1.373 0.99-0.65 1.493-1.398 1.493-2.226v-19.2c0-0.827-0.502-1.576-1.493-2.226zM5.232 2.742c2.653-0.736 6.192-1.142 9.968-1.142s7.317 0.406 9.968 1.142c2.872 0.798 3.632 1.694 3.632 2.058s-0.758 1.259-3.632 2.058c-2.653 0.736-6.192 1.142-9.968 1.142s-7.317-0.406-9.968-1.142c-2.872-0.798-3.632-1.694-3.632-2.058s0.758-1.259 3.632-2.058zM25.168 26.058c-2.653 0.736-6.192 1.142-9.968 1.142s-7.317-0.406-9.968-1.142c-2.872-0.798-3.632-1.694-3.632-2.058v-4.106c0.787 0.494 1.862 0.933 3.203 1.306 2.787 0.774 6.48 1.2 10.397 1.2s7.61-0.427 10.397-1.202c1.341-0.373 2.418-0.811 3.203-1.306v4.106c0 0.363-0.758 1.259-3.632 2.058zM25.168 19.658c-2.653 0.736-6.192 1.142-9.968 1.142s-7.317-0.406-9.968-1.142c-2.872-0.798-3.632-1.694-3.632-2.058v-4.106c0.787 0.494 1.862 0.933 3.203 1.306 2.787 0.774 6.48 1.2 10.397 1.2s7.61-0.427 10.397-1.2c1.341-0.373 2.418-0.811 3.203-1.306v4.106c0 0.363-0.758 1.259-3.632 2.058zM25.168 13.258c-2.653 0.736-6.192 1.142-9.968 1.142s-7.317-0.406-9.968-1.142c-2.872-0.798-3.632-1.694-3.632-2.058v-4.106c0.787 0.494 1.862 0.933 3.203 1.306 2.787 0.774 6.48 1.2 10.397 1.2s7.61-0.427 10.397-1.2c1.341-0.373 2.418-0.811 3.203-1.306v4.106c0 0.363-0.758 1.259-3.632 2.058z"></path>
</svg>
