<?xml version="1.0" encoding="utf-8"?>
<!-- Generated by IcoMoon.io -->
<!DOCTYPE svg PUBLIC "-//W3C//DTD SVG 1.1//EN" "http://www.w3.org/Graphics/SVG/1.1/DTD/svg11.dtd">
<svg version="1.1" xmlns="http://www.w3.org/2000/svg" xmlns:xlink="http://www.w3.org/1999/xlink" width="32" height="32" viewBox="0 0 32 32">
<path d="M30.24 11.52l-4.8-6.4c-0.123-0.165-0.306-0.275-0.509-0.309l-9.6-1.6c-0.086-0.014-0.176-0.014-0.262 0l-9.6 1.6c-0.203 0.034-0.386 0.144-0.509 0.309l-4.8 6.4c-0.229 0.306-0.21 0.731 0.045 1.014l14.4 16c0.152 0.168 0.368 0.266 0.595 0.266s0.443-0.096 0.595-0.266l14.4-16c0.256-0.285 0.275-0.709 0.045-1.014zM20.458 11.2l-5.258 14.459-5.258-14.459h10.515zM10.731 9.6l4.469-4.469 4.469 4.469h-8.938zM17.531 5.2l5.917 0.986-1.973 2.958-3.946-3.944zM8.925 9.144l-1.973-2.958 5.917-0.986-3.944 3.944zM7.472 9.85l-4.776 0.955 2.866-3.821 1.91 2.866zM8.283 11.32l4.758 13.086-10.707-11.898 5.949-1.19zM22.117 11.32l5.949 1.19-10.707 11.898 4.758-13.086zM22.928 9.85l1.91-2.866 2.866 3.821-4.776-0.955z"></path>
</svg>
