<?xml version="1.0" encoding="utf-8"?>
<!-- Generated by IcoMoon.io -->
<!DOCTYPE svg PUBLIC "-//W3C//DTD SVG 1.1//EN" "http://www.w3.org/Graphics/SVG/1.1/DTD/svg11.dtd">
<svg version="1.1" xmlns="http://www.w3.org/2000/svg" xmlns:xlink="http://www.w3.org/1999/xlink" width="32" height="32" viewBox="0 0 32 32">
<path d="M12.8 0.8c0-0.442-0.358-0.8-0.8-0.8s-0.8 0.358-0.8 0.8c0 2.090 0.403 3.835 0.728 5.238 0.317 1.366 0.565 2.446 0.208 2.898-0.298 0.374-1.147 0.592-2.53 0.65-0.003-0.259-0.006-0.522-0.006-0.784v-6.4c0-0.442-0.358-0.8-0.8-0.8s-0.8 0.358-0.8 0.8v6.4c0 0.264-0.002 0.525-0.006 0.784-1.378-0.059-2.226-0.278-2.523-0.653-0.36-0.453-0.11-1.534 0.205-2.902 0.323-1.4 0.725-3.144 0.725-5.227 0-0.442-0.358-0.8-0.8-0.8s-0.8 0.358-0.8 0.8c0 1.902-0.379 3.547-0.683 4.869-0.413 1.789-0.738 3.203 0.102 4.259 0.624 0.784 1.762 1.173 3.733 1.256-0.179 4.464-0.826 8.304-1.362 11.483-0.714 4.23-1.184 7.024 0.019 8.446 0.498 0.589 1.235 0.888 2.192 0.888s1.694-0.299 2.192-0.888c1.203-1.424 0.733-4.221 0.019-8.454-0.534-3.176-1.181-7.014-1.362-11.475 1.976-0.080 3.114-0.467 3.739-1.253 0.838-1.054 0.512-2.466 0.099-4.254-0.306-1.323-0.686-2.971-0.686-4.877zM9.77 30.078c-0.117 0.138-0.344 0.322-0.97 0.322s-0.853-0.182-0.97-0.32c-0.723-0.856-0.232-3.771 0.338-7.147 0.206-1.219 0.427-2.536 0.634-3.947 0.206 1.41 0.427 2.722 0.632 3.941 0.57 3.379 1.061 6.298 0.338 7.155z"></path>
<path d="M25.411 22.659c-0.629-3.73-1.41-8.37-1.411-13.859v-8c0-0.363-0.245-0.68-0.595-0.773s-0.72 0.061-0.899 0.376c-3.23 5.654-4.826 14.29-4.893 14.654-0.043 0.234 0.021 0.474 0.173 0.656s0.378 0.288 0.614 0.288h3.576c-0.28 2.47-0.654 4.696-0.987 6.666-0.714 4.23-1.184 7.024 0.019 8.446 0.498 0.589 1.235 0.888 2.192 0.888s1.694-0.299 2.192-0.888c1.203-1.424 0.733-4.221 0.019-8.454zM19.378 14.4c0.397-1.874 1.411-6.219 3.022-10.107v4.507c0 1.978-0.101 3.845-0.261 5.6h-2.763zM24.17 30.078c-0.117 0.138-0.344 0.322-0.97 0.322s-0.853-0.182-0.97-0.32c-0.723-0.856-0.232-3.771 0.338-7.147 0.206-1.219 0.427-2.536 0.634-3.947 0.206 1.41 0.427 2.723 0.632 3.941 0.57 3.379 1.061 6.298 0.338 7.155z"></path>
</svg>
