<?xml version="1.0" encoding="utf-8"?>
<!-- Generated by IcoMoon.io -->
<!DOCTYPE svg PUBLIC "-//W3C//DTD SVG 1.1//EN" "http://www.w3.org/Graphics/SVG/1.1/DTD/svg11.dtd">
<svg version="1.1" xmlns="http://www.w3.org/2000/svg" xmlns:xlink="http://www.w3.org/1999/xlink" width="32" height="32" viewBox="0 0 32 32">
<path d="M24.8 1.6h-13.6c-3.53 0-6.4 2.87-6.4 6.4s2.87 6.4 6.4 6.4h1.6v7.2c0 0.442 0.358 0.8 0.8 0.8s0.8-0.358 0.8-0.8v-18.4h4.8v18.4c0 0.442 0.358 0.8 0.8 0.8s0.8-0.358 0.8-0.8v-18.4h4c0.442 0 0.8-0.358 0.8-0.8s-0.358-0.8-0.8-0.8zM12.8 12.8h-1.6c-2.646 0-4.8-2.154-4.8-4.8s2.154-4.8 4.8-4.8h1.6v9.6z"></path>
<path d="M23.2 27.2h-14.869l1.834-1.834c0.312-0.312 0.312-0.819 0-1.131s-0.819-0.312-1.131 0l-3.2 3.2c-0.312 0.312-0.312 0.819 0 1.131l3.2 3.2c0.157 0.157 0.362 0.234 0.566 0.234s0.41-0.078 0.566-0.234c0.312-0.312 0.312-0.819 0-1.131l-1.834-1.834h14.869c0.442 0 0.8-0.358 0.8-0.8s-0.358-0.8-0.8-0.8z"></path>
</svg>
