<?xml version="1.0" encoding="utf-8"?>
<!-- Generated by IcoMoon.io -->
<!DOCTYPE svg PUBLIC "-//W3C//DTD SVG 1.1//EN" "http://www.w3.org/Graphics/SVG/1.1/DTD/svg11.dtd">
<svg version="1.1" xmlns="http://www.w3.org/2000/svg" xmlns:xlink="http://www.w3.org/1999/xlink" width="32" height="32" viewBox="0 0 32 32">
<path d="M16 32c-2.582 0-4.989-1.048-6.778-2.952-1.813-1.93-2.811-4.574-2.811-7.448 0-4.709 2.093-8.078 4.309-11.645 1.712-2.757 3.483-5.606 4.507-9.365 0.094-0.349 0.411-0.589 0.771-0.589s0.677 0.242 0.771 0.589c1.026 3.76 2.798 6.611 4.514 9.368 2.219 3.566 4.315 6.936 4.315 11.643 0 2.878-0.992 5.523-2.794 7.446-1.784 1.904-4.202 2.954-6.806 2.954zM16 3.381c-1.078 2.842-2.518 5.16-3.92 7.418-2.182 3.514-4.069 6.549-4.069 10.802 0 5.018 3.435 8.8 7.989 8.8 4.56 0 8-3.782 8-8.8 0-4.251-1.888-7.285-4.074-10.798-1.405-2.258-2.848-4.578-3.926-7.421z"></path>
</svg>
