<?xml version="1.0" encoding="utf-8"?>
<!-- Generated by IcoMoon.io -->
<!DOCTYPE svg PUBLIC "-//W3C//DTD SVG 1.1//EN" "http://www.w3.org/Graphics/SVG/1.1/DTD/svg11.dtd">
<svg version="1.1" xmlns="http://www.w3.org/2000/svg" xmlns:xlink="http://www.w3.org/1999/xlink" width="32" height="32" viewBox="0 0 32 32">
<path d="M27.314 4.686c-3.022-3.022-7.040-4.686-11.314-4.686s-8.291 1.664-11.314 4.686c-3.022 3.022-4.686 7.040-4.686 11.314s1.664 8.291 4.686 11.314c3.022 3.022 7.040 4.686 11.314 4.686s8.291-1.664 11.314-4.686c3.022-3.022 4.686-7.040 4.686-11.314s-1.664-8.291-4.686-11.314zM29.435 10.818c-0.312-0.562-1.096-0.829-2.12-1.178-1.099-0.374-1.488-1.504-1.938-2.813-0.39-1.136-0.794-2.309-1.752-3.038 2.622 1.643 4.678 4.107 5.81 7.029zM24.946 16.306c0.122 1.083 0.246 2.205-1.099 3.715-0.363 0.408-0.576 0.976-0.802 1.578-0.522 1.394-1.014 2.71-3.114 2.73-0.059-0.070-0.226-0.336-0.374-1.173-0.136-0.771-0.214-1.77-0.299-2.824-0.128-1.619-0.274-3.456-0.674-4.979-0.512-1.947-1.371-3.098-2.626-3.517-0.547-0.182-1.107-0.272-1.709-0.272-0.445 0-0.848 0.048-1.203 0.090-0.277 0.032-0.539 0.064-0.76 0.064 0 0 0 0 0 0-0.374 0-0.798 0-1.322-1.197-0.75-1.72-0.197-4.477 2.006-5.931 1.208-0.797 2.042-1.138 2.787-1.138 0.595 0 1.237 0.206 2.147 0.693 1.075 0.573 1.918 0.646 2.533 0.646 0.243 0 0.464-0.013 0.677-0.026 0.179-0.011 0.347-0.021 0.504-0.021 0.352 0 0.637 0.046 0.971 0.274 0.616 0.421 0.936 1.35 1.274 2.333 0.512 1.491 1.093 3.181 2.936 3.808 0.248 0.085 0.674 0.229 0.976 0.355-0.261 0.269-0.696 0.658-1.123 1.038-0.275 0.246-0.587 0.525-0.933 0.84-0.998 0.91-0.88 1.976-0.774 2.915zM1.602 15.877c0.173 0.030 0.358 0.067 0.55 0.107 0.899 0.192 1.32 0.365 1.504 0.462-0.085 0.165-0.256 0.408-0.37 0.568-0.395 0.562-0.888 1.261-0.701 2.030 0.126 0.52 0.019 1.157-0.165 1.746-0.531-1.501-0.821-3.114-0.821-4.794 0-0.042 0.002-0.082 0.002-0.123zM16 30.4c-5.48 0-10.256-3.078-12.688-7.595 0.419-0.798 1.197-2.565 0.834-4.11 0.026-0.155 0.29-0.53 0.448-0.755 0.434-0.616 0.973-1.381 0.573-2.192-0.28-0.57-1.030-0.954-2.506-1.286-0.342-0.077-0.675-0.139-0.958-0.189 0.858-7.128 6.941-12.67 14.296-12.67 2.525 0 4.899 0.654 6.963 1.8-0.51-0.222-0.973-0.258-1.344-0.258-0.203 0-0.405 0.011-0.6 0.024-0.19 0.011-0.387 0.022-0.582 0.022-0.454 0-1.021-0.054-1.779-0.459-1.158-0.616-2.026-0.88-2.899-0.88-1.082 0-2.179 0.419-3.669 1.402-1.288 0.85-2.258 2.149-2.731 3.661-0.462 1.474-0.413 2.982 0.139 4.246 0.651 1.491 1.51 2.157 2.787 2.157 0 0 0 0 0 0 0.315 0 0.622-0.037 0.947-0.075 0.328-0.038 0.666-0.078 1.016-0.078 0.434 0 0.816 0.061 1.202 0.189 0.702 0.235 1.221 1.022 1.586 2.406s0.502 3.146 0.626 4.698c0.102 1.296 0.198 2.518 0.411 3.442 0.13 0.56 0.296 0.986 0.512 1.301 0.322 0.47 0.782 0.73 1.298 0.73 1.414 0 2.544-0.456 3.358-1.355 0.677-0.747 1.022-1.67 1.301-2.413 0.163-0.437 0.333-0.89 0.498-1.075 1.819-2.043 1.632-3.726 1.494-4.957-0.101-0.902-0.102-1.222 0.262-1.555 0.339-0.309 0.648-0.586 0.92-0.829 0.581-0.518 1-0.893 1.294-1.213 0.202-0.221 0.675-0.738 0.544-1.384-0.002-0.006-0.003-0.011-0.003-0.018 0.549 1.522 0.848 3.162 0.848 4.87 0 7.941-6.459 14.4-14.4 14.4z"></path>
</svg>
