<?xml version="1.0" encoding="utf-8"?>
<!-- Generated by IcoMoon.io -->
<!DOCTYPE svg PUBLIC "-//W3C//DTD SVG 1.1//EN" "http://www.w3.org/Graphics/SVG/1.1/DTD/svg11.dtd">
<svg version="1.1" xmlns="http://www.w3.org/2000/svg" xmlns:xlink="http://www.w3.org/1999/xlink" width="32" height="32" viewBox="0 0 32 32">
<path d="M20.566 18.634c-0.312-0.312-0.819-0.312-1.131 0l-3.434 3.434v-19.669c0-0.442-0.358-0.8-0.8-0.8s-0.8 0.358-0.8 0.8v19.669l-3.434-3.434c-0.312-0.312-0.819-0.312-1.131 0s-0.312 0.819 0 1.131l4.8 4.8c0.157 0.157 0.362 0.234 0.566 0.234s0.41-0.078 0.566-0.234l4.8-4.8c0.312-0.312 0.312-0.819 0-1.131z"></path>
<path d="M24.8 32h-19.2c-1.323 0-2.4-1.077-2.4-2.4v-16c0-1.323 1.077-2.4 2.4-2.4h6.4c0.442 0 0.8 0.358 0.8 0.8s-0.358 0.8-0.8 0.8h-6.4c-0.442 0-0.8 0.358-0.8 0.8v16c0 0.442 0.358 0.8 0.8 0.8h19.2c0.442 0 0.8-0.358 0.8-0.8v-16c0-0.442-0.358-0.8-0.8-0.8h-6.4c-0.442 0-0.8-0.358-0.8-0.8s0.358-0.8 0.8-0.8h6.4c1.323 0 2.4 1.077 2.4 2.4v16c0 1.323-1.077 2.4-2.4 2.4z"></path>
</svg>
