<?xml version="1.0" encoding="utf-8"?>
<!-- Generated by IcoMoon.io -->
<!DOCTYPE svg PUBLIC "-//W3C//DTD SVG 1.1//EN" "http://www.w3.org/Graphics/SVG/1.1/DTD/svg11.dtd">
<svg version="1.1" xmlns="http://www.w3.org/2000/svg" xmlns:xlink="http://www.w3.org/1999/xlink" width="32" height="32" viewBox="0 0 32 32">
<path d="M28 3.2h-14.4c-1.323 0-2.4 1.077-2.4 2.4v4.8c0 0.442 0.358 0.8 0.8 0.8s0.8-0.358 0.8-0.8v-4.8c0-0.442 0.358-0.8 0.8-0.8h12.102l-6.147 2.635c-1.096 0.47-1.955 1.773-1.955 2.965v15.2h-4c-0.442 0-0.8-0.358-0.8-0.8v-4.8c0-0.442-0.358-0.8-0.8-0.8s-0.8 0.358-0.8 0.8v4.8c0 1.323 1.077 2.4 2.4 2.4h4v2.4c0 0.693 0.288 1.282 0.792 1.613 0.278 0.182 0.602 0.275 0.942 0.275 0.277 0 0.566-0.061 0.851-0.182l8.259-3.539c1.096-0.47 1.955-1.773 1.955-2.966v-19.2c0-1.323-1.077-2.4-2.4-2.4zM28.8 24.8c0 0.562-0.47 1.274-0.986 1.494l-8.259 3.539c-0.154 0.066-0.254 0.061-0.283 0.043s-0.072-0.11-0.072-0.277v-19.2c0-0.562 0.47-1.274 0.986-1.494l8.533-3.658c0.053 0.106 0.082 0.226 0.082 0.352v19.2z"></path>
<path d="M13.366 14.634l-4.8-4.8c-0.312-0.312-0.819-0.312-1.131 0s-0.312 0.819 0 1.131l3.434 3.434h-10.069c-0.442 0-0.8 0.358-0.8 0.8s0.358 0.8 0.8 0.8h10.069l-3.434 3.434c-0.312 0.312-0.312 0.819 0 1.131 0.157 0.157 0.362 0.234 0.566 0.234s0.41-0.078 0.566-0.234l4.8-4.8c0.312-0.312 0.312-0.819 0-1.131z"></path>
</svg>
