<?xml version="1.0" encoding="utf-8"?>
<!-- Generated by IcoMoon.io -->
<!DOCTYPE svg PUBLIC "-//W3C//DTD SVG 1.1//EN" "http://www.w3.org/Graphics/SVG/1.1/DTD/svg11.dtd">
<svg version="1.1" xmlns="http://www.w3.org/2000/svg" xmlns:xlink="http://www.w3.org/1999/xlink" width="32" height="32" viewBox="0 0 32 32">
<path d="M28 9.6h-25.6c-1.323 0-2.4 1.077-2.4 2.4v14.4c0 1.323 1.077 2.4 2.4 2.4h25.6c1.323 0 2.4-1.077 2.4-2.4v-14.4c0-1.323-1.077-2.4-2.4-2.4zM28 11.2c0.048 0 0.093 0.005 0.139 0.013l-12.051 8.034c-0.464 0.309-1.31 0.309-1.774 0l-12.051-8.034c0.045-0.008 0.091-0.013 0.139-0.013h25.6zM28 27.2h-25.6c-0.442 0-0.8-0.358-0.8-0.8v-13.706l11.826 7.883c0.498 0.331 1.136 0.498 1.774 0.498s1.277-0.166 1.774-0.498l11.826-7.883v13.706c0 0.442-0.358 0.8-0.8 0.8z"></path>
</svg>
