<?xml version="1.0" encoding="utf-8"?>
<!-- Generated by IcoMoon.io -->
<!DOCTYPE svg PUBLIC "-//W3C//DTD SVG 1.1//EN" "http://www.w3.org/Graphics/SVG/1.1/DTD/svg11.dtd">
<svg version="1.1" xmlns="http://www.w3.org/2000/svg" xmlns:xlink="http://www.w3.org/1999/xlink" width="26" height="32" viewBox="0 0 26 32">
<path d="M18.542 29.134c-7.175 0-13.012-5.838-13.012-13.012s5.838-13.012 13.012-13.012c1.79 0 3.541 0.37 5.206 1.1 0.287 0.126 0.416 0.459 0.292 0.746-0.127 0.285-0.458 0.416-0.746 0.291-1.523-0.666-3.121-1.005-4.752-1.005-6.551 0-11.881 5.329-11.881 11.881s5.329 11.881 11.881 11.881c1.634 0 3.232-0.338 4.751-1.006 0.287-0.126 0.619 0.007 0.746 0.292 0.124 0.285-0.005 0.619-0.292 0.745-1.662 0.731-3.414 1.101-5.205 1.101z"></path>
<path d="M16.279 14.584h-14.71c-0.312 0-0.566-0.253-0.566-0.566s0.253-0.566 0.566-0.566h14.71c0.312 0 0.566 0.253 0.566 0.566s-0.253 0.566-0.566 0.566z"></path>
<path d="M16.279 20.241h-14.71c-0.312 0-0.566-0.255-0.566-0.566s0.253-0.566 0.566-0.566h14.71c0.312 0 0.566 0.255 0.566 0.566s-0.253 0.566-0.566 0.566z"></path>
</svg>
