<?xml version="1.0" encoding="utf-8"?>
<!-- Generated by IcoMoon.io -->
<!DOCTYPE svg PUBLIC "-//W3C//DTD SVG 1.1//EN" "http://www.w3.org/Graphics/SVG/1.1/DTD/svg11.dtd">
<svg version="1.1" xmlns="http://www.w3.org/2000/svg" xmlns:xlink="http://www.w3.org/1999/xlink" width="32" height="32" viewBox="0 0 32 32">
<path d="M21.13 30.476h-10.501c-0.323 0-0.583-0.261-0.583-0.583s0.261-0.583 0.583-0.583h10.501c0.323 0 0.583 0.261 0.583 0.583s-0.261 0.583-0.583 0.583z"></path>
<path d="M15.879 29.695c-0.323 0-0.583-0.12-0.583-0.268v-6.426c0-0.148 0.261-0.268 0.583-0.268s0.583 0.12 0.583 0.268v6.426c0 0.148-0.261 0.268-0.583 0.268z"></path>
<path d="M15.99 18.679c-0.189-0.021-0.364-0.134-0.457-0.316l-8.194-16.165c-0.146-0.287-0.031-0.639 0.257-0.784 0.286-0.146 0.639-0.031 0.784 0.257l8.194 16.165c0.146 0.287 0.031 0.639-0.257 0.784-0.104 0.053-0.218 0.072-0.327 0.060z"></path>
<path d="M26.381 11.649c-0.81 0-1.593-0.237-2.266-0.686-0.268-0.179-0.34-0.541-0.161-0.809s0.54-0.341 0.81-0.161c0.48 0.321 1.038 0.49 1.617 0.49 0.912 0 1.754-0.414 2.311-1.136 0.558-0.723 0.741-1.662 0.501-2.577-0.257-0.987-1.031-1.759-2.017-2.017-0.913-0.239-1.854-0.056-2.576 0.502s-1.136 1.399-1.136 2.31c0 0.322-0.261 0.583-0.583 0.583s-0.583-0.261-0.583-0.583c0-1.275 0.579-2.454 1.59-3.234s2.32-1.038 3.586-0.707c1.394 0.364 2.486 1.456 2.851 2.85 0.331 1.267 0.074 2.573-0.707 3.585-0.781 1.009-1.959 1.589-3.235 1.589z"></path>
<path d="M15.88 23.9c-0.188 0-0.374-0.091-0.486-0.26l-10.501-15.752c-0.119-0.179-0.131-0.41-0.029-0.599s0.299-0.308 0.515-0.308h21.003c0.213 0 0.409 0.116 0.512 0.303s0.095 0.414-0.019 0.594l-8.168 12.835c-0.173 0.272-0.532 0.352-0.806 0.179-0.272-0.173-0.352-0.534-0.179-0.805l7.597-11.938h-18.85l9.897 14.845c0.179 0.268 0.107 0.63-0.162 0.809-0.099 0.065-0.212 0.097-0.323 0.097z"></path>
<path d="M1.658 2.764c0.059-0.181 0.205-0.329 0.403-0.382l5.574-1.079c0.311-0.084 0.631 0.1 0.715 0.412 0.085 0.31-0.1 0.631-0.412 0.715l-5.574 1.079c-0.311 0.084-0.631-0.1-0.715-0.412-0.030-0.113-0.025-0.228 0.009-0.332z"></path>
</svg>
