<?xml version="1.0" encoding="UTF-8" standalone="no"?>
<!-- Generated by IcoMoon.io -->

<svg
   xmlns:dc="http://purl.org/dc/elements/1.1/"
   xmlns:cc="http://creativecommons.org/ns#"
   xmlns:rdf="http://www.w3.org/1999/02/22-rdf-syntax-ns#"
   xmlns:svg="http://www.w3.org/2000/svg"
   xmlns="http://www.w3.org/2000/svg"
   xmlns:sodipodi="http://sodipodi.sourceforge.net/DTD/sodipodi-0.dtd"
   xmlns:inkscape="http://www.inkscape.org/namespaces/inkscape"
   version="1.1"
   width="20"
   height="20"
   viewBox="0 0 20 20"
   id="svg2"
   inkscape:version="0.48.4 r9939"
   sodipodi:docname="action2.svg">
  <metadata
     id="metadata10">
    <rdf:RDF>
      <cc:Work
         rdf:about="">
        <dc:format>image/svg+xml</dc:format>
        <dc:type
           rdf:resource="http://purl.org/dc/dcmitype/StillImage" />
        <dc:title></dc:title>
      </cc:Work>
    </rdf:RDF>
  </metadata>
  <defs
     id="defs8" />
  <sodipodi:namedview
     pagecolor="#ffffff"
     bordercolor="#666666"
     borderopacity="1"
     objecttolerance="10"
     gridtolerance="10"
     guidetolerance="10"
     inkscape:pageopacity="0"
     inkscape:pageshadow="2"
     inkscape:window-width="1280"
     inkscape:window-height="748"
     id="namedview6"
     showgrid="false"
     inkscape:zoom="5.9"
     inkscape:cx="22.133288"
     inkscape:cy="6.2533921"
     inkscape:window-x="0"
     inkscape:window-y="0"
     inkscape:window-maximized="1"
     inkscape:current-layer="svg2" />
  <path
     id="path3865-2"
     d="M 12.64105,19.068091 H 5.735212 c -0.2121626,0 -0.3836576,-0.171879 -0.3836576,-0.383658 0,-0.211779 0.171495,-0.383657 0.3836576,-0.383657 h 6.905838 c 0.212162,0 0.383657,0.171878 0.383657,0.383657 0,0.211779 -0.171495,0.383658 -0.383657,0.383658 z"
     inkscape:connector-curvature="0" />
  <path
     id="path3867-9"
     d="m 9.1881308,18.55438 c -0.2121627,0 -0.3836576,-0.07888 -0.3836576,-0.176072 v -4.225736 c 0,-0.09719 0.1714949,-0.176073 0.3836576,-0.176073 0.2121627,0 0.3836576,0.07888 0.3836576,0.176073 v 4.225736 c 0,0.09719 -0.1714949,0.176072 -0.3836576,0.176072 z"
     inkscape:connector-curvature="0" />
  <path
     id="path3869-1"
     d="m 9.4098849,12.058211 c -0.1250724,0 -0.2478428,-0.061 -0.3215051,-0.173797 L 2.5661962,1.9093149 c -0.1162483,-0.177249 -0.066373,-0.415117 0.1112645,-0.530982 0.1764825,-0.116248 0.4151176,-0.06637 0.5309822,0.111261 l 6.5221798,9.9750991 c 0.1162482,0.176866 0.066373,0.415117 -0.1112607,0.530982 -0.064455,0.0422 -0.1373495,0.06254 -0.2094771,0.06254 z"
     inkscape:connector-curvature="0" />
  <path
     id="path3873-7"
     d="m 16.093968,6.6870039 c -0.5329,0 -1.047385,-0.156149 -1.490126,-0.451181 -0.176099,-0.117783 -0.223672,-0.356035 -0.105889,-0.532133 0.117783,-0.176099 0.355267,-0.224056 0.5329,-0.10589 0.315367,0.211012 0.682911,0.322273 1.063115,0.322273 0.599657,0 1.153275,-0.272397 1.519668,-0.747366 0.367161,-0.475736 0.487245,-1.093041 0.329562,-1.694616 -0.169193,-0.648765 -0.678307,-1.156728 -1.326304,-1.326304 -0.600424,-0.156916 -1.219264,-0.03683 -1.694232,0.330329 -0.474585,0.366777 -0.746982,0.920011 -0.746982,1.519284 0,0.211779 -0.171495,0.383658 -0.383657,0.383658 -0.212163,0 -0.383658,-0.171879 -0.383658,-0.383658 0,-0.838292 0.380972,-1.613664 1.045467,-2.126614 0.664879,-0.513334 1.525806,-0.68291 2.35796,-0.464993 0.916558,0.239403 1.634765,0.957609 1.874551,1.874551 0.217918,0.832921 0.04873,1.692314 -0.464993,2.357577 -0.513334,0.663727 -1.287939,1.045083 -2.127382,1.045083 z"
     inkscape:connector-curvature="0" />
  <path
     id="path3875-0"
     d="m 9.1885144,14.743814 c -0.1239214,0 -0.2459245,-0.05985 -0.3195868,-0.170727 L 1.9630864,4.2143299 c -0.078266,-0.117783 -0.085939,-0.269327 -0.019183,-0.394016 0.066756,-0.124689 0.1968163,-0.202572 0.338386,-0.202572 H 16.093968 c 0.140035,0 0.268944,0.07635 0.336468,0.199119 0.06714,0.122387 0.06254,0.272013 -0.01266,0.390563 l -5.371208,8.4404691 c -0.113562,0.178784 -0.349895,0.231345 -0.529831,0.117783 -0.178784,-0.113563 -0.231729,-0.351047 -0.117783,-0.529448 l 4.99599,-7.8504031 H 2.9985822 l 6.5083681,9.7621691 c 0.1177829,0.176099 0.070209,0.41435 -0.1062732,0.53175 -0.065222,0.04297 -0.1392677,0.06407 -0.2121627,0.06407 z"
     inkscape:connector-curvature="0" />
</svg>
