<?xml version="1.0" encoding="UTF-8" standalone="no"?>
<!-- Generated by IcoMoon.io -->

<svg
   xmlns:dc="http://purl.org/dc/elements/1.1/"
   xmlns:cc="http://creativecommons.org/ns#"
   xmlns:rdf="http://www.w3.org/1999/02/22-rdf-syntax-ns#"
   xmlns:svg="http://www.w3.org/2000/svg"
   xmlns="http://www.w3.org/2000/svg"
   xmlns:sodipodi="http://sodipodi.sourceforge.net/DTD/sodipodi-0.dtd"
   xmlns:inkscape="http://www.inkscape.org/namespaces/inkscape"
   version="1.1"
   width="20"
   height="20"
   viewBox="0 0 20 20"
   id="svg2"
   inkscape:version="0.48.4 r9939"
   sodipodi:docname="action2.svg">
  <metadata
     id="metadata10">
    <rdf:RDF>
      <cc:Work
         rdf:about="">
        <dc:format>image/svg+xml</dc:format>
        <dc:type
           rdf:resource="http://purl.org/dc/dcmitype/StillImage" />
        <dc:title></dc:title>
      </cc:Work>
    </rdf:RDF>
  </metadata>
  <defs
     id="defs8" />
  <sodipodi:namedview
     pagecolor="#ffffff"
     bordercolor="#666666"
     borderopacity="1"
     objecttolerance="10"
     gridtolerance="10"
     guidetolerance="10"
     inkscape:pageopacity="0"
     inkscape:pageshadow="2"
     inkscape:window-width="1280"
     inkscape:window-height="748"
     id="namedview6"
     showgrid="false"
     inkscape:zoom="11.8"
     inkscape:cx="7.1977736"
     inkscape:cy="11.879557"
     inkscape:window-x="0"
     inkscape:window-y="0"
     inkscape:window-maximized="1"
     inkscape:current-layer="svg2" />
  <g
     id="g5106-8-6-6"
     transform="matrix(0.02348215,0,0,0.02348215,-93.40728,-33.589918)"
     style="fill:none;stroke:#000000;stroke-width:36.15032196;stroke-miterlimit:4;stroke-opacity:1;stroke-dasharray:none" />
  <g
     id="g5110-8-1-6"
     transform="matrix(0.02348215,0,0,0.02348215,-93.40728,-33.589918)"
     style="fill:none;stroke:#000000;stroke-width:36.15032196;stroke-miterlimit:4;stroke-opacity:1;stroke-dasharray:none" />
  <path
     id="path3865-2-6"
     d="M 13.206224,19.047301 H 6.6429288 c -0.2016378,0 -0.3646257,-0.16335 -0.3646257,-0.364626 0,-0.201275 0.1629879,-0.364626 0.3646257,-0.364626 h 6.5632952 c 0.201637,0 0.364625,0.163351 0.364625,0.364626 0,0.201276 -0.162988,0.364626 -0.364625,0.364626 z"
     inkscape:connector-curvature="0" />
  <path
     id="path3867-9-7"
     d="m 9.9245772,18.559074 c -0.2016395,0 -0.3646279,-0.07497 -0.3646279,-0.167337 v -4.016133 c 0,-0.09236 0.1629884,-0.167336 0.3646279,-0.167336 0.2016368,0 0.3646258,0.07496 0.3646258,0.167336 v 4.016133 c 0,0.09237 -0.162989,0.167337 -0.3646258,0.167337 z"
     inkscape:connector-curvature="0" />
  <path
     id="path3869-1-5"
     d="M 9.9938554,11.67423 C 9.8757049,11.661126 9.7660839,11.59076 9.7082582,11.476534 L 4.5868999,1.3734896 c -0.091338,-0.17956 -0.019426,-0.39906555 0.160459,-0.4900004 0.1788364,-0.0914168 0.3990641,-0.0194236 0.489999,0.160459 L 10.358718,11.146991 c 0.09137,0.179197 0.01942,0.399067 -0.160459,0.490002 -0.06528,0.03314 -0.136268,0.04475 -0.2044036,0.03723 z"
     inkscape:connector-curvature="0" />
  <path
     id="path3873-7-3"
     d="m 16.487871,7.280346 c -0.506468,0 -0.995433,-0.1484033 -1.416215,-0.4288016 C 14.904294,6.7396032 14.859079,6.5131693 14.971018,6.345806 15.08296,6.1784415 15.308665,6.1328638 15.477487,6.2451689 c 0.299723,0.2005444 0.649036,0.306287 1.010383,0.306287 0.569912,0 1.096067,-0.2588862 1.444287,-0.7102941 C 18.281109,5.3890237 18.395236,4.8023383 18.245374,4.2306017 18.084575,3.6140175 17.600713,3.1312505 16.984856,2.9700844 16.414215,2.8209523 15.826072,2.9350801 15.374663,3.284029 c -0.451045,0.3485835 -0.70993,0.8743762 -0.70993,1.4439245 0,0.2012746 -0.162988,0.3646277 -0.364628,0.3646277 -0.201639,0 -0.364628,-0.1633531 -0.364628,-0.3646277 0,-0.7967104 0.362075,-1.5336231 0.993611,-2.0211304 0.631898,-0.4878712 1.450124,-0.6490362 2.241,-0.4419284 0.871095,0.2275281 1.553679,0.9101106 1.78157,1.7815706 0.207107,0.7916061 0.04632,1.6083717 -0.441928,2.240635 -0.487871,0.6308061 -1.224055,0.9932457 -2.021859,0.9932457 z"
     inkscape:connector-curvature="0" />
  <path
     id="path3875-0-5"
     d="m 9.9249398,14.937521 c -0.1177666,0 -0.2337251,-0.05688 -0.3037339,-0.162258 L 3.0579122,4.9303221 C 2.9835286,4.8183811 2.9762361,4.6743533 3.0396821,4.5558499 3.103126,4.4373456 3.2267357,4.3633259 3.3612819,4.3633259 H 16.487871 c 0.133088,0 0.255603,0.072562 0.319777,0.1892417 0.06381,0.1163159 0.05943,0.2585212 -0.01205,0.3711911 l -5.104785,8.0218023 c -0.107931,0.169919 -0.332542,0.219871 -0.50355,0.111942 -0.169902,-0.107931 -0.22022,-0.333635 -0.111929,-0.503185 L 15.823519,5.0933103 H 4.0420412 l 6.1855398,9.2779457 c 0.111942,0.167364 0.06673,0.393796 -0.100996,0.505373 -0.06199,0.04084 -0.1323537,0.06089 -0.2016399,0.06089 z"
     inkscape:connector-curvature="0" />
  <path
     id="path3869-1-5-6"
     d="M 1.0361083,1.7273503 C 1.0730823,1.6143775 1.1644736,1.5215179 1.2881338,1.4883282 L 4.7718266,0.81416731 C 4.9662959,0.76157273 5.1664047,0.87693162 5.2185478,1.0716326 5.271374,1.2654069 5.1557808,1.4662104 4.9610816,1.5183516 L 1.4773908,2.1925123 C 1.2832678,2.245223 1.0828109,2.1297472 1.0306674,1.9350471 1.0116092,1.8643514 1.0147874,1.7925002 1.0361077,1.7273503 z"
     inkscape:connector-curvature="0"
     sodipodi:nodetypes="cccccccc" />
</svg>
