<?xml version="1.0" encoding="utf-8"?>
<!-- Generated by IcoMoon.io -->
<!DOCTYPE svg PUBLIC "-//W3C//DTD SVG 1.1//EN" "http://www.w3.org/Graphics/SVG/1.1/DTD/svg11.dtd">
<svg version="1.1" xmlns="http://www.w3.org/2000/svg" xmlns:xlink="http://www.w3.org/1999/xlink" width="32" height="32" viewBox="0 0 32 32">
<path d="M18.4 12.8c0.442 0 0.8-0.358 0.8-0.8v-6.4c0-1.323-1.077-2.4-2.4-2.4h-14.4c-1.323 0-2.4 1.077-2.4 2.4v19.2c0 1.194 0.859 2.496 1.955 2.965l8.259 3.539c0.285 0.122 0.574 0.182 0.851 0.182 0.341 0 0.666-0.093 0.942-0.275 0.502-0.331 0.792-0.92 0.792-1.613v-2.4h4c1.323 0 2.4-1.077 2.4-2.4v-6.4c0-0.442-0.358-0.8-0.8-0.8s-0.8 0.358-0.8 0.8v6.4c0 0.442-0.358 0.8-0.8 0.8h-4v-15.2c0-1.194-0.859-2.496-1.955-2.965l-6.147-2.635h12.102c0.442 0 0.8 0.358 0.8 0.8v6.4c0 0.442 0.358 0.8 0.8 0.8zM10.214 8.906c0.515 0.221 0.986 0.934 0.986 1.494v19.2c0 0.166-0.045 0.259-0.072 0.277s-0.13 0.022-0.283-0.043l-8.259-3.539c-0.515-0.221-0.986-0.933-0.986-1.494v-19.2c0-0.126 0.029-0.245 0.082-0.352l8.533 3.658z"></path>
<path d="M29.366 14.634l-4.8-4.8c-0.312-0.312-0.819-0.312-1.131 0s-0.312 0.819 0 1.131l3.434 3.434h-10.069c-0.442 0-0.8 0.358-0.8 0.8s0.358 0.8 0.8 0.8h10.069l-3.434 3.434c-0.312 0.312-0.312 0.819 0 1.131 0.157 0.157 0.362 0.234 0.566 0.234s0.41-0.078 0.566-0.234l4.8-4.8c0.312-0.312 0.312-0.819 0-1.131z"></path>
</svg>
