<?xml version="1.0" encoding="utf-8"?>
<!-- Generated by IcoMoon.io -->
<!DOCTYPE svg PUBLIC "-//W3C//DTD SVG 1.1//EN" "http://www.w3.org/Graphics/SVG/1.1/DTD/svg11.dtd">
<svg version="1.1" xmlns="http://www.w3.org/2000/svg" xmlns:xlink="http://www.w3.org/1999/xlink" width="32" height="32" viewBox="0 0 32 32">
<path d="M31.795 16.266c-0.075-0.085-1.891-2.088-4.73-4.115-1.675-1.197-3.36-2.15-5.008-2.837-2.088-0.87-4.126-1.312-6.058-1.312s-3.97 0.442-6.058 1.312c-1.648 0.686-3.333 1.642-5.008 2.837-2.838 2.027-4.654 4.032-4.73 4.115-0.274 0.304-0.274 0.766 0 1.070 0.075 0.085 1.891 2.088 4.73 4.115 1.675 1.197 3.36 2.15 5.008 2.837 2.088 0.87 4.126 1.312 6.058 1.312s3.97-0.442 6.058-1.312c1.648-0.686 3.333-1.642 5.008-2.837 2.838-2.027 4.654-4.032 4.73-4.115 0.274-0.304 0.274-0.766 0-1.070zM20.118 10.301c1.451 1.221 2.282 2.997 2.282 4.899 0 3.53-2.87 6.4-6.4 6.4s-6.4-2.87-6.4-6.4c0-1.901 0.83-3.678 2.282-4.899 1.315-0.429 2.706-0.701 4.118-0.701s2.803 0.272 4.118 0.701zM26.107 20.17c-2.453 1.747-6.197 3.83-10.107 3.83s-7.654-2.083-10.107-3.83c-1.851-1.318-3.267-2.653-3.982-3.37 0.715-0.717 2.131-2.050 3.982-3.37 0.848-0.605 1.85-1.248 2.96-1.832-0.555 1.101-0.853 2.328-0.853 3.602 0 4.411 3.589 8 8 8s8-3.589 8-8c0-1.274-0.298-2.501-0.853-3.602 1.11 0.584 2.112 1.229 2.96 1.832 1.851 1.318 3.267 2.653 3.982 3.37-0.715 0.717-2.131 2.050-3.982 3.37z"></path>
</svg>
