<?xml version="1.0" encoding="utf-8"?>
<!-- Generated by IcoMoon.io -->
<!DOCTYPE svg PUBLIC "-//W3C//DTD SVG 1.1//EN" "http://www.w3.org/Graphics/SVG/1.1/DTD/svg11.dtd">
<svg version="1.1" xmlns="http://www.w3.org/2000/svg" xmlns:xlink="http://www.w3.org/1999/xlink" width="32" height="32" viewBox="0 0 32 32">
<path d="M28.566 9.034l-7.2-7.2c-0.15-0.15-0.354-0.234-0.566-0.234h-15.2c-1.323 0-2.4 1.077-2.4 2.4v25.6c0 1.323 1.077 2.4 2.4 2.4h20.8c1.323 0 2.4-1.077 2.4-2.4v-20c0-0.213-0.085-0.416-0.234-0.566zM26.869 9.6h-5.269c-0.442 0-0.8-0.358-0.8-0.8v-5.269l6.069 6.069zM27.2 29.6c0 0.442-0.358 0.8-0.8 0.8h-20.8c-0.442 0-0.8-0.358-0.8-0.8v-25.6c0-0.442 0.358-0.8 0.8-0.8h13.6v5.6c0 1.323 1.077 2.4 2.4 2.4h5.6v18.4z"></path>
</svg>
