<?xml version="1.0" encoding="utf-8"?>
<!-- Generated by IcoMoon.io -->
<!DOCTYPE svg PUBLIC "-//W3C//DTD SVG 1.1//EN" "http://www.w3.org/Graphics/SVG/1.1/DTD/svg11.dtd">
<svg version="1.1" xmlns="http://www.w3.org/2000/svg" xmlns:xlink="http://www.w3.org/1999/xlink" width="32" height="32" viewBox="0 0 32 32">
<path d="M12 24c-0.122 0-0.245-0.027-0.358-0.085-0.27-0.136-0.442-0.413-0.442-0.715v-14.4c0-0.302 0.171-0.581 0.442-0.715s0.595-0.106 0.838 0.075l9.6 7.2c0.202 0.15 0.32 0.389 0.32 0.64s-0.118 0.49-0.32 0.64l-9.6 7.2c-0.141 0.106-0.31 0.16-0.48 0.16zM12.8 10.4v11.2l7.467-5.6-7.467-5.6z"></path>
<path d="M31.2 3.2h-30.4c-0.442 0-0.8 0.358-0.8 0.8v24c0 0.442 0.358 0.8 0.8 0.8h30.4c0.442 0 0.8-0.358 0.8-0.8v-24c0-0.442-0.358-0.8-0.8-0.8zM4.8 17.6h-3.2v-3.2h3.2v3.2zM4.8 12.8h-3.2v-3.2h3.2v3.2zM1.6 19.2h3.2v3.2h-3.2v-3.2zM6.4 4.8h19.2v22.4h-19.2v-22.4zM27.2 14.4h3.2v3.2h-3.2v-3.2zM27.2 12.8v-3.2h3.2v3.2h-3.2zM27.2 19.2h3.2v3.2h-3.2v-3.2zM30.4 8h-3.2v-3.2h3.2v3.2zM4.8 4.8v3.2h-3.2v-3.2h3.2zM1.6 24h3.2v3.2h-3.2v-3.2zM27.2 27.2v-3.2h3.2v3.2h-3.2z"></path>
</svg>
