<?xml version="1.0" encoding="utf-8"?>
<!-- Generated by IcoMoon.io -->
<!DOCTYPE svg PUBLIC "-//W3C//DTD SVG 1.1//EN" "http://www.w3.org/Graphics/SVG/1.1/DTD/svg11.dtd">
<svg version="1.1" xmlns="http://www.w3.org/2000/svg" xmlns:xlink="http://www.w3.org/1999/xlink" width="32" height="32" viewBox="0 0 32 32">
<path d="M2.4 30.4c-0.442 0-0.8-0.358-0.8-0.8v-24c0-0.442 0.358-0.8 0.8-0.8s0.8 0.358 0.8 0.8v24c0 0.442-0.358 0.8-0.8 0.8z"></path>
<path d="M5.6 16c-0.166 0-0.336-0.053-0.48-0.16-0.354-0.266-0.426-0.766-0.16-1.12 0.107-0.144 2.682-3.52 6.24-3.52 2.71 0 4.501 0.958 6.082 1.803 1.4 0.749 2.61 1.397 4.318 1.397 3.507 0 6.013-3.328 7.44-5.949-1.117 0.635-2.544 1.149-4.24 1.149-3.531 0-5.355-1.824-6.966-3.434-1.592-1.592-2.966-2.966-5.834-2.966-3.558 0-5.739 2.851-5.76 2.88-0.266 0.354-0.766 0.426-1.12 0.16s-0.426-0.766-0.16-1.12c0.107-0.144 2.69-3.52 7.040-3.52 3.531 0 5.355 1.824 6.966 3.434 1.592 1.592 2.966 2.966 5.834 2.966 3.558 0 5.739-2.851 5.76-2.88 0.235-0.314 0.664-0.411 1.011-0.229s0.512 0.589 0.387 0.962c-0.034 0.102-0.853 2.53-2.493 4.99-0.979 1.469-2.051 2.645-3.186 3.496-1.469 1.101-3.043 1.659-4.68 1.659-2.109 0-3.616-0.806-5.074-1.586-1.552-0.83-3.018-1.614-5.326-1.614-2.768 0-4.939 2.851-4.96 2.88-0.157 0.21-0.397 0.32-0.64 0.32z"></path>
</svg>
