<?xml version="1.0" encoding="utf-8"?>
<!-- Generated by IcoMoon.io -->
<!DOCTYPE svg PUBLIC "-//W3C//DTD SVG 1.1//EN" "http://www.w3.org/Graphics/SVG/1.1/DTD/svg11.dtd">
<svg version="1.1" xmlns="http://www.w3.org/2000/svg" xmlns:xlink="http://www.w3.org/1999/xlink" width="32" height="32" viewBox="0 0 32 32">
<path d="M29.6 11.2c-0.442 0-0.8-0.358-0.8-0.8v-3.2c0-0.442-0.358-0.8-0.8-0.8h-3.2c-0.442 0-0.8-0.358-0.8-0.8s0.358-0.8 0.8-0.8h3.2c1.323 0 2.4 1.077 2.4 2.4v3.2c0 0.442-0.358 0.8-0.8 0.8z"></path>
<path d="M0.8 11.2c-0.442 0-0.8-0.358-0.8-0.8v-3.2c0-1.323 1.077-2.4 2.4-2.4h3.2c0.442 0 0.8 0.358 0.8 0.8s-0.358 0.8-0.8 0.8h-3.2c-0.442 0-0.8 0.358-0.8 0.8v3.2c0 0.442-0.358 0.8-0.8 0.8z"></path>
<path d="M5.6 28.8h-3.2c-1.323 0-2.4-1.077-2.4-2.4v-3.2c0-0.442 0.358-0.8 0.8-0.8s0.8 0.358 0.8 0.8v3.2c0 0.442 0.358 0.8 0.8 0.8h3.2c0.442 0 0.8 0.358 0.8 0.8s-0.358 0.8-0.8 0.8z"></path>
<path d="M28 28.8h-3.2c-0.442 0-0.8-0.358-0.8-0.8s0.358-0.8 0.8-0.8h3.2c0.442 0 0.8-0.358 0.8-0.8v-3.2c0-0.442 0.358-0.8 0.8-0.8s0.8 0.358 0.8 0.8v3.2c0 1.323-1.077 2.4-2.4 2.4z"></path>
</svg>
