<?xml version="1.0" encoding="utf-8"?>
<!-- Generated by IcoMoon.io -->
<!DOCTYPE svg PUBLIC "-//W3C//DTD SVG 1.1//EN" "http://www.w3.org/Graphics/SVG/1.1/DTD/svg11.dtd">
<svg version="1.1" xmlns="http://www.w3.org/2000/svg" xmlns:xlink="http://www.w3.org/1999/xlink" width="32" height="32" viewBox="0 0 32 32">
<path d="M25.968 5.291c-0.634-0.429-1.518-0.806-2.629-1.123-2.186-0.624-5.075-0.968-8.139-0.968s-5.955 0.344-8.139 0.968c-1.11 0.317-1.994 0.694-2.629 1.123-1.019 0.688-1.232 1.418-1.232 1.909v0.8c0 0.685 0.514 1.813 1.022 2.574l7.826 11.738c0.402 0.602 0.754 1.765 0.754 2.488v4.8c0 0.277 0.144 0.534 0.379 0.68 0.128 0.080 0.274 0.12 0.421 0.12 0.122 0 0.245-0.029 0.358-0.085l3.2-1.6c0.27-0.136 0.442-0.413 0.442-0.715v-3.2c0-0.723 0.352-1.886 0.754-2.488l7.826-11.738c0.507-0.762 1.022-1.891 1.022-2.574v-0.8c0-0.491-0.214-1.221-1.232-1.909zM7.501 5.707c2.046-0.584 4.781-0.907 7.699-0.907s5.654 0.322 7.699 0.907c2.205 0.63 2.701 1.306 2.701 1.493s-0.496 0.864-2.701 1.493c-2.046 0.584-4.781 0.907-7.699 0.907s-5.654-0.322-7.699-0.907c-2.205-0.63-2.701-1.306-2.701-1.493s0.496-0.864 2.701-1.493zM17.022 21.426c-0.573 0.859-1.022 2.342-1.022 3.374v2.706l-1.6 0.8v-3.506c0-1.034-0.45-2.515-1.022-3.374l-7.808-11.712c0.438 0.187 0.936 0.362 1.491 0.518 2.186 0.624 5.075 0.968 8.139 0.968s5.955-0.344 8.139-0.968c0.554-0.158 1.053-0.331 1.491-0.52l-7.808 11.712z"></path>
</svg>
