<?xml version="1.0" encoding="utf-8"?>
<!-- Generated by IcoMoon.io -->
<!DOCTYPE svg PUBLIC "-//W3C//DTD SVG 1.1//EN" "http://www.w3.org/Graphics/SVG/1.1/DTD/svg11.dtd">
<svg version="1.1" xmlns="http://www.w3.org/2000/svg" xmlns:xlink="http://www.w3.org/1999/xlink" width="32" height="32" viewBox="0 0 32 32">
<path d="M29.853 11.242l-14.4-4.8c-0.165-0.054-0.342-0.054-0.506 0l-14.4 4.8c-0.326 0.109-0.547 0.414-0.547 0.758s0.221 0.65 0.547 0.758l4.253 1.418v4.224c0 0.213 0.085 0.416 0.234 0.566 0.141 0.141 3.51 3.434 10.166 3.434 2.421 0 4.678-0.435 6.712-1.294 0.406-0.171 0.597-0.642 0.426-1.048s-0.642-0.597-1.048-0.426c-1.835 0.776-3.883 1.168-6.088 1.168-3.112 0-5.402-0.806-6.774-1.482-1.016-0.501-1.696-1.006-2.026-1.278v-3.33l8.547 2.85c0.082 0.027 0.168 0.042 0.253 0.042s0.171-0.014 0.253-0.042l8.547-2.85v1.427c-0.931 0.33-1.6 1.219-1.6 2.262 0 0.978 0.587 1.819 1.427 2.194l-1.403 5.613c-0.059 0.238-0.006 0.493 0.146 0.686s0.384 0.307 0.63 0.307h3.2c0.246 0 0.478-0.114 0.63-0.307s0.205-0.448 0.146-0.686l-1.403-5.613c0.84-0.374 1.427-1.216 1.427-2.194 0-1.043-0.669-1.933-1.6-2.262v-1.962l4.253-1.418c0.326-0.109 0.547-0.414 0.547-0.758s-0.221-0.65-0.547-0.758zM24.8 17.6c0.442 0 0.8 0.358 0.8 0.8s-0.358 0.8-0.8 0.8-0.8-0.358-0.8-0.8 0.358-0.8 0.8-0.8zM24.224 25.6l0.576-2.301 0.576 2.301h-1.15zM24.736 12.778l-9.403-1.568c-0.437-0.072-0.848 0.222-0.92 0.658s0.222 0.848 0.658 0.92l6.422 1.070-6.291 2.098-11.87-3.957 11.87-3.957 11.87 3.957-2.334 0.778z"></path>
</svg>
