<?xml version="1.0" encoding="utf-8"?>
<!-- Generated by IcoMoon.io -->
<!DOCTYPE svg PUBLIC "-//W3C//DTD SVG 1.1//EN" "http://www.w3.org/Graphics/SVG/1.1/DTD/svg11.dtd">
<svg version="1.1" xmlns="http://www.w3.org/2000/svg" xmlns:xlink="http://www.w3.org/1999/xlink" width="26" height="32" viewBox="0 0 26 32">
<path d="M2.095 17.661c-0.216 0.014-0.386 0.193-0.386 0.411 0 0 0 0.001 0 0.001v6.145c0.001 0.156 0.089 0.291 0.217 0.36l10.72 6.094c0.058 0.032 0.126 0.052 0.2 0.052s0.142-0.019 0.202-0.053l10.754-6.092c0.13-0.070 0.218-0.205 0.219-0.36v-6.145c0-0.001 0-0.002 0-0.004 0-0.228-0.185-0.412-0.412-0.412-0.076 0-0.147 0.020-0.208 0.056l-10.548 6.028-10.524-6.029c-0.058-0.033-0.128-0.053-0.202-0.053-0.011 0-0.021 0-0.032 0.001zM23.195 18.782v5.191l-10.344 5.874-10.318-5.874v-5.178l10.099 5.784c0.059 0.035 0.13 0.055 0.206 0.055s0.147-0.020 0.208-0.056l10.149-5.796z"></path>
<path d="M12.851 0.851c-0.303 0-0.597 0.141-0.812 0.386-0.025 0.026-0.046 0.056-0.063 0.088l-2.307 4.653c-0.004 0.006-0.008 0.015-0.012 0.023l-0.053 0.015-5.101 0.734c-0.006-0-0.013-0-0.019-0s-0.014 0-0.020 0c-0.328 0.073-0.572 0.315-0.669 0.605-0.095 0.285-0.025 0.645 0.232 0.876l0.013 0.013 3.736 3.62c-0-0.002 0.013 0.014 0.013 0.013-0.003 0.006-0.008 0.015-0.012 0.023l-0.864 5.155c-0 0.004-0 0.008-0 0.013s0 0.009 0 0.014c-0.074 0.663 0.637 1.22 1.25 0.914 0.004-0.004 0.009-0.008 0.013-0.013l4.612-2.422c0.011-0.005 0.020-0.009 0.028-0.014-0.002 0.003-0.002 0.005-0.002 0.008s0 0.005 0 0.007l4.625 2.421c-0 0.002-0 0.004-0 0.006s0 0.005 0 0.007c0.621 0.31 1.392-0.248 1.25-0.941v-0.013l-0.863-5.14c0-0.004 0-0.008 0-0.013s-0-0.009-0-0.014c-0.006-0.021 0.004-0.018 0-0.012l0.013-0.013 3.749-3.62c0.248-0.248 0.317-0.619 0.219-0.915-0.097-0.29-0.36-0.522-0.696-0.567h-0.013l-5.088-0.734c-0.036-0.014-0.067-0.037-0.090-0.064-0.004-0.005-0.010-0.008-0.013-0.013l-2.28-4.612c0-0.002 0-0.004 0-0.006s-0-0.005-0-0.007c-0.15-0.3-0.47-0.463-0.773-0.463zM12.851 1.675c0.037 0 0.024-0.017 0.039 0.013l2.306 4.663c0.009 0.015 0.017 0.028 0.027 0.040 0.14 0.211 0.338 0.344 0.54 0.411 0.023 0.006 0.049 0.011 0.076 0.013l5.154 0.747c0.002 0 0.004 0 0.006 0s0.005-0 0.007-0c0.027 0.003 0.021 0.012 0.025 0.026s0.014 0.011-0.026 0.052l-3.749 3.633c-0.183 0.183-0.288 0.503-0.232 0.773h-0.013l0.863 5.153c0.005 0.011 0.009 0.020 0.014 0.028 0.008 0.041-0.044 0.041-0.078 0.024l-4.573-2.396-0.039-0.026v0.013c-0.247-0.146-0.552-0.146-0.799 0v-0.013l-0.039 0.026-4.573 2.409v-0.013c-0.047 0.024-0.073 0.001-0.064-0.077l0.863-5.101v-0.013c0.001-0.005-0.001-0.008 0-0.013 0.067-0.325-0.1-0.588-0.18-0.709-0.019-0.024-0.040-0.045-0.064-0.064l-3.749-3.633c-0.004-0.004-0.008-0.009-0.013-0.013-0.020-0.018-0.006 0.006-0-0.013 0.004-0.013 0.018-0.038 0.039-0.052 0.003-0.002 0.010 0.002 0.013 0l5.14-0.747c0.006 0 0.013 0 0.019 0s0.014-0 0.020-0c0.224-0.056 0.461-0.202 0.579-0.464h0.013l0.026-0.052 2.254-4.534c0.065-0.060 0.136-0.090 0.167-0.090z"></path>
</svg>
