<?xml version="1.0" encoding="utf-8"?>
<!-- Generated by IcoMoon.io -->
<!DOCTYPE svg PUBLIC "-//W3C//DTD SVG 1.1//EN" "http://www.w3.org/Graphics/SVG/1.1/DTD/svg11.dtd">
<svg version="1.1" xmlns="http://www.w3.org/2000/svg" xmlns:xlink="http://www.w3.org/1999/xlink" width="32" height="32" viewBox="0 0 32 32">
<path d="M27.2 6.4c-0.582 0-1.13 0.157-1.6 0.43v-2.030c0-1.765-1.435-3.2-3.2-3.2-0.659 0-1.27 0.2-1.781 0.542-0.438-1.246-1.626-2.142-3.019-2.142s-2.582 0.896-3.019 2.142c-0.509-0.342-1.122-0.542-1.781-0.542-1.765 0-3.2 1.435-3.2 3.2v11.797l-2.154-3.733c-0.418-0.76-1.099-1.301-1.918-1.525-0.798-0.218-1.629-0.102-2.339 0.323-1.451 0.87-2.005 2.838-1.232 4.387 0.048 0.098 1.069 2.189 4.256 8.56 1.501 3 3.147 5.146 4.894 6.374 1.371 0.965 2.318 1.014 2.494 1.014h8c1.362 0 2.627-0.443 3.763-1.315 1.067-0.821 1.994-2.008 2.752-3.526 1.494-2.989 2.285-7.123 2.285-11.958v-5.6c0-1.765-1.435-3.2-3.2-3.2zM28.8 15.2c0 4.587-0.731 8.474-2.115 11.242-0.902 1.805-2.518 3.958-5.085 3.958h-7.984c-0.062-0.005-0.736-0.080-1.752-0.84-1.013-0.758-2.568-2.355-4.221-5.664-3.243-6.486-4.24-8.53-4.25-8.549-0.002-0.003-0.002-0.005-0.003-0.006-0.402-0.805-0.117-1.859 0.622-2.302 0.333-0.2 0.722-0.253 1.096-0.152 0.398 0.109 0.733 0.378 0.939 0.755 0.003 0.005 0.006 0.011 0.010 0.016l2.498 4.328c0.51 0.933 1.085 1.325 1.707 1.166 0.624-0.158 0.939-0.782 0.939-1.851v-12.501c0-0.882 0.718-1.6 1.6-1.6s1.6 0.718 1.6 1.6v10.4c0 0.442 0.358 0.8 0.8 0.8s0.8-0.358 0.8-0.8v-12c0-0.882 0.718-1.6 1.6-1.6s1.6 0.718 1.6 1.6v12c0 0.442 0.358 0.8 0.8 0.8s0.8-0.358 0.8-0.8v-10.4c0-0.882 0.718-1.6 1.6-1.6s1.6 0.718 1.6 1.6v12c0 0.442 0.358 0.8 0.8 0.8s0.8-0.358 0.8-0.8v-7.2c0-0.882 0.718-1.6 1.6-1.6s1.6 0.718 1.6 1.6v5.6z"></path>
</svg>
