<?xml version="1.0" encoding="utf-8"?>
<!-- Generated by IcoMoon.io -->
<!DOCTYPE svg PUBLIC "-//W3C//DTD SVG 1.1//EN" "http://www.w3.org/Graphics/SVG/1.1/DTD/svg11.dtd">
<svg version="1.1" xmlns="http://www.w3.org/2000/svg" xmlns:xlink="http://www.w3.org/1999/xlink" width="32" height="32" viewBox="0 0 32 32">
<path d="M15.2 30.4c-0.134 0-0.267-0.034-0.389-0.101-0.15-0.083-3.722-2.082-7.347-5.355-2.146-1.936-3.858-3.917-5.093-5.888-1.574-2.514-2.371-5.022-2.371-7.456 0-4.632 3.768-8.4 8.4-8.4 1.568 0 3.234 0.587 4.69 1.654 0.851 0.624 1.576 1.376 2.11 2.174 0.534-0.798 1.259-1.55 2.11-2.174 1.456-1.067 3.122-1.654 4.69-1.654 4.632 0 8.4 3.768 8.4 8.4 0 2.434-0.798 4.942-2.371 7.456-1.234 1.971-2.947 3.952-5.091 5.888-3.626 3.274-7.197 5.272-7.347 5.355-0.122 0.067-0.254 0.101-0.389 0.101zM8.4 4.8c-3.749 0-6.8 3.051-6.8 6.8 0 4.864 3.76 9.283 6.914 12.136 2.816 2.547 5.67 4.333 6.686 4.939 1.016-0.606 3.87-2.392 6.686-4.939 3.154-2.851 6.914-7.272 6.914-12.136 0-3.749-3.051-6.8-6.8-6.8-2.725 0-5.371 2.242-6.042 4.253-0.109 0.326-0.414 0.547-0.758 0.547s-0.65-0.221-0.758-0.547c-0.67-2.011-3.317-4.253-6.042-4.253z"></path>
</svg>
