<?xml version="1.0" encoding="utf-8"?>
<!-- Generated by IcoMoon.io -->
<!DOCTYPE svg PUBLIC "-//W3C//DTD SVG 1.1//EN" "http://www.w3.org/Graphics/SVG/1.1/DTD/svg11.dtd">
<svg version="1.1" xmlns="http://www.w3.org/2000/svg" xmlns:xlink="http://www.w3.org/1999/xlink" width="32" height="32" viewBox="0 0 32 32">
<path d="M15.2 30.4c-0.134 0-0.267-0.034-0.389-0.101-0.186-0.104-4.603-2.578-8.59-6.531-0.314-0.31-0.315-0.818-0.005-1.131s0.818-0.315 1.131-0.005c3.166 3.139 6.698 5.354 7.853 6.042 1.157-0.69 4.691-2.907 7.853-6.042 0.314-0.31 0.821-0.309 1.131 0.005s0.309 0.821-0.005 1.131c-3.989 3.954-8.405 6.427-8.59 6.531-0.122 0.067-0.254 0.101-0.389 0.101z"></path>
<path d="M2.046 17.6c-0.301 0-0.589-0.17-0.725-0.459-0.877-1.864-1.322-3.728-1.322-5.541 0-4.632 3.768-8.4 8.4-8.4 1.568 0 3.234 0.587 4.69 1.654 0.851 0.624 1.576 1.376 2.11 2.174 0.534-0.798 1.259-1.55 2.11-2.174 1.456-1.067 3.122-1.654 4.69-1.654 4.632 0 8.4 3.768 8.4 8.4 0 1.813-0.445 3.677-1.322 5.541-0.189 0.4-0.664 0.571-1.064 0.384s-0.571-0.664-0.384-1.064c0.776-1.65 1.17-3.285 1.17-4.859 0-3.749-3.051-6.8-6.8-6.8-2.725 0-5.371 2.242-6.042 4.253-0.109 0.326-0.414 0.547-0.758 0.547s-0.65-0.221-0.758-0.547c-0.67-2.011-3.317-4.253-6.042-4.253-3.749 0-6.8 3.051-6.8 6.8 0 1.574 0.394 3.21 1.17 4.859 0.189 0.4 0.016 0.877-0.384 1.064-0.11 0.051-0.226 0.077-0.339 0.077z"></path>
<path d="M16.824 24c-0.008 0-0.014 0-0.021 0-0.323-0.006-0.91-0.174-1.205-1.226l-1.947-6.934-1.291 5.246c-0.253 1.029-0.84 1.245-1.168 1.28s-0.947-0.043-1.422-0.992l-0.97-1.938c-0.046-0.093-0.090-0.15-0.122-0.187-0.005 0.006-0.011 0.014-0.018 0.024-0.592 0.869-1.907 1.525-3.061 1.525h-1.6c-0.442 0-0.8-0.358-0.8-0.8s0.358-0.8 0.8-0.8h1.6c0.674 0 1.474-0.435 1.739-0.826 0.357-0.523 0.875-0.802 1.426-0.765 0.598 0.040 1.133 0.446 1.467 1.114l0.712 1.424 1.498-6.085c0.253-1.024 0.771-1.246 1.162-1.253s0.915 0.2 1.202 1.216l2.054 7.322 1.885-5.773c0.328-1.005 0.931-1.178 1.261-1.192s0.944 0.109 1.355 1.083l1.158 2.75c0.218 0.515 0.925 0.986 1.483 0.986h2.4c0.442 0 0.8 0.358 0.8 0.8s-0.358 0.8-0.8 0.8h-2.4c-1.195 0-2.494-0.862-2.958-1.965l-0.947-2.25-2.038 6.24c-0.331 1.014-0.906 1.173-1.234 1.173z"></path>
</svg>
