<?xml version="1.0" encoding="utf-8"?>
<!-- Generated by IcoMoon.io -->
<!DOCTYPE svg PUBLIC "-//W3C//DTD SVG 1.1//EN" "http://www.w3.org/Graphics/SVG/1.1/DTD/svg11.dtd">
<svg version="1.1" xmlns="http://www.w3.org/2000/svg" xmlns:xlink="http://www.w3.org/1999/xlink" width="32" height="32" viewBox="0 0 32 32">
<path d="M16.85 0.891c-0 0-0 0-0.001 0-0.169 0-0.318 0.089-0.401 0.223l-10.308 16.751c-0.044 0.070-0.070 0.156-0.070 0.248 0 0.261 0.211 0.473 0.472 0.473h7.603l-7.234 12.038c-0.043 0.070-0.068 0.154-0.068 0.244 0 0.261 0.212 0.473 0.473 0.473 0.129 0 0.245-0.051 0.33-0.134l18.81-18.36c0.088-0.086 0.143-0.206 0.143-0.338 0-0.261-0.212-0.473-0.473-0.473h-7.659l6.388-10.424c0.044-0.070 0.069-0.155 0.069-0.247 0-0.261-0.212-0.473-0.473-0.473-0 0-0 0-0.001 0h-7.601zM17.113 1.836h6.492l-6.387 10.425c-0.044 0.070-0.069 0.155-0.069 0.247 0 0.261 0.212 0.473 0.473 0.473h7.342l-15.353 14.983 5.775-9.608c0.042-0.070 0.068-0.154 0.068-0.244 0-0.261-0.212-0.473-0.473-0.473h-7.592l9.724-15.803z"></path>
</svg>
