<?xml version="1.0" encoding="utf-8"?>
<!-- Generated by IcoMoon.io -->
<!DOCTYPE svg PUBLIC "-//W3C//DTD SVG 1.1//EN" "http://www.w3.org/Graphics/SVG/1.1/DTD/svg11.dtd">
<svg version="1.1" xmlns="http://www.w3.org/2000/svg" xmlns:xlink="http://www.w3.org/1999/xlink" width="32" height="32" viewBox="0 0 32 32">
<path d="M31.766 15.434c-0.312-0.312-0.819-0.312-1.131 0l-5.738 5.738c-0.936 0.936-2.459 0.936-3.394 0l-7.475-7.475c-0.451-0.451-0.699-1.053-0.699-1.698s0.248-1.246 0.699-1.698l5.738-5.738c0.312-0.312 0.312-0.819 0-1.131s-0.819-0.312-1.131 0l-5.738 5.738c-0.754 0.754-1.168 1.757-1.168 2.829 0 0.456 0.077 0.901 0.221 1.318l-11.715 11.715c-0.15 0.15-0.234 0.354-0.234 0.566v2.4c0 0.442 0.358 0.8 0.8 0.8h15.2c0.213 0 0.416-0.085 0.566-0.234l5.315-5.315c0.418 0.146 0.862 0.221 1.318 0.221 1.070 0 2.075-0.414 2.829-1.168l5.738-5.738c0.312-0.312 0.312-0.819 0-1.131zM15.669 27.2h-14.069v-1.269l11.203-11.203c0.032 0.034 0.062 0.067 0.094 0.099l7.475 7.475c0.032 0.032 0.066 0.064 0.099 0.094l-4.803 4.803z"></path>
</svg>
