<?xml version="1.0" encoding="utf-8"?>
<!-- Generated by IcoMoon.io -->
<!DOCTYPE svg PUBLIC "-//W3C//DTD SVG 1.1//EN" "http://www.w3.org/Graphics/SVG/1.1/DTD/svg11.dtd">
<svg version="1.1" xmlns="http://www.w3.org/2000/svg" xmlns:xlink="http://www.w3.org/1999/xlink" width="32" height="32" viewBox="0 0 32 32">
<path d="M27.314 4.686c-3.022-3.022-7.040-4.686-11.314-4.686-4.95 0-9.56 2.28-12.565 6.091v-2.091c0-0.442-0.358-0.8-0.8-0.8s-0.8 0.358-0.8 0.8v4.755c0 0.366 0.248 0.685 0.603 0.776 0.155 0.040 0.312 0.030 0.454-0.018v0l4.565-1.555c0.418-0.142 0.642-0.597 0.499-1.014s-0.597-0.642-1.014-0.499l-2.384 0.813c2.701-3.533 6.912-5.654 11.443-5.654 7.941 0 14.4 6.459 14.4 14.4s-6.459 14.4-14.4 14.4c-5.306 0-10.166-2.904-12.685-7.579-0.21-0.389-0.694-0.534-1.083-0.325s-0.534 0.694-0.325 1.083c2.798 5.194 8.2 8.421 14.094 8.421 4.274 0 8.291-1.664 11.314-4.686s4.686-7.040 4.686-11.314c0-4.274-1.664-8.291-4.686-11.314z"></path>
<path d="M16 16.8c-0.134 0-0.267-0.034-0.389-0.101l-7.2-4c-0.386-0.214-0.525-0.701-0.31-1.088s0.701-0.525 1.088-0.31l6.784 3.768 8.398-5.344c0.373-0.237 0.867-0.128 1.104 0.245s0.128 0.867-0.245 1.104l-8.8 5.6c-0.131 0.083-0.28 0.125-0.429 0.125z"></path>
</svg>
