<?xml version="1.0" encoding="utf-8"?>
<!-- Generated by IcoMoon.io -->
<!DOCTYPE svg PUBLIC "-//W3C//DTD SVG 1.1//EN" "http://www.w3.org/Graphics/SVG/1.1/DTD/svg11.dtd">
<svg version="1.1" xmlns="http://www.w3.org/2000/svg" xmlns:xlink="http://www.w3.org/1999/xlink" width="32" height="32" viewBox="0 0 32 32">
<path d="M31.794 19.464l-14.126-15.613c-0.438-0.485-1.030-0.752-1.667-0.752 0 0 0 0 0 0-0.635 0-1.227 0.267-1.667 0.752l-14.126 15.613c-0.296 0.328-0.27 0.834 0.056 1.13 0.154 0.139 0.346 0.206 0.536 0.206 0.218 0 0.435-0.088 0.594-0.264l3.406-3.765v12.829c0 1.323 1.077 2.4 2.4 2.4h17.6c1.323 0 2.4-1.077 2.4-2.4v-12.829l3.406 3.765c0.296 0.328 0.802 0.354 1.13 0.056s0.354-0.802 0.056-1.13zM19.2 30.4h-6.4v-7.2c0-0.442 0.358-0.8 0.8-0.8h4.8c0.442 0 0.8 0.358 0.8 0.8v7.2zM25.6 29.6c0 0.442-0.358 0.8-0.8 0.8h-4v-7.2c0-1.323-1.077-2.4-2.4-2.4h-4.8c-1.323 0-2.4 1.077-2.4 2.4v7.2h-4c-0.442 0-0.8-0.358-0.8-0.8v-14.597l9.12-10.080c0.131-0.146 0.302-0.226 0.48-0.226s0.349 0.080 0.48 0.226l9.12 10.080v14.597z"></path>
</svg>
