<?xml version="1.0" encoding="utf-8"?>
<!-- Generated by IcoMoon.io -->
<!DOCTYPE svg PUBLIC "-//W3C//DTD SVG 1.1//EN" "http://www.w3.org/Graphics/SVG/1.1/DTD/svg11.dtd">
<svg version="1.1" xmlns="http://www.w3.org/2000/svg" xmlns:xlink="http://www.w3.org/1999/xlink" width="32" height="32" viewBox="0 0 32 32">
<path d="M25.6 5.6v-0.8c0-0.627-0.386-1.173-1.147-1.622-0.55-0.325-1.314-0.611-2.27-0.85-1.875-0.469-4.355-0.726-6.982-0.726s-5.107 0.258-6.982 0.726c-0.957 0.238-1.72 0.525-2.27 0.85-0.762 0.45-1.147 0.995-1.147 1.622v0.8c0 4.21 2.549 7.998 6.4 9.603v3.195c-3.851 1.605-6.4 5.394-6.4 9.603v0.8c0 0.627 0.386 1.173 1.147 1.622 0.55 0.325 1.314 0.611 2.27 0.85 1.875 0.469 4.355 0.726 6.982 0.726s5.107-0.258 6.982-0.726c0.957-0.238 1.72-0.525 2.27-0.85 0.762-0.45 1.147-0.997 1.147-1.622v-0.8c0-4.21-2.549-7.998-6.4-9.603v-3.195c3.851-1.605 6.4-5.394 6.4-9.603zM8.979 3.79c1.706-0.381 3.915-0.59 6.221-0.59s4.517 0.21 6.221 0.59c1.84 0.411 2.397 0.854 2.542 1.010-0.146 0.155-0.702 0.598-2.542 1.010-1.706 0.381-3.915 0.59-6.221 0.59s-4.517-0.21-6.221-0.59c-1.84-0.411-2.397-0.854-2.542-1.010 0.146-0.155 0.702-0.598 2.542-1.010zM18.133 19.701c3.509 1.24 5.867 4.576 5.867 8.299v0.757c-0.067 0.091-0.518 0.592-2.579 1.051-1.706 0.381-3.915 0.59-6.221 0.59s-4.517-0.21-6.221-0.59c-2.059-0.461-2.512-0.96-2.579-1.051v-0.757c0-3.723 2.357-7.059 5.867-8.299 0.32-0.114 0.533-0.414 0.533-0.754v-4.293c0-0.339-0.214-0.642-0.533-0.754-3.162-1.118-5.389-3.938-5.798-7.21 0.48 0.216 1.066 0.411 1.749 0.582 1.875 0.469 4.355 0.726 6.982 0.726s5.107-0.258 6.982-0.726c0.685-0.171 1.27-0.366 1.749-0.582-0.41 3.272-2.635 6.091-5.798 7.21-0.32 0.114-0.533 0.416-0.533 0.754v4.293c0 0.339 0.214 0.642 0.533 0.754z"></path>
<path d="M21.867 26.446c-3.619-1.278-5.867-4.362-5.867-8.046v-4.84c0.96-0.094 1.885-0.36 2.757-0.792 0.395-0.197 0.557-0.677 0.36-1.072s-0.677-0.557-1.072-0.36c-0.888 0.442-1.845 0.666-2.845 0.666s-1.957-0.224-2.845-0.666c-0.395-0.197-0.875-0.035-1.072 0.36s-0.035 0.875 0.36 1.072c0.872 0.434 1.795 0.698 2.757 0.792v4.84c0 3.683-2.248 6.766-5.867 8.046-0.336 0.118-0.554 0.446-0.531 0.802s0.275 0.654 0.624 0.733c1.571 0.352 3.963 0.819 6.574 0.819s5.003-0.467 6.574-0.819c0.349-0.078 0.603-0.378 0.624-0.733s-0.195-0.683-0.531-0.802zM15.2 27.2c-1.403 0-2.722-0.139-3.899-0.328 1.064-0.674 1.99-1.523 2.738-2.52 0.469-0.626 0.858-1.299 1.162-2.006 0.304 0.707 0.693 1.381 1.162 2.006 0.746 0.995 1.672 1.845 2.738 2.52-1.178 0.187-2.496 0.328-3.899 0.328z"></path>
</svg>
