<?xml version="1.0" encoding="utf-8"?>
<!-- Generated by IcoMoon.io -->
<!DOCTYPE svg PUBLIC "-//W3C//DTD SVG 1.1//EN" "http://www.w3.org/Graphics/SVG/1.1/DTD/svg11.dtd">
<svg version="1.1" xmlns="http://www.w3.org/2000/svg" xmlns:xlink="http://www.w3.org/1999/xlink" width="32" height="32" viewBox="0 0 32 32">
<path d="M31.291 16.613l-4.317-9.869c-0.477-1.091-1.784-1.946-2.974-1.946h-16c-1.19 0-2.498 0.854-2.974 1.946l-4.317 9.869c-0.397 0.909-0.709 2.395-0.709 3.387v6.4c0 1.323 1.077 2.4 2.4 2.4h27.2c1.323 0 2.4-1.077 2.4-2.4v-6.4c0-0.99-0.31-2.478-0.709-3.387zM6.491 7.387c0.226-0.517 0.946-0.987 1.509-0.987h16c0.563 0 1.283 0.47 1.509 0.987l4.317 9.869c0.048 0.11 0.096 0.237 0.142 0.373-0.12-0.019-0.243-0.029-0.368-0.029h-9.6c-0.442 0-0.8 0.358-0.8 0.8v0.8c0 1.765-1.435 3.2-3.2 3.2s-3.2-1.435-3.2-3.2v-0.8c0-0.442-0.358-0.8-0.8-0.8h-9.6c-0.125 0-0.248 0.010-0.368 0.029 0.046-0.136 0.093-0.262 0.142-0.373l4.317-9.869zM30.4 26.4c0 0.442-0.358 0.8-0.8 0.8h-27.2c-0.442 0-0.8-0.358-0.8-0.8v-6.4c0-0.442 0.358-0.8 0.8-0.8h8.8c0 2.646 2.154 4.8 4.8 4.8s4.8-2.154 4.8-4.8h8.8c0.442 0 0.8 0.358 0.8 0.8v6.4z"></path>
</svg>
