<?xml version="1.0" encoding="utf-8"?>
<!-- Generated by IcoMoon.io -->
<!DOCTYPE svg PUBLIC "-//W3C//DTD SVG 1.1//EN" "http://www.w3.org/Graphics/SVG/1.1/DTD/svg11.dtd">
<svg version="1.1" xmlns="http://www.w3.org/2000/svg" xmlns:xlink="http://www.w3.org/1999/xlink" width="32" height="32" viewBox="0 0 32 32">
<path d="M28 8h-24c-0.442 0-0.8-0.358-0.8-0.8s0.358-0.8 0.8-0.8h24c0.442 0 0.8 0.358 0.8 0.8s-0.358 0.8-0.8 0.8z"></path>
<path d="M28 12.8h-12.8c-0.442 0-0.8-0.358-0.8-0.8s0.358-0.8 0.8-0.8h12.8c0.442 0 0.8 0.358 0.8 0.8s-0.358 0.8-0.8 0.8z"></path>
<path d="M28 17.6h-12.8c-0.442 0-0.8-0.358-0.8-0.8s0.358-0.8 0.8-0.8h12.8c0.442 0 0.8 0.358 0.8 0.8s-0.358 0.8-0.8 0.8z"></path>
<path d="M28 22.4h-12.8c-0.442 0-0.8-0.358-0.8-0.8s0.358-0.8 0.8-0.8h12.8c0.442 0 0.8 0.358 0.8 0.8s-0.358 0.8-0.8 0.8z"></path>
<path d="M28 27.2h-24c-0.442 0-0.8-0.358-0.8-0.8s0.358-0.8 0.8-0.8h24c0.442 0 0.8 0.358 0.8 0.8s-0.358 0.8-0.8 0.8z"></path>
<path d="M4 22.4c-0.122 0-0.245-0.027-0.358-0.085-0.27-0.136-0.442-0.413-0.442-0.715v-9.6c0-0.302 0.171-0.581 0.442-0.715s0.595-0.106 0.838 0.075l6.4 4.8c0.202 0.15 0.32 0.389 0.32 0.64s-0.118 0.49-0.32 0.64l-6.4 4.8c-0.141 0.106-0.31 0.16-0.48 0.16zM4.8 13.6v6.4l4.267-3.2-4.267-3.2z"></path>
</svg>
