<?xml version="1.0" encoding="utf-8"?>
<!-- Generated by IcoMoon.io -->
<!DOCTYPE svg PUBLIC "-//W3C//DTD SVG 1.1//EN" "http://www.w3.org/Graphics/SVG/1.1/DTD/svg11.dtd">
<svg version="1.1" xmlns="http://www.w3.org/2000/svg" xmlns:xlink="http://www.w3.org/1999/xlink" width="32" height="32" viewBox="0 0 32 32">
<path d="M16.063 19.959v0c-0.406 0-0.715-0.276-0.735-0.615l-0.717-12.28c-0.020-0.339 1.046-0.615 1.451-0.615v0c0.406 0 1.372 0.276 1.355 0.615l-0.62 12.28c-0.017 0.339-0.329 0.615-0.735 0.615z"></path>
<path d="M17.557 24.283c0 0.841-0.682 1.523-1.523 1.523s-1.523-0.682-1.523-1.523c0-0.841 0.682-1.523 1.523-1.523s1.523 0.682 1.523 1.523z"></path>
<path d="M16 1.955c-7.846 0-14.2 6.354-14.2 14.2s6.354 14.25 14.2 14.25c7.846 0 14.25-6.404 14.25-14.25s-6.404-14.2-14.25-14.2zM16 3.555c6.981 0 12.65 5.619 12.65 12.6s-5.669 12.65-12.65 12.65c-6.981 0-12.6-5.669-12.6-12.65s5.619-12.6 12.6-12.6z"></path>
</svg>
