<?xml version="1.0" encoding="UTF-8" standalone="no"?>
<!-- Generated by IcoMoon.io -->

<svg
   xmlns:dc="http://purl.org/dc/elements/1.1/"
   xmlns:cc="http://creativecommons.org/ns#"
   xmlns:rdf="http://www.w3.org/1999/02/22-rdf-syntax-ns#"
   xmlns:svg="http://www.w3.org/2000/svg"
   xmlns="http://www.w3.org/2000/svg"
   xmlns:sodipodi="http://sodipodi.sourceforge.net/DTD/sodipodi-0.dtd"
   xmlns:inkscape="http://www.inkscape.org/namespaces/inkscape"
   version="1.1"
   width="20"
   height="20"
   viewBox="0 0 20 20"
   id="svg2"
   inkscape:version="0.48.4 r9939"
   sodipodi:docname="info.svg">
  <metadata
     id="metadata14">
    <rdf:RDF>
      <cc:Work
         rdf:about="">
        <dc:format>image/svg+xml</dc:format>
        <dc:type
           rdf:resource="http://purl.org/dc/dcmitype/StillImage" />
        <dc:title></dc:title>
      </cc:Work>
    </rdf:RDF>
  </metadata>
  <defs
     id="defs12" />
  <sodipodi:namedview
     pagecolor="#ffffff"
     bordercolor="#666666"
     borderopacity="1"
     objecttolerance="10"
     gridtolerance="10"
     guidetolerance="10"
     inkscape:pageopacity="0"
     inkscape:pageshadow="2"
     inkscape:window-width="1280"
     inkscape:window-height="748"
     id="namedview10"
     showgrid="false"
     inkscape:zoom="16.68772"
     inkscape:cx="18.672204"
     inkscape:cy="12.364185"
     inkscape:window-x="0"
     inkscape:window-y="0"
     inkscape:window-maximized="1"
     inkscape:current-layer="svg2" />
  <path
     d="m 10.05186,16.839715 c 0,0 0,0 0,0 -0.2854236,0 -0.5170719,-0.231648 -0.5170719,-0.517072 v -1.034144 c 0,-0.285424 0.2316483,-0.517072 0.5170719,-0.517072 0,0 0,0 0,0 0.285424,0 0.517072,0.231648 0.517072,0.517072 v 1.034144 c 0,0.285424 -0.231648,0.517072 -0.517072,0.517072 z"
     id="path8"
     inkscape:connector-curvature="0"
     style="fill:#000000" />
  <path
     style="fill:#000000"
     inkscape:connector-curvature="0"
     d="m 10.041728,13.734791 0,0 c -0.2854237,0 -0.5031568,-0.231987 -0.517072,-0.517072 L 9.0204491,2.8879098 C 9.0065339,2.6028254 9.7563043,2.3708377 10.041728,2.3708377 l 0,0 c 0.285424,0 0.965345,0.2319025 0.953303,0.5170721 L 10.558805,13.217719 c -0.01204,0.28517 -0.231648,0.517072 -0.517077,0.517072 z"
     id="path8-3"
     sodipodi:nodetypes="ccssccssc" />
  <path
     sodipodi:type="arc"
     style="fill:#000000;fill-opacity:1;stroke:none"
     id="path3013"
     sodipodi:cx="10.127119"
     sodipodi:cy="15.783898"
     sodipodi:rx="1.0364046"
     sodipodi:ry="1.0364046"
     d="m 11.163524,15.783898 a 1.0364046,1.0364046 0 1 1 -2.0728095,0 1.0364046,1.0364046 0 1 1 2.0728095,0 z"
     transform="matrix(1.0341442,0,0,1.0341442,-0.45171488,-0.50411061)" />
</svg>
