<?xml version="1.0" encoding="utf-8"?>
<!-- Generated by IcoMoon.io -->
<!DOCTYPE svg PUBLIC "-//W3C//DTD SVG 1.1//EN" "http://www.w3.org/Graphics/SVG/1.1/DTD/svg11.dtd">
<svg version="1.1" xmlns="http://www.w3.org/2000/svg" xmlns:xlink="http://www.w3.org/1999/xlink" width="32" height="32" viewBox="0 0 32 32">
<path d="M24.8 3.2h-6.402c-0.002 0-0.005 0-0.006 0h-6.392c-0.442 0-0.8 0.358-0.8 0.8s0.358 0.8 0.8 0.8h5.424l-4.48 22.4h-5.744c-0.442 0-0.8 0.358-0.8 0.8s0.358 0.8 0.8 0.8h6.398c0.002 0 0.002 0 0.003 0s0.002 0 0.003 0h6.395c0.442 0 0.8-0.358 0.8-0.8s-0.358-0.8-0.8-0.8h-5.424l4.48-22.4h5.744c0.442 0 0.8-0.358 0.8-0.8s-0.358-0.8-0.8-0.8z"></path>
</svg>
