<?xml version="1.0" encoding="utf-8"?>
<!-- Generated by IcoMoon.io -->
<!DOCTYPE svg PUBLIC "-//W3C//DTD SVG 1.1//EN" "http://www.w3.org/Graphics/SVG/1.1/DTD/svg11.dtd">
<svg version="1.1" xmlns="http://www.w3.org/2000/svg" xmlns:xlink="http://www.w3.org/1999/xlink" width="32" height="32" viewBox="0 0 32 32">
<path d="M28 25.6h-25.6c-1.323 0-2.4-1.077-2.4-2.4v-12.8c0-1.323 1.077-2.4 2.4-2.4h25.6c1.323 0 2.4 1.077 2.4 2.4v12.8c0 1.323-1.077 2.4-2.4 2.4zM2.4 9.6c-0.442 0-0.8 0.358-0.8 0.8v12.8c0 0.442 0.358 0.8 0.8 0.8h25.6c0.442 0 0.8-0.358 0.8-0.8v-12.8c0-0.442-0.358-0.8-0.8-0.8h-25.6z"></path>
<path d="M5.6 12.8h-1.6c-0.442 0-0.8-0.358-0.8-0.8s0.358-0.8 0.8-0.8h1.6c0.442 0 0.8 0.358 0.8 0.8s-0.358 0.8-0.8 0.8z"></path>
<path d="M26.4 12.8h-1.6c-0.442 0-0.8-0.358-0.8-0.8s0.358-0.8 0.8-0.8h1.6c0.442 0 0.8 0.358 0.8 0.8s-0.358 0.8-0.8 0.8z"></path>
<path d="M7.2 16h-3.2c-0.442 0-0.8-0.358-0.8-0.8s0.358-0.8 0.8-0.8h3.2c0.442 0 0.8 0.358 0.8 0.8s-0.358 0.8-0.8 0.8z"></path>
<path d="M5.6 22.4h-1.6c-0.442 0-0.8-0.358-0.8-0.8s0.358-0.8 0.8-0.8h1.6c0.442 0 0.8 0.358 0.8 0.8s-0.358 0.8-0.8 0.8z"></path>
<path d="M18.4 22.4h-9.6c-0.442 0-0.8-0.358-0.8-0.8s0.358-0.8 0.8-0.8h9.6c0.442 0 0.8 0.358 0.8 0.8s-0.358 0.8-0.8 0.8z"></path>
<path d="M23.2 22.4h-1.6c-0.442 0-0.8-0.358-0.8-0.8s0.358-0.8 0.8-0.8h1.6c0.442 0 0.8 0.358 0.8 0.8s-0.358 0.8-0.8 0.8z"></path>
<path d="M26.4 19.2h-4.8c-0.442 0-0.8-0.358-0.8-0.8s0.358-0.8 0.8-0.8h4v-2.4c0-0.442 0.358-0.8 0.8-0.8s0.8 0.358 0.8 0.8v3.2c0 0.442-0.358 0.8-0.8 0.8z"></path>
<path d="M8.8 19.2h-4.8c-0.442 0-0.8-0.358-0.8-0.8s0.358-0.8 0.8-0.8h4.8c0.442 0 0.8 0.358 0.8 0.8s-0.358 0.8-0.8 0.8z"></path>
<path d="M9.6 12c0 0.442-0.358 0.8-0.8 0.8s-0.8-0.358-0.8-0.8c0-0.442 0.358-0.8 0.8-0.8s0.8 0.358 0.8 0.8z"></path>
<path d="M12.8 12c0 0.442-0.358 0.8-0.8 0.8s-0.8-0.358-0.8-0.8c0-0.442 0.358-0.8 0.8-0.8s0.8 0.358 0.8 0.8z"></path>
<path d="M16 12c0 0.442-0.358 0.8-0.8 0.8s-0.8-0.358-0.8-0.8c0-0.442 0.358-0.8 0.8-0.8s0.8 0.358 0.8 0.8z"></path>
<path d="M19.2 12c0 0.442-0.358 0.8-0.8 0.8s-0.8-0.358-0.8-0.8c0-0.442 0.358-0.8 0.8-0.8s0.8 0.358 0.8 0.8z"></path>
<path d="M22.4 12c0 0.442-0.358 0.8-0.8 0.8s-0.8-0.358-0.8-0.8c0-0.442 0.358-0.8 0.8-0.8s0.8 0.358 0.8 0.8z"></path>
<path d="M11.2 15.2c0 0.442-0.358 0.8-0.8 0.8s-0.8-0.358-0.8-0.8c0-0.442 0.358-0.8 0.8-0.8s0.8 0.358 0.8 0.8z"></path>
<path d="M14.4 15.2c0 0.442-0.358 0.8-0.8 0.8s-0.8-0.358-0.8-0.8c0-0.442 0.358-0.8 0.8-0.8s0.8 0.358 0.8 0.8z"></path>
<path d="M17.6 15.2c0 0.442-0.358 0.8-0.8 0.8s-0.8-0.358-0.8-0.8c0-0.442 0.358-0.8 0.8-0.8s0.8 0.358 0.8 0.8z"></path>
<path d="M20.8 15.2c0 0.442-0.358 0.8-0.8 0.8s-0.8-0.358-0.8-0.8c0-0.442 0.358-0.8 0.8-0.8s0.8 0.358 0.8 0.8z"></path>
<path d="M24 15.2c0 0.442-0.358 0.8-0.8 0.8s-0.8-0.358-0.8-0.8c0-0.442 0.358-0.8 0.8-0.8s0.8 0.358 0.8 0.8z"></path>
<path d="M12.8 18.4c0 0.442-0.358 0.8-0.8 0.8s-0.8-0.358-0.8-0.8c0-0.442 0.358-0.8 0.8-0.8s0.8 0.358 0.8 0.8z"></path>
<path d="M16 18.4c0 0.442-0.358 0.8-0.8 0.8s-0.8-0.358-0.8-0.8c0-0.442 0.358-0.8 0.8-0.8s0.8 0.358 0.8 0.8z"></path>
<path d="M19.2 18.4c0 0.442-0.358 0.8-0.8 0.8s-0.8-0.358-0.8-0.8c0-0.442 0.358-0.8 0.8-0.8s0.8 0.358 0.8 0.8z"></path>
</svg>
