<?xml version="1.0" encoding="utf-8"?>
<!-- Generated by IcoMoon.io -->
<!DOCTYPE svg PUBLIC "-//W3C//DTD SVG 1.1//EN" "http://www.w3.org/Graphics/SVG/1.1/DTD/svg11.dtd">
<svg version="1.1" xmlns="http://www.w3.org/2000/svg" xmlns:xlink="http://www.w3.org/1999/xlink" width="32" height="32" viewBox="0 0 32 32">
<path d="M18.4 22.4h-12.8c-1.323 0-2.4-1.077-2.4-2.4v-12.8c0-1.323 1.077-2.4 2.4-2.4h20.8c1.323 0 2.4 1.077 2.4 2.4v1.6c0 0.442-0.358 0.8-0.8 0.8s-0.8-0.358-0.8-0.8v-1.6c0-0.442-0.358-0.8-0.8-0.8h-20.8c-0.442 0-0.8 0.358-0.8 0.8v12.8c0 0.442 0.358 0.8 0.8 0.8h12.8c0.442 0 0.8 0.358 0.8 0.8s-0.358 0.8-0.8 0.8z"></path>
<path d="M18.4 28.8h-16c-1.323 0-2.4-1.077-2.4-2.4v-1.6c0-0.442 0.358-0.8 0.8-0.8h17.6c0.442 0 0.8 0.358 0.8 0.8s-0.358 0.8-0.8 0.8h-16.8v0.8c0 0.442 0.358 0.8 0.8 0.8h16c0.442 0 0.8 0.358 0.8 0.8s-0.358 0.8-0.8 0.8z"></path>
<path d="M29.6 28.8h-6.4c-1.323 0-2.4-1.077-2.4-2.4v-12.8c0-1.323 1.077-2.4 2.4-2.4h6.4c1.323 0 2.4 1.077 2.4 2.4v12.8c0 1.323-1.077 2.4-2.4 2.4zM23.2 12.8c-0.442 0-0.8 0.358-0.8 0.8v12.8c0 0.442 0.358 0.8 0.8 0.8h6.4c0.442 0 0.8-0.358 0.8-0.8v-12.8c0-0.442-0.358-0.8-0.8-0.8h-6.4z"></path>
<path d="M26.4 25.6c-0.211 0-0.416-0.085-0.565-0.235s-0.235-0.355-0.235-0.565 0.085-0.418 0.235-0.565c0.149-0.149 0.355-0.235 0.565-0.235s0.418 0.085 0.565 0.235c0.149 0.149 0.235 0.355 0.235 0.565s-0.085 0.418-0.235 0.565c-0.149 0.149-0.355 0.235-0.565 0.235z"></path>
</svg>
