<?xml version="1.0" encoding="utf-8"?>
<!-- Generated by IcoMoon.io -->
<!DOCTYPE svg PUBLIC "-//W3C//DTD SVG 1.1//EN" "http://www.w3.org/Graphics/SVG/1.1/DTD/svg11.dtd">
<svg version="1.1" xmlns="http://www.w3.org/2000/svg" xmlns:xlink="http://www.w3.org/1999/xlink" width="32" height="32" viewBox="0 0 32 32">
<path d="M5.6 22.4h20.8c1.323 0 2.4-1.077 2.4-2.4v-12.8c0-1.323-1.077-2.4-2.4-2.4h-20.8c-1.323 0-2.4 1.077-2.4 2.4v12.8c0 1.323 1.077 2.4 2.4 2.4zM4.8 7.2c0-0.442 0.358-0.8 0.8-0.8h20.8c0.442 0 0.8 0.358 0.8 0.8v12.8c0 0.442-0.358 0.8-0.8 0.8h-20.8c-0.442 0-0.8-0.358-0.8-0.8v-12.8z"></path>
<path d="M31.2 24h-30.4c-0.442 0-0.8 0.358-0.8 0.8v1.6c0 1.323 1.077 2.4 2.4 2.4h27.2c1.323 0 2.4-1.077 2.4-2.4v-1.6c0-0.442-0.358-0.8-0.8-0.8zM29.6 27.2h-27.2c-0.442 0-0.8-0.358-0.8-0.8v-0.8h28.8v0.8c0 0.442-0.358 0.8-0.8 0.8z"></path>
</svg>
