<?xml version="1.0" encoding="utf-8"?>
<!-- Generated by IcoMoon.io -->
<!DOCTYPE svg PUBLIC "-//W3C//DTD SVG 1.1//EN" "http://www.w3.org/Graphics/SVG/1.1/DTD/svg11.dtd">
<svg version="1.1" xmlns="http://www.w3.org/2000/svg" xmlns:xlink="http://www.w3.org/1999/xlink" width="32" height="32" viewBox="0 0 32 32">
<path d="M16 19.2c-0.106 0-0.211-0.021-0.31-0.062l-15.2-6.4c-0.296-0.125-0.49-0.416-0.49-0.738s0.194-0.613 0.49-0.738l15.2-6.4c0.198-0.083 0.422-0.083 0.621 0l15.2 6.4c0.296 0.125 0.49 0.416 0.49 0.738s-0.194 0.613-0.49 0.738l-15.2 6.4c-0.099 0.042-0.205 0.062-0.31 0.062zM2.861 12l13.139 5.531 13.139-5.531-13.139-5.531-13.139 5.531z"></path>
<path d="M16 24c-0.106 0-0.211-0.021-0.31-0.062l-15.2-6.4c-0.406-0.171-0.598-0.64-0.427-1.048s0.64-0.598 1.048-0.427l14.89 6.269 14.89-6.269c0.406-0.171 0.877 0.019 1.048 0.427s-0.019 0.877-0.427 1.048l-15.2 6.4c-0.099 0.042-0.205 0.062-0.31 0.062z"></path>
<path d="M16 28.8c-0.106 0-0.211-0.021-0.31-0.062l-15.2-6.4c-0.406-0.171-0.598-0.64-0.427-1.048s0.64-0.598 1.048-0.427l14.89 6.269 14.89-6.269c0.406-0.171 0.877 0.019 1.048 0.427s-0.019 0.877-0.427 1.048l-15.2 6.4c-0.099 0.042-0.205 0.062-0.31 0.062z"></path>
</svg>
