<?xml version="1.0" encoding="utf-8"?>
<!-- Generated by IcoMoon.io -->
<!DOCTYPE svg PUBLIC "-//W3C//DTD SVG 1.1//EN" "http://www.w3.org/Graphics/SVG/1.1/DTD/svg11.dtd">
<svg version="1.1" xmlns="http://www.w3.org/2000/svg" xmlns:xlink="http://www.w3.org/1999/xlink" width="32" height="32" viewBox="0 0 32 32">
<path d="M31.813 0.285c-0.152-0.181-0.376-0.285-0.611-0.285h-0.816c-8.064-0.003-14.434-0.005-19.123 1.117-2.52 0.603-4.469 1.514-5.957 2.782-1.606 1.37-2.701 3.163-3.349 5.486-0.43 1.542-0.632 4.328 0.218 7.099 0.314 1.024 0.803 1.99 1.456 2.878-1.946 3.048-3.627 7.062-3.627 11.838 0 0.442 0.358 0.8 0.8 0.8s0.8-0.358 0.8-0.8c0-7.368 4.365-12.834 6.966-15.434 1.867-1.867 3.978-3.443 6.106-4.557 1.981-1.037 3.874-1.608 5.33-1.608 0.442 0 0.8-0.358 0.8-0.8s-0.358-0.8-0.8-0.8c-1.734 0-3.834 0.619-6.070 1.792-2.269 1.189-4.515 2.862-6.494 4.843-0.835 0.835-1.84 1.949-2.838 3.312-0.387-0.61-0.688-1.256-0.894-1.931-0.8-2.611-0.506-5.126-0.206-6.2 2.288-8.2 10.979-8.221 26.747-8.216-1.88 10.061-5.386 16.573-10.426 19.362-4.675 2.587-9.312 1.176-11.090 0.448-0.374-0.154-0.752-0.342-1.118-0.56-0.379-0.226-0.87-0.101-1.096 0.278s-0.101 0.87 0.278 1.096c0.435 0.259 0.883 0.483 1.331 0.667 0.995 0.406 2.598 0.928 4.584 1.099 0.438 0.038 0.872 0.056 1.302 0.056 2.35 0 4.558-0.565 6.584-1.685 2.574-1.424 4.802-3.742 6.622-6.886 2.134-3.688 3.741-8.579 4.773-14.538 0.040-0.232-0.024-0.47-0.176-0.651z"></path>
</svg>
