<?xml version="1.0" encoding="utf-8"?>
<!-- Generated by IcoMoon.io -->
<!DOCTYPE svg PUBLIC "-//W3C//DTD SVG 1.1//EN" "http://www.w3.org/Graphics/SVG/1.1/DTD/svg11.dtd">
<svg version="1.1" xmlns="http://www.w3.org/2000/svg" xmlns:xlink="http://www.w3.org/1999/xlink" width="32" height="32" viewBox="0 0 32 32">
<path d="M29.6 28.8h-27.2c-1.323 0-2.4-1.077-2.4-2.4v-20.8c0-1.323 1.077-2.4 2.4-2.4h27.2c1.323 0 2.4 1.077 2.4 2.4v20.8c0 1.323-1.077 2.4-2.4 2.4zM2.4 4.8c-0.442 0-0.8 0.358-0.8 0.8v20.8c0 0.442 0.358 0.8 0.8 0.8h27.2c0.442 0 0.8-0.358 0.8-0.8v-20.8c0-0.442-0.358-0.8-0.8-0.8h-27.2z"></path>
<path d="M15.2 9.6h-9.6c-0.442 0-0.8-0.358-0.8-0.8s0.358-0.8 0.8-0.8h9.6c0.442 0 0.8 0.358 0.8 0.8s-0.358 0.8-0.8 0.8z"></path>
<path d="M15.2 14.4h-9.6c-0.442 0-0.8-0.358-0.8-0.8s0.358-0.8 0.8-0.8h9.6c0.442 0 0.8 0.358 0.8 0.8s-0.358 0.8-0.8 0.8z"></path>
<path d="M15.2 17.6h-9.6c-0.442 0-0.8-0.358-0.8-0.8s0.358-0.8 0.8-0.8h9.6c0.442 0 0.8 0.358 0.8 0.8s-0.358 0.8-0.8 0.8z"></path>
<path d="M15.2 20.8h-9.6c-0.442 0-0.8-0.358-0.8-0.8s0.358-0.8 0.8-0.8h9.6c0.442 0 0.8 0.358 0.8 0.8s-0.358 0.8-0.8 0.8z"></path>
<path d="M13.6 24h-8c-0.442 0-0.8-0.358-0.8-0.8s0.358-0.8 0.8-0.8h8c0.442 0 0.8 0.358 0.8 0.8s-0.358 0.8-0.8 0.8z"></path>
<path d="M28.709 10.47l-1.301-0.946-0.498-1.53h-1.608l-1.301-0.946-1.301 0.946h-1.608l-0.498 1.53-1.301 0.946 0.498 1.53-0.498 1.53 1.301 0.946 0.211 0.65c-0.003 0.026-0.003 0.050-0.003 0.075v8c0 0.323 0.195 0.616 0.494 0.739s0.643 0.056 0.872-0.173l1.834-1.834 1.834 1.834c0.154 0.154 0.357 0.235 0.566 0.234 0.102 0 0.206-0.019 0.306-0.061 0.299-0.123 0.494-0.416 0.494-0.739v-8c0-0.026-0.002-0.051-0.003-0.075l0.211-0.65 1.301-0.946-0.498-1.53 0.498-1.53zM21.173 11.082l0.781-0.568 0.299-0.918h0.966l0.781-0.568 0.781 0.568h0.966l0.299 0.918 0.781 0.568-0.299 0.918 0.299 0.918-0.781 0.568-0.299 0.918h-0.966l-0.781 0.568-0.781-0.568h-0.966l-0.299-0.918-0.781-0.568 0.299-0.918-0.299-0.918zM24.566 20.234c-0.312-0.312-0.819-0.312-1.131 0l-1.034 1.034v-5.264h0.299l1.301 0.946 1.301-0.946h0.299v5.264l-1.034-1.034z"></path>
</svg>
