<?xml version="1.0" encoding="utf-8"?>
<!-- Generated by IcoMoon.io -->
<!DOCTYPE svg PUBLIC "-//W3C//DTD SVG 1.1//EN" "http://www.w3.org/Graphics/SVG/1.1/DTD/svg11.dtd">
<svg version="1.1" xmlns="http://www.w3.org/2000/svg" xmlns:xlink="http://www.w3.org/1999/xlink" width="32" height="32" viewBox="0 0 32 32">
<path d="M28 14.4h-1.104l-1.368-2.755c-0.134-0.272-0.413-0.445-0.717-0.445h-6.411c-0.442 0-0.8 0.358-0.8 0.8v2.4h-1.938l-6.17-10.685c-0.221-0.382-0.71-0.514-1.093-0.293l-5.542 3.2c-0.382 0.221-0.514 0.71-0.293 1.093l6.4 11.085c0.149 0.256 0.418 0.4 0.693 0.4 0.136 0 0.274-0.035 0.4-0.107l4.342-2.507v13.014c0 0.442 0.358 0.8 0.8 0.8h12.8c0.442 0 0.8-0.358 0.8-0.8v-14.4c0-0.442-0.358-0.8-0.8-0.8zM27.2 24h-1.6v-4.8h1.6v4.8zM19.2 12.8h5.115l0.795 1.6h-5.91v-1.6zM9.95 17.307l-5.6-9.699 4.157-2.4 5.6 9.699-4.157 2.4zM16 28.8v-12.8h10.395c0.002 0 0.003 0 0.006 0s0.002 0 0.003 0h0.795v1.6h-2.4c-0.442 0-0.8 0.358-0.8 0.8v6.4c0 0.442 0.358 0.8 0.8 0.8h2.4v3.2h-11.2z"></path>
<path d="M24.8 9.6c-1.2 0-1.784-0.566-2.062-1.043-0.53-0.904-0.44-2.269 0.27-4.17 0.478-1.278 1.069-2.334 1.094-2.379 0.142-0.251 0.408-0.408 0.698-0.408s0.555 0.155 0.698 0.408c0.026 0.045 0.616 1.101 1.094 2.379 0.71 1.902 0.8 3.266 0.27 4.17-0.278 0.475-0.862 1.043-2.062 1.043zM24.8 4.224c-0.101 0.234-0.203 0.483-0.299 0.741-0.725 1.949-0.475 2.624-0.381 2.786 0.040 0.069 0.147 0.25 0.68 0.25s0.642-0.182 0.682-0.25c0.094-0.162 0.346-0.84-0.389-2.802-0.094-0.253-0.194-0.496-0.293-0.725z"></path>
</svg>
