<?xml version="1.0" encoding="utf-8"?>
<!-- Generated by IcoMoon.io -->
<!DOCTYPE svg PUBLIC "-//W3C//DTD SVG 1.1//EN" "http://www.w3.org/Graphics/SVG/1.1/DTD/svg11.dtd">
<svg version="1.1" xmlns="http://www.w3.org/2000/svg" xmlns:xlink="http://www.w3.org/1999/xlink" width="32" height="32" viewBox="0 0 32 32">
<path d="M29.6 8h-16c-0.442 0-0.8-0.358-0.8-0.8s0.358-0.8 0.8-0.8h16c0.442 0 0.8 0.358 0.8 0.8s-0.358 0.8-0.8 0.8z"></path>
<path d="M29.6 14.4h-16c-0.442 0-0.8-0.358-0.8-0.8s0.358-0.8 0.8-0.8h16c0.442 0 0.8 0.358 0.8 0.8s-0.358 0.8-0.8 0.8z"></path>
<path d="M29.6 20.8h-16c-0.442 0-0.8-0.358-0.8-0.8s0.358-0.8 0.8-0.8h16c0.442 0 0.8 0.358 0.8 0.8s-0.358 0.8-0.8 0.8z"></path>
<path d="M29.6 27.2h-16c-0.442 0-0.8-0.358-0.8-0.8s0.358-0.8 0.8-0.8h16c0.442 0 0.8 0.358 0.8 0.8s-0.358 0.8-0.8 0.8z"></path>
<path d="M8.234 21.834l-1.834 1.834v-13.738l1.834 1.834c0.157 0.157 0.362 0.234 0.566 0.234s0.41-0.078 0.566-0.234c0.312-0.312 0.312-0.819 0-1.131l-3.2-3.2c-0.312-0.312-0.819-0.312-1.131 0l-3.2 3.2c-0.312 0.312-0.312 0.819 0 1.131s0.819 0.312 1.131 0l1.834-1.834v13.738l-1.834-1.834c-0.312-0.312-0.819-0.312-1.131 0s-0.312 0.819 0 1.131l3.2 3.2c0.157 0.157 0.362 0.234 0.566 0.234s0.41-0.078 0.566-0.234l3.2-3.2c0.312-0.312 0.312-0.819 0-1.131s-0.819-0.312-1.131 0z"></path>
</svg>
