<?xml version="1.0" encoding="utf-8"?>
<!-- Generated by IcoMoon.io -->
<!DOCTYPE svg PUBLIC "-//W3C//DTD SVG 1.1//EN" "http://www.w3.org/Graphics/SVG/1.1/DTD/svg11.dtd">
<svg version="1.1" xmlns="http://www.w3.org/2000/svg" xmlns:xlink="http://www.w3.org/1999/xlink" width="32" height="32" viewBox="0 0 32 32">
<path d="M31.2 25.6h-0.8c-0.926 0-1.6 1.010-1.6 2.4 0 0.442-0.358 0.8-0.8 0.8s-0.8-0.358-0.8-0.8v-1.6c0-0.442-0.358-0.8-0.8-0.8-0.221 0-0.421 0.090-0.566 0.235-0.314-0.15-0.664-0.235-1.034-0.235-1.323 0-2.4 1.077-2.4 2.4 0 0.28 0.050 0.549 0.138 0.8h-1.738c-0.65 0-1.63-0.443-2.061-0.928l-1.67-1.89 14.731-16.653c0.258-0.291 0.264-0.715 0.038-1.013l-4.798-6.397c-0.15-0.202-0.389-0.32-0.64-0.32h-20.8c-0.251 0-0.49 0.118-0.64 0.32l-4.798 6.397c-0.226 0.298-0.218 0.722 0.038 1.013l14.731 16.653-1.67 1.89c-0.462 0.523-1.272 0.928-1.661 0.928h-0.4v-0.8c0-1.323-1.077-2.4-2.4-2.4-0.451 0-0.872 0.125-1.232 0.341-0.203-0.216-0.467-0.341-0.768-0.341-0.493 0-0.859 0.389-1.123 0.728-0.243 0.312-0.494 0.718-0.707 1.146l-0.17 0.338v-1.411c0-0.442-0.358-0.8-0.8-0.8s-0.8 0.358-0.8 0.8v1.6c0 0.442-0.358 0.8-0.8 0.8s-0.8-0.358-0.8-0.8v-4.8c0-0.442-0.358-0.8-0.8-0.8s-0.8 0.358-0.8 0.8v4.8c0 1.323 1.077 2.4 2.4 2.4 0.451 0 0.872-0.125 1.232-0.342 0.203 0.216 0.467 0.342 0.768 0.342 0.493 0 0.859-0.389 1.123-0.728 0.243-0.312 0.494-0.718 0.707-1.146l0.17-0.338v1.411c0 0.442 0.358 0.8 0.8 0.8s0.8-0.358 0.8-0.8v-1.6c0-0.442 0.358-0.8 0.8-0.8s0.8 0.358 0.8 0.8v1.6c0 0.442 0.358 0.8 0.8 0.8h1.2c0.89 0 2.118-0.632 2.859-1.469l1.541-1.742 1.541 1.741c0.741 0.837 2.142 1.469 3.259 1.469h4c0.614 0 1.174-0.232 1.6-0.613 0.426 0.381 0.986 0.613 1.6 0.613 1.323 0 2.4-1.077 2.4-2.4 0-0.398 0.098-0.675 0.165-0.8h0.635c0.442 0 0.8-0.358 0.8-0.8s-0.358-0.8-0.8-0.8zM1.832 8.758l4.168-5.558h20l4.168 5.558-14.168 16.018-14.168-16.018zM24.8 28.8c-0.442 0-0.8-0.358-0.8-0.8s0.358-0.8 0.8-0.8 0.8 0.358 0.8 0.8-0.358 0.8-0.8 0.8z"></path>
<path d="M4 24c0.211 0 0.418-0.085 0.565-0.235s0.235-0.355 0.235-0.565-0.085-0.416-0.235-0.565c-0.149-0.149-0.355-0.235-0.565-0.235s-0.416 0.085-0.565 0.235c-0.149 0.149-0.235 0.355-0.235 0.565s0.085 0.418 0.235 0.565c0.149 0.149 0.355 0.235 0.565 0.235z"></path>
</svg>
