<?xml version="1.0" encoding="utf-8"?>
<!-- Generated by IcoMoon.io -->
<!DOCTYPE svg PUBLIC "-//W3C//DTD SVG 1.1//EN" "http://www.w3.org/Graphics/SVG/1.1/DTD/svg11.dtd">
<svg version="1.1" xmlns="http://www.w3.org/2000/svg" xmlns:xlink="http://www.w3.org/1999/xlink" width="32" height="32" viewBox="0 0 32 32">
<path d="M17.091 20.797c-1.509 0-3.018-0.574-4.166-1.723-0.312-0.312-0.312-0.819 0-1.131s0.819-0.312 1.131 0c1.674 1.674 4.395 1.674 6.069 0l5.818-5.818c1.674-1.674 1.674-4.395 0-6.069s-4.395-1.674-6.069 0l-4.909 4.909c-0.312 0.312-0.819 0.312-1.131 0s-0.312-0.819 0-1.131l4.909-4.909c2.298-2.298 6.035-2.298 8.331 0s2.298 6.035 0 8.331l-5.818 5.818c-1.149 1.149-2.658 1.723-4.166 1.723z"></path>
<path d="M7.491 30.397c-1.509 0-3.018-0.574-4.166-1.723-2.298-2.298-2.298-6.035 0-8.331l5.818-5.818c2.298-2.298 6.035-2.298 8.331 0 0.312 0.312 0.312 0.819 0 1.131s-0.819 0.312-1.131 0c-1.674-1.674-4.395-1.674-6.069 0l-5.818 5.818c-1.674 1.674-1.674 4.395 0 6.069s4.395 1.674 6.069 0l4.909-4.909c0.312-0.312 0.819-0.312 1.131 0s0.312 0.819 0 1.131l-4.909 4.909c-1.149 1.149-2.658 1.723-4.166 1.723z"></path>
</svg>
