<?xml version="1.0" encoding="utf-8"?>
<!-- Generated by IcoMoon.io -->
<!DOCTYPE svg PUBLIC "-//W3C//DTD SVG 1.1//EN" "http://www.w3.org/Graphics/SVG/1.1/DTD/svg11.dtd">
<svg version="1.1" xmlns="http://www.w3.org/2000/svg" xmlns:xlink="http://www.w3.org/1999/xlink" width="32" height="32" viewBox="0 0 32 32">
<path d="M13.6 32c-0.069 0-0.139-0.010-0.208-0.027-0.349-0.094-0.592-0.411-0.592-0.773v-12h-12c-0.362 0-0.678-0.243-0.773-0.592s0.059-0.718 0.371-0.899l30.4-17.6c0.314-0.181 0.71-0.13 0.966 0.126s0.309 0.653 0.126 0.966l-17.6 30.4c-0.146 0.251-0.413 0.398-0.693 0.398zM3.779 17.6h9.821c0.442 0 0.8 0.358 0.8 0.8v9.821l14.605-25.226-25.226 14.605z"></path>
</svg>
