<?xml version="1.0" encoding="utf-8"?>
<!-- Generated by IcoMoon.io -->
<!DOCTYPE svg PUBLIC "-//W3C//DTD SVG 1.1//EN" "http://www.w3.org/Graphics/SVG/1.1/DTD/svg11.dtd">
<svg version="1.1" xmlns="http://www.w3.org/2000/svg" xmlns:xlink="http://www.w3.org/1999/xlink" width="32" height="32" viewBox="0 0 32 32">
<path d="M23.2 12.8h-0.8v-2.4c0-3.97-3.23-7.2-7.2-7.2s-7.2 3.23-7.2 7.2v2.4h-0.8c-1.323 0-2.4 1.077-2.4 2.4v12.8c0 1.323 1.077 2.4 2.4 2.4h16c1.323 0 2.4-1.077 2.4-2.4v-12.8c0-1.323-1.077-2.4-2.4-2.4zM9.6 10.4c0-3.088 2.512-5.6 5.6-5.6s5.6 2.512 5.6 5.6v2.4h-11.2v-2.4zM24 28c0 0.442-0.358 0.8-0.8 0.8h-16c-0.442 0-0.8-0.358-0.8-0.8v-12.8c0-0.442 0.358-0.8 0.8-0.8h16c0.442 0 0.8 0.358 0.8 0.8v12.8z"></path>
</svg>
