<?xml version="1.0" encoding="utf-8"?>
<!-- Generated by IcoMoon.io -->
<!DOCTYPE svg PUBLIC "-//W3C//DTD SVG 1.1//EN" "http://www.w3.org/Graphics/SVG/1.1/DTD/svg11.dtd">
<svg version="1.1" xmlns="http://www.w3.org/2000/svg" xmlns:xlink="http://www.w3.org/1999/xlink" width="32" height="32" viewBox="0 0 32 32">
<path d="M18.4 11.2c-0.442 0-0.8-0.358-0.8-0.8 0-2.205-1.795-4-4-4-0.442 0-0.8-0.358-0.8-0.8s0.358-0.8 0.8-0.8c2.205 0 4-1.795 4-4 0-0.442 0.358-0.8 0.8-0.8s0.8 0.358 0.8 0.8c0 2.205 1.795 4 4 4 0.442 0 0.8 0.358 0.8 0.8s-0.358 0.8-0.8 0.8c-2.205 0-4 1.795-4 4 0 0.442-0.358 0.8-0.8 0.8zM16.482 5.6c0.784 0.474 1.445 1.133 1.918 1.918 0.474-0.784 1.133-1.445 1.918-1.918-0.784-0.474-1.445-1.133-1.918-1.918-0.474 0.784-1.133 1.445-1.918 1.918z"></path>
<path d="M2.4 16c-0.442 0-0.8-0.358-0.8-0.8s-0.358-0.8-0.8-0.8c-0.442 0-0.8-0.358-0.8-0.8s0.358-0.8 0.8-0.8c0.442 0 0.8-0.358 0.8-0.8s0.358-0.8 0.8-0.8 0.8 0.358 0.8 0.8c0 0.442 0.358 0.8 0.8 0.8s0.8 0.358 0.8 0.8-0.358 0.8-0.8 0.8c-0.442 0-0.8 0.358-0.8 0.8s-0.358 0.8-0.8 0.8z"></path>
<path d="M29.035 25.502l-16.938-16.938c-0.453-0.453-1.054-0.701-1.698-0.701s-1.245 0.25-1.698 0.701l-0.938 0.938c-0.453 0.453-0.701 1.054-0.701 1.698s0.25 1.245 0.701 1.698l16.938 16.938c0.453 0.453 1.054 0.701 1.698 0.701s1.245-0.25 1.698-0.701l0.938-0.938c0.453-0.453 0.701-1.054 0.701-1.698s-0.25-1.245-0.701-1.698zM8.898 10.634l0.938-0.938c0.15-0.15 0.35-0.232 0.566-0.232s0.416 0.083 0.566 0.232l2.302 2.302-2.069 2.069-2.302-2.302c-0.312-0.312-0.312-0.819 0-1.131zM27.902 27.766l-0.938 0.938c-0.15 0.15-0.35 0.232-0.565 0.232s-0.416-0.083-0.565-0.232l-13.502-13.502 2.069-2.069 13.502 13.502c0.312 0.312 0.312 0.819 0 1.131z"></path>
<path d="M5.6 8c-0.442 0-0.8-0.358-0.8-0.8 0-1.323-1.077-2.4-2.4-2.4-0.442 0-0.8-0.358-0.8-0.8s0.358-0.8 0.8-0.8c1.323 0 2.4-1.077 2.4-2.4 0-0.442 0.358-0.8 0.8-0.8s0.8 0.358 0.8 0.8c0 1.323 1.077 2.4 2.4 2.4 0.442 0 0.8 0.358 0.8 0.8s-0.358 0.8-0.8 0.8c-1.323 0-2.4 1.077-2.4 2.4 0 0.442-0.358 0.8-0.8 0.8zM4.797 4c0.304 0.229 0.574 0.499 0.803 0.803 0.229-0.304 0.499-0.574 0.803-0.803-0.304-0.229-0.574-0.499-0.803-0.803-0.229 0.304-0.499 0.574-0.803 0.803z"></path>
<path d="M5.6 24c-0.442 0-0.8-0.358-0.8-0.8 0-1.323-1.077-2.4-2.4-2.4-0.442 0-0.8-0.358-0.8-0.8s0.358-0.8 0.8-0.8c1.323 0 2.4-1.077 2.4-2.4 0-0.442 0.358-0.8 0.8-0.8s0.8 0.358 0.8 0.8c0 1.323 1.077 2.4 2.4 2.4 0.442 0 0.8 0.358 0.8 0.8s-0.358 0.8-0.8 0.8c-1.323 0-2.4 1.077-2.4 2.4 0 0.442-0.358 0.8-0.8 0.8zM4.797 20c0.304 0.229 0.574 0.499 0.803 0.803 0.229-0.304 0.499-0.574 0.803-0.803-0.304-0.229-0.574-0.499-0.803-0.803-0.229 0.304-0.499 0.574-0.803 0.803z"></path>
</svg>
