<?xml version="1.0" encoding="utf-8"?>
<!-- Generated by IcoMoon.io -->
<!DOCTYPE svg PUBLIC "-//W3C//DTD SVG 1.1//EN" "http://www.w3.org/Graphics/SVG/1.1/DTD/svg11.dtd">
<svg version="1.1" xmlns="http://www.w3.org/2000/svg" xmlns:xlink="http://www.w3.org/1999/xlink" width="32" height="32" viewBox="0 0 32 32">
<path d="M30.19 30.659l-9.509-10.374c2.142-2.242 3.32-5.173 3.32-8.285 0-3.205-1.248-6.219-3.515-8.485s-5.28-3.515-8.485-3.515-6.219 1.248-8.485 3.515-3.515 5.28-3.515 8.485 1.248 6.219 3.515 8.485 5.28 3.515 8.485 3.515c2.762 0 5.379-0.926 7.501-2.632l9.509 10.373c0.158 0.173 0.373 0.259 0.59 0.259 0.194 0 0.387-0.069 0.541-0.21 0.326-0.299 0.347-0.805 0.050-1.13zM1.6 12c0-5.734 4.666-10.4 10.4-10.4s10.4 4.666 10.4 10.4-4.666 10.4-10.4 10.4-10.4-4.666-10.4-10.4z"></path>
</svg>
