<?xml version="1.0" encoding="utf-8"?>
<!-- Generated by IcoMoon.io -->
<!DOCTYPE svg PUBLIC "-//W3C//DTD SVG 1.1//EN" "http://www.w3.org/Graphics/SVG/1.1/DTD/svg11.dtd">
<svg version="1.1" xmlns="http://www.w3.org/2000/svg" xmlns:xlink="http://www.w3.org/1999/xlink" width="32" height="32" viewBox="0 0 32 32">
<path d="M16 32c-0.245 0-0.477-0.112-0.629-0.306-0.091-0.117-2.269-2.902-4.475-7.016-1.299-2.421-2.336-4.798-3.080-7.066-0.939-2.859-1.414-5.555-1.414-8.013 0-5.293 4.307-9.6 9.6-9.6s9.6 4.307 9.6 9.6c0 2.458-0.477 5.152-1.414 8.013-0.744 2.267-1.781 4.645-3.080 7.066-2.208 4.114-4.384 6.899-4.475 7.016-0.152 0.194-0.384 0.306-0.629 0.306zM16 1.6c-4.411 0-8 3.589-8 8 0 5.206 2.341 10.662 4.306 14.322 1.443 2.69 2.894 4.822 3.694 5.936 0.803-1.118 2.264-3.264 3.709-5.962 1.957-3.653 4.291-9.099 4.291-14.296 0-4.411-3.589-8-8-8z"></path>
<path d="M16 14.4c-2.646 0-4.8-2.154-4.8-4.8s2.154-4.8 4.8-4.8 4.8 2.154 4.8 4.8-2.154 4.8-4.8 4.8zM16 6.4c-1.765 0-3.2 1.435-3.2 3.2s1.435 3.2 3.2 3.2c1.765 0 3.2-1.435 3.2-3.2s-1.435-3.2-3.2-3.2z"></path>
</svg>
