<?xml version="1.0" encoding="utf-8"?>
<!-- Generated by IcoMoon.io -->
<!DOCTYPE svg PUBLIC "-//W3C//DTD SVG 1.1//EN" "http://www.w3.org/Graphics/SVG/1.1/DTD/svg11.dtd">
<svg version="1.1" xmlns="http://www.w3.org/2000/svg" xmlns:xlink="http://www.w3.org/1999/xlink" width="32" height="32" viewBox="0 0 32 32">
<path d="M30.021 1.72c-0.235-0.146-0.53-0.158-0.778-0.035l-9.242 4.621-9.242-4.621c-0.226-0.112-0.49-0.112-0.715 0l-9.6 4.8c-0.27 0.136-0.442 0.413-0.442 0.715v24c0 0.277 0.144 0.534 0.379 0.68 0.128 0.080 0.274 0.12 0.421 0.12 0.122 0 0.245-0.029 0.358-0.085l9.242-4.621 9.242 4.621c0.226 0.112 0.491 0.112 0.715 0l9.6-4.8c0.27-0.136 0.442-0.413 0.442-0.715v-24c0-0.277-0.144-0.534-0.379-0.68zM9.6 25.906l-8 4v-22.211l8-4v22.211zM11.2 3.694l8 4v22.211l-8-4v-22.211zM28.8 25.906l-8 4v-22.211l8-4v22.211z"></path>
</svg>
