<?xml version="1.0" encoding="utf-8"?>
<!-- Generated by IcoMoon.io -->
<!DOCTYPE svg PUBLIC "-//W3C//DTD SVG 1.1//EN" "http://www.w3.org/Graphics/SVG/1.1/DTD/svg11.dtd">
<svg version="1.1" xmlns="http://www.w3.org/2000/svg" xmlns:xlink="http://www.w3.org/1999/xlink" width="32" height="32" viewBox="0 0 32 32">
<path d="M15.2 22.4c-3.088 0-5.6-2.512-5.6-5.6v-9.6c0-3.088 2.512-5.6 5.6-5.6s5.6 2.512 5.6 5.6v9.6c0 3.088-2.512 5.6-5.6 5.6zM15.2 3.2c-2.205 0-4 1.795-4 4v9.6c0 2.205 1.795 4 4 4s4-1.795 4-4v-9.6c0-2.205-1.795-4-4-4z"></path>
<path d="M25.6 16.8c0-0.442-0.358-0.8-0.8-0.8s-0.8 0.358-0.8 0.8c0 4.853-3.947 8.8-8.8 8.8s-8.8-3.947-8.8-8.8c0-0.442-0.358-0.8-0.8-0.8s-0.8 0.358-0.8 0.8c0 5.466 4.238 9.96 9.6 10.37v3.23h-2.4c-0.442 0-0.8 0.358-0.8 0.8s0.358 0.8 0.8 0.8h6.4c0.442 0 0.8-0.358 0.8-0.8s-0.358-0.8-0.8-0.8h-2.4v-3.23c5.362-0.41 9.6-4.904 9.6-10.37z"></path>
</svg>
