<?xml version="1.0" encoding="utf-8"?>
<!-- Generated by IcoMoon.io -->
<!DOCTYPE svg PUBLIC "-//W3C//DTD SVG 1.1//EN" "http://www.w3.org/Graphics/SVG/1.1/DTD/svg11.dtd">
<svg version="1.1" xmlns="http://www.w3.org/2000/svg" xmlns:xlink="http://www.w3.org/1999/xlink" width="32" height="32" viewBox="0 0 32 32">
<path d="M16.4 32c-4.381 0-8.499-1.706-11.597-4.803s-4.803-7.216-4.803-11.597c0-3.602 1.157-7 3.344-9.829 1.048-1.355 2.302-2.536 3.73-3.51 1.438-0.982 3.021-1.733 4.701-2.227 0.307-0.091 0.638 0.011 0.843 0.258s0.242 0.59 0.096 0.875c-1.032 2.011-1.512 3.928-1.512 6.035 0 7.499 6.101 13.6 13.6 13.6 2.107 0 4.024-0.48 6.035-1.512 0.285-0.146 0.629-0.109 0.875 0.096s0.347 0.536 0.258 0.843c-0.496 1.68-1.245 3.262-2.227 4.701-0.974 1.427-2.155 2.682-3.51 3.73-2.829 2.187-6.229 3.344-9.829 3.344zM10.512 2.184c-5.398 2.312-8.912 7.502-8.912 13.416 0 8.16 6.64 14.8 14.8 14.8 5.914 0 11.104-3.515 13.416-8.912-1.638 0.613-3.293 0.912-5.016 0.912-4.061 0-7.877-1.581-10.747-4.451s-4.453-6.688-4.453-10.749c0-1.723 0.301-3.378 0.912-5.016z"></path>
</svg>
