<?xml version="1.0" encoding="UTF-8" standalone="no"?>
<!-- Generated by IcoMoon.io -->

<svg
   xmlns:dc="http://purl.org/dc/elements/1.1/"
   xmlns:cc="http://creativecommons.org/ns#"
   xmlns:rdf="http://www.w3.org/1999/02/22-rdf-syntax-ns#"
   xmlns:svg="http://www.w3.org/2000/svg"
   xmlns="http://www.w3.org/2000/svg"
   xmlns:sodipodi="http://sodipodi.sourceforge.net/DTD/sodipodi-0.dtd"
   xmlns:inkscape="http://www.inkscape.org/namespaces/inkscape"
   version="1.1"
   width="20"
   height="20"
   viewBox="0 0 20 20"
   id="svg2"
   inkscape:version="0.48.4 r9939"
   sodipodi:docname="cross.svg">
  <metadata
     id="metadata10">
    <rdf:RDF>
      <cc:Work
         rdf:about="">
        <dc:format>image/svg+xml</dc:format>
        <dc:type
           rdf:resource="http://purl.org/dc/dcmitype/StillImage" />
        <dc:title></dc:title>
      </cc:Work>
    </rdf:RDF>
  </metadata>
  <defs
     id="defs8" />
  <sodipodi:namedview
     pagecolor="#ffffff"
     bordercolor="#666666"
     borderopacity="1"
     objecttolerance="10"
     gridtolerance="10"
     guidetolerance="10"
     inkscape:pageopacity="0"
     inkscape:pageshadow="2"
     inkscape:window-width="640"
     inkscape:window-height="480"
     id="namedview6"
     showgrid="false"
     inkscape:zoom="11.8"
     inkscape:cx="10"
     inkscape:cy="9.3220339"
     inkscape:window-x="0"
     inkscape:window-y="0"
     inkscape:window-maximized="0"
     inkscape:current-layer="svg2" />
  <path
     d="m 10.500306,9.6617629 0,-7.9846498 c 0,-0.2757716 -0.224153,-0.4999245 -0.499925,-0.4999245 -0.2757714,0 -0.4999242,0.2241529 -0.4999242,0.4999245 l 0,7.9846498 -7.9846498,0 c -0.2757716,0 -0.4999245,0.224153 -0.4999245,0.4999241 0,0.275772 0.2241529,0.499925 0.4999245,0.499925 l 7.9846498,0 0,7.98465 c 0,0.275771 0.2241528,0.499924 0.4999242,0.499924 0.138593,0 0.263044,-0.05657 0.353554,-0.147078 0.09051,-0.09051 0.146371,-0.215668 0.147078,-0.353553 l 0,-7.98465 7.98465,0 c 0.138593,0 0.263043,-0.05657 0.353553,-0.147078 0.09051,-0.09051 0.146371,-0.215668 0.147078,-0.353554 0,-0.2757711 -0.224153,-0.4999243 -0.499924,-0.4999243 l -7.98465,0 z"
     id="path4"
     inkscape:connector-curvature="0"
     style="fill:#000000" />
</svg>
