<?xml version="1.0" encoding="utf-8"?>
<!-- Generated by IcoMoon.io -->
<!DOCTYPE svg PUBLIC "-//W3C//DTD SVG 1.1//EN" "http://www.w3.org/Graphics/SVG/1.1/DTD/svg11.dtd">
<svg version="1.1" xmlns="http://www.w3.org/2000/svg" xmlns:xlink="http://www.w3.org/1999/xlink" width="32" height="32" viewBox="0 0 32 32">
<path d="M15.2 32c-4.061 0-7.877-1.581-10.749-4.451s-4.451-6.688-4.451-10.747c0-4.061 1.581-7.877 4.451-10.749s6.688-4.453 10.749-4.453c4.061 0 7.877 1.581 10.749 4.453s4.451 6.688 4.451 10.749-1.581 7.877-4.451 10.747c-2.87 2.87-6.688 4.451-10.749 4.451zM15.2 3.2c-7.499 0-13.6 6.101-13.6 13.6s6.101 13.6 13.6 13.6 13.6-6.101 13.6-13.6-6.101-13.6-13.6-13.6z"></path>
<path d="M10.4 12.8c-1.323 0-2.4-1.077-2.4-2.4s1.077-2.4 2.4-2.4 2.4 1.077 2.4 2.4-1.077 2.4-2.4 2.4zM10.4 9.6c-0.442 0-0.8 0.358-0.8 0.8s0.358 0.8 0.8 0.8 0.8-0.358 0.8-0.8-0.358-0.8-0.8-0.8z"></path>
<path d="M20 12.8c-1.323 0-2.4-1.077-2.4-2.4s1.077-2.4 2.4-2.4 2.4 1.077 2.4 2.4-1.077 2.4-2.4 2.4zM20 9.6c-0.442 0-0.8 0.358-0.8 0.8s0.358 0.8 0.8 0.8 0.8-0.358 0.8-0.8-0.358-0.8-0.8-0.8z"></path>
<path d="M25.477 19.573c-0.178-0.28-0.509-0.422-0.834-0.358-0.299 0.059-0.589 0.090-0.858 0.090 0 0 0 0 0 0-1.395 0-2.243-0.805-3.139-1.658-0.853-0.81-1.734-1.648-3.045-1.648-0.955 0-1.813 0.421-2.4 1.086-0.587-0.666-1.445-1.086-2.4-1.086-1.31 0-2.192 0.838-3.045 1.648-0.898 0.853-1.744 1.658-3.139 1.658-0.27 0-0.558-0.030-0.858-0.090-0.325-0.066-0.658 0.077-0.834 0.358s-0.162 0.642 0.037 0.907c1.851 2.469 4.227 2.987 5.896 2.987 0.994 0 1.784-0.187 2.168-0.299 0.85-0.246 1.629-0.867 2.176-1.645 0.549 0.778 1.328 1.397 2.176 1.645 0.384 0.112 1.174 0.299 2.168 0.299 1.667 0 4.045-0.518 5.896-2.987 0.198-0.266 0.214-0.626 0.037-0.907zM12.576 21.632c-0.301 0.088-0.926 0.235-1.722 0.235-0.936 0-2.158-0.21-3.31-1.046 1.496-0.286 2.49-1.229 3.312-2.013 0.787-0.749 1.304-1.208 1.942-1.208 0.882 0 1.6 0.718 1.6 1.6 0 0.978-0.886 2.158-1.824 2.432zM19.544 21.867c-0.795 0-1.419-0.147-1.722-0.235-0.938-0.272-1.824-1.454-1.824-2.432 0-0.882 0.718-1.6 1.6-1.6 0.64 0 1.155 0.459 1.942 1.208 0.824 0.782 1.816 1.726 3.312 2.011-1.154 0.837-2.376 1.046-3.31 1.046z"></path>
</svg>
