<?xml version="1.0" encoding="utf-8"?>
<!-- Generated by IcoMoon.io -->
<!DOCTYPE svg PUBLIC "-//W3C//DTD SVG 1.1//EN" "http://www.w3.org/Graphics/SVG/1.1/DTD/svg11.dtd">
<svg version="1.1" xmlns="http://www.w3.org/2000/svg" xmlns:xlink="http://www.w3.org/1999/xlink" width="32" height="32" viewBox="0 0 32 32">
<path d="M28 14.4h-24c-1.323 0-2.4-1.077-2.4-2.4v-9.6c0-0.442 0.358-0.8 0.8-0.8s0.8 0.358 0.8 0.8v9.6c0 0.442 0.358 0.8 0.8 0.8h24c0.442 0 0.8-0.358 0.8-0.8v-9.6c0-0.442 0.358-0.8 0.8-0.8s0.8 0.358 0.8 0.8v9.6c0 1.323-1.077 2.4-2.4 2.4z"></path>
<path d="M2.4 17.6h-1.6c-0.442 0-0.8-0.358-0.8-0.8s0.358-0.8 0.8-0.8h1.6c0.442 0 0.8 0.358 0.8 0.8s-0.358 0.8-0.8 0.8z"></path>
<path d="M7.2 17.6h-1.6c-0.442 0-0.8-0.358-0.8-0.8s0.358-0.8 0.8-0.8h1.6c0.442 0 0.8 0.358 0.8 0.8s-0.358 0.8-0.8 0.8z"></path>
<path d="M12 17.6h-1.6c-0.442 0-0.8-0.358-0.8-0.8s0.358-0.8 0.8-0.8h1.6c0.442 0 0.8 0.358 0.8 0.8s-0.358 0.8-0.8 0.8z"></path>
<path d="M16.8 17.6h-1.6c-0.442 0-0.8-0.358-0.8-0.8s0.358-0.8 0.8-0.8h1.6c0.442 0 0.8 0.358 0.8 0.8s-0.358 0.8-0.8 0.8z"></path>
<path d="M21.6 17.6h-1.6c-0.442 0-0.8-0.358-0.8-0.8s0.358-0.8 0.8-0.8h1.6c0.442 0 0.8 0.358 0.8 0.8s-0.358 0.8-0.8 0.8z"></path>
<path d="M26.4 17.6h-1.6c-0.442 0-0.8-0.358-0.8-0.8s0.358-0.8 0.8-0.8h1.6c0.442 0 0.8 0.358 0.8 0.8s-0.358 0.8-0.8 0.8z"></path>
<path d="M31.2 17.6h-1.6c-0.442 0-0.8-0.358-0.8-0.8s0.358-0.8 0.8-0.8h1.6c0.442 0 0.8 0.358 0.8 0.8s-0.358 0.8-0.8 0.8z"></path>
<path d="M29.6 32c-0.442 0-0.8-0.358-0.8-0.8v-9.6c0-0.442-0.358-0.8-0.8-0.8h-24c-0.442 0-0.8 0.358-0.8 0.8v9.6c0 0.442-0.358 0.8-0.8 0.8s-0.8-0.358-0.8-0.8v-9.6c0-1.323 1.077-2.4 2.4-2.4h24c1.323 0 2.4 1.077 2.4 2.4v9.6c0 0.442-0.358 0.8-0.8 0.8z"></path>
</svg>
