<?xml version="1.0" encoding="utf-8"?>
<!-- Generated by IcoMoon.io -->
<!DOCTYPE svg PUBLIC "-//W3C//DTD SVG 1.1//EN" "http://www.w3.org/Graphics/SVG/1.1/DTD/svg11.dtd">
<svg version="1.1" xmlns="http://www.w3.org/2000/svg" xmlns:xlink="http://www.w3.org/1999/xlink" width="32" height="32" viewBox="0 0 32 32">
<path d="M15.2 32c-3.97 0-7.2-3.23-7.2-7.2v-19.2c0-3.088 2.512-5.6 5.6-5.6s5.6 2.512 5.6 5.6v17.6c0 2.205-1.795 4-4 4s-4-1.795-4-4v-9.6c0-0.442 0.358-0.8 0.8-0.8s0.8 0.358 0.8 0.8v9.6c0 1.323 1.077 2.4 2.4 2.4s2.4-1.077 2.4-2.4v-17.6c0-2.205-1.795-4-4-4s-4 1.795-4 4v19.2c0 3.088 2.512 5.6 5.6 5.6s5.6-2.512 5.6-5.6v-11.2c0-0.442 0.358-0.8 0.8-0.8s0.8 0.358 0.8 0.8v11.2c0 3.97-3.23 7.2-7.2 7.2z"></path>
</svg>
