<?xml version="1.0" encoding="utf-8"?>
<!-- Generated by IcoMoon.io -->
<!DOCTYPE svg PUBLIC "-//W3C//DTD SVG 1.1//EN" "http://www.w3.org/Graphics/SVG/1.1/DTD/svg11.dtd">
<svg version="1.1" xmlns="http://www.w3.org/2000/svg" xmlns:xlink="http://www.w3.org/1999/xlink" width="32" height="32" viewBox="0 0 32 32">
<path d="M4.8 19.2c-1.795 0-3.2-2.115-3.2-4.818s1.405-4.818 3.2-4.818 3.2 2.115 3.2 4.818-1.405 4.818-3.2 4.818zM4.8 11.165c-0.755 0-1.6 1.376-1.6 3.218s0.845 3.218 1.6 3.218 1.6-1.376 1.6-3.218-0.845-3.218-1.6-3.218z"></path>
<path d="M11.197 12.8c-1.792 0-3.197-2.109-3.197-4.8s1.405-4.8 3.197-4.8 3.197 2.109 3.197 4.8-1.405 4.8-3.197 4.8zM11.197 4.8c-0.754 0-1.597 1.368-1.597 3.2s0.843 3.2 1.597 3.2 1.597-1.368 1.597-3.2-0.843-3.2-1.597-3.2z"></path>
<path d="M19.2 12.8c-1.795 0-3.2-2.109-3.2-4.8s1.405-4.8 3.2-4.8 3.2 2.109 3.2 4.8-1.405 4.8-3.2 4.8zM19.2 4.8c-0.755 0-1.6 1.368-1.6 3.2s0.845 3.2 1.6 3.2 1.6-1.368 1.6-3.2-0.845-3.2-1.6-3.2z"></path>
<path d="M25.6 19.2c-1.795 0-3.2-2.115-3.2-4.818s1.405-4.818 3.2-4.818 3.2 2.115 3.2 4.818-1.405 4.818-3.2 4.818zM25.6 11.165c-0.755 0-1.6 1.376-1.6 3.218s0.845 3.218 1.6 3.218 1.6-1.376 1.6-3.218-0.845-3.218-1.6-3.218z"></path>
<path d="M20.8 28.8c-1.389 0-2.328-0.47-3.155-0.885-0.768-0.384-1.43-0.715-2.445-0.715-1.010 0-1.672 0.331-2.44 0.715-0.83 0.414-1.771 0.885-3.16 0.885-0.89 0-1.726-0.485-2.299-1.33-1.003-1.482-1.019-3.73-0.045-6.168 1.755-4.387 4.65-6.902 7.942-6.902s6.189 2.515 7.942 6.902c0.974 2.438 0.958 4.686-0.045 6.168-0.571 0.845-1.41 1.33-2.299 1.33zM15.2 25.6c1.39 0 2.331 0.47 3.16 0.885 0.766 0.384 1.429 0.715 2.44 0.715 0.349 0 0.704-0.229 0.974-0.626 0.691-1.019 0.646-2.768-0.117-4.677-1.499-3.747-3.853-5.898-6.458-5.898s-4.958 2.149-6.458 5.898c-0.763 1.909-0.806 3.658-0.117 4.677 0.269 0.398 0.624 0.626 0.974 0.626 1.011 0 1.675-0.331 2.445-0.717 0.829-0.414 1.77-0.885 3.155-0.885z"></path>
</svg>
