<?xml version="1.0" encoding="utf-8"?>
<!-- Generated by IcoMoon.io -->
<!DOCTYPE svg PUBLIC "-//W3C//DTD SVG 1.1//EN" "http://www.w3.org/Graphics/SVG/1.1/DTD/svg11.dtd">
<svg version="1.1" xmlns="http://www.w3.org/2000/svg" xmlns:xlink="http://www.w3.org/1999/xlink" width="32" height="32" viewBox="0 0 32 32">
<path d="M25.6 32c-2.834 0-5.848-0.803-8.96-2.387-2.869-1.461-5.702-3.552-8.195-6.048s-4.581-5.333-6.040-8.203c-1.581-3.114-2.384-6.128-2.384-8.962 0-1.837 1.712-3.611 2.446-4.288 1.058-0.974 2.722-2.112 3.931-2.112 0.602 0 1.306 0.394 2.219 1.238 0.68 0.63 1.446 1.485 2.213 2.47 0.462 0.595 2.768 3.634 2.768 5.091 0 1.195-1.352 2.027-2.782 2.906-0.554 0.339-1.125 0.691-1.538 1.022-0.442 0.354-0.52 0.541-0.533 0.582 1.518 3.786 6.16 8.427 9.944 9.944 0.034-0.011 0.221-0.085 0.581-0.533 0.331-0.413 0.683-0.986 1.022-1.538 0.88-1.43 1.71-2.782 2.906-2.782 1.458 0 4.496 2.306 5.091 2.768 0.986 0.766 1.84 1.533 2.47 2.213 0.845 0.912 1.238 1.618 1.238 2.219 0 1.21-1.138 2.878-2.11 3.941-0.678 0.739-2.453 2.459-4.29 2.459zM6.39 1.6c-0.429 0.008-1.582 0.533-2.837 1.688-1.19 1.098-1.931 2.29-1.931 3.112 0 10.766 13.222 24 23.978 24 0.821 0 2.013-0.744 3.11-1.941 1.157-1.261 1.682-2.419 1.69-2.85-0.051-0.304-0.893-1.486-3.195-3.259-1.979-1.523-3.584-2.341-3.997-2.35-0.029 0.008-0.208 0.077-0.571 0.538-0.315 0.402-0.653 0.95-0.981 1.482-0.896 1.458-1.742 2.835-2.973 2.835-0.198 0-0.394-0.038-0.581-0.114-4.2-1.68-9.166-6.646-10.846-10.846-0.202-0.504-0.234-1.294 0.758-2.194 0.528-0.478 1.258-0.926 1.965-1.362 0.531-0.326 1.082-0.664 1.482-0.981 0.461-0.363 0.53-0.542 0.538-0.571-0.011-0.413-0.827-2.018-2.35-3.997-1.773-2.302-2.955-3.142-3.259-3.195z"></path>
</svg>
