<?xml version="1.0" encoding="utf-8"?>
<!-- Generated by IcoMoon.io -->
<!DOCTYPE svg PUBLIC "-//W3C//DTD SVG 1.1//EN" "http://www.w3.org/Graphics/SVG/1.1/DTD/svg11.dtd">
<svg version="1.1" xmlns="http://www.w3.org/2000/svg" xmlns:xlink="http://www.w3.org/1999/xlink" width="32" height="32" viewBox="0 0 32 32">
<path d="M28.63 14.235c-1.666 0-4.685-0.6-5.626-1.541-0.578-0.578-0.714-1.301-0.824-1.883-0.136-0.717-0.218-0.93-0.531-1.066-1.443-0.621-3.514-0.976-5.682-0.976-2.144 0-4.192 0.35-5.619 0.96-0.31 0.133-0.39 0.346-0.523 1.061-0.109 0.584-0.243 1.31-0.819 1.886-0.525 0.525-1.624 0.886-2.453 1.096-1.069 0.27-2.214 0.427-3.141 0.427-1.062 0-1.781-0.202-2.195-0.618-0.626-0.626-1.026-1.482-1.096-2.347-0.059-0.73 0.082-1.811 1.088-2.819 1.635-1.635 3.834-2.91 6.538-3.789 2.486-0.81 5.315-1.237 8.182-1.237 2.886 0 5.739 0.432 8.25 1.251 2.728 0.89 4.949 2.178 6.598 3.829 1.68 1.68 1.264 3.909 0.019 5.154-0.411 0.411-1.12 0.611-2.166 0.611zM15.968 7.17c2.411 0 4.653 0.394 6.314 1.106 1.141 0.49 1.333 1.501 1.472 2.237 0.083 0.44 0.155 0.821 0.384 1.050 0.403 0.403 2.73 1.074 4.494 1.074 0.77 0 1.013-0.131 1.043-0.15 0.496-0.502 1.117-1.738-0.027-2.883-2.888-2.888-8.016-4.611-13.718-4.611-5.656 0-10.734 1.704-13.589 4.557-0.461 0.461-0.672 0.986-0.626 1.558 0.040 0.483 0.272 0.982 0.624 1.338 0.030 0.019 0.277 0.157 1.072 0.157 1.757 0 4.066-0.658 4.462-1.054 0.226-0.226 0.296-0.606 0.378-1.046 0.138-0.739 0.325-1.752 1.467-2.24 1.642-0.702 3.861-1.088 6.248-1.088z"></path>
<path d="M26.4 28.8h-20.8c-1.074 0-2.064-0.422-2.789-1.189s-1.091-1.779-1.032-2.851c0.006-0.123 0.189-3.042 2.032-5.982 1.091-1.741 2.538-3.128 4.298-4.123 2.178-1.23 4.832-1.854 7.891-1.854s5.714 0.624 7.891 1.854c1.762 0.995 3.208 2.382 4.298 4.123 1.843 2.942 2.026 5.861 2.032 5.982 0.059 1.072-0.307 2.085-1.032 2.851s-1.715 1.189-2.789 1.189zM16 14.4c-4.987 0-8.621 1.741-10.798 5.173-1.648 2.597-1.822 5.251-1.824 5.278-0.035 0.627 0.178 1.218 0.597 1.661s0.997 0.688 1.627 0.688h20.8c0.629 0 1.206-0.245 1.627-0.688s0.632-1.034 0.597-1.662c-0.002-0.026-0.178-2.68-1.824-5.277-2.179-3.432-5.813-5.173-10.798-5.173z"></path>
<path d="M16 25.6c-2.646 0-4.8-2.154-4.8-4.8s2.154-4.8 4.8-4.8 4.8 2.154 4.8 4.8-2.154 4.8-4.8 4.8zM16 17.6c-1.765 0-3.2 1.435-3.2 3.2s1.435 3.2 3.2 3.2c1.765 0 3.2-1.435 3.2-3.2s-1.435-3.2-3.2-3.2z"></path>
</svg>
