<?xml version="1.0" encoding="utf-8"?>
<!-- Generated by IcoMoon.io -->
<!DOCTYPE svg PUBLIC "-//W3C//DTD SVG 1.1//EN" "http://www.w3.org/Graphics/SVG/1.1/DTD/svg11.dtd">
<svg version="1.1" xmlns="http://www.w3.org/2000/svg" xmlns:xlink="http://www.w3.org/1999/xlink" width="32" height="32" viewBox="0 0 32 32">
<path d="M29.6 32h-27.2c-1.323 0-2.4-1.077-2.4-2.4v-27.2c0-1.323 1.077-2.4 2.4-2.4h27.2c1.323 0 2.4 1.077 2.4 2.4v27.2c0 1.323-1.077 2.4-2.4 2.4zM2.4 1.6c-0.442 0-0.8 0.358-0.8 0.8v27.2c0 0.442 0.358 0.8 0.8 0.8h27.2c0.442 0 0.8-0.358 0.8-0.8v-27.2c0-0.442-0.358-0.8-0.8-0.8h-27.2z"></path>
<path d="M20.8 14.4c-1.765 0-3.2-1.435-3.2-3.2s1.435-3.2 3.2-3.2 3.2 1.435 3.2 3.2-1.435 3.2-3.2 3.2zM20.8 9.6c-0.882 0-1.6 0.718-1.6 1.6s0.718 1.6 1.6 1.6 1.6-0.718 1.6-1.6-0.718-1.6-1.6-1.6z"></path>
<path d="M28 3.2h-24c-0.442 0-0.8 0.358-0.8 0.8v19.2c0 0.442 0.358 0.8 0.8 0.8h24c0.442 0 0.8-0.358 0.8-0.8v-19.2c0-0.442-0.358-0.8-0.8-0.8zM4.8 18.704l5.134-5.778c0.131-0.147 0.302-0.23 0.483-0.232s0.354 0.077 0.488 0.221l8.853 9.485h-14.958v-3.696zM27.2 22.4h-5.253l-9.87-10.576c-0.446-0.478-1.042-0.738-1.678-0.73s-1.226 0.282-1.659 0.77l-3.939 4.432v-11.496h22.4v17.6z"></path>
</svg>
