<?xml version="1.0" encoding="UTF-8" standalone="no"?>
<!-- Generated by IcoMoon.io -->

<svg
   xmlns:dc="http://purl.org/dc/elements/1.1/"
   xmlns:cc="http://creativecommons.org/ns#"
   xmlns:rdf="http://www.w3.org/1999/02/22-rdf-syntax-ns#"
   xmlns:svg="http://www.w3.org/2000/svg"
   xmlns="http://www.w3.org/2000/svg"
   xmlns:sodipodi="http://sodipodi.sourceforge.net/DTD/sodipodi-0.dtd"
   xmlns:inkscape="http://www.inkscape.org/namespaces/inkscape"
   version="1.1"
   width="20"
   height="20"
   viewBox="0 0 20 20"
   id="svg2"
   inkscape:version="0.48.4 r9939"
   sodipodi:docname="pie-chart.svg">
  <metadata
     id="metadata12">
    <rdf:RDF>
      <cc:Work
         rdf:about="">
        <dc:format>image/svg+xml</dc:format>
        <dc:type
           rdf:resource="http://purl.org/dc/dcmitype/StillImage" />
      </cc:Work>
    </rdf:RDF>
  </metadata>
  <defs
     id="defs10" />
  <sodipodi:namedview
     pagecolor="#ffffff"
     bordercolor="#666666"
     borderopacity="1"
     objecttolerance="10"
     gridtolerance="10"
     guidetolerance="10"
     inkscape:pageopacity="0"
     inkscape:pageshadow="2"
     inkscape:window-width="640"
     inkscape:window-height="480"
     id="namedview8"
     showgrid="false"
     inkscape:zoom="11.8"
     inkscape:cx="10"
     inkscape:cy="5.9322034"
     inkscape:window-x="0"
     inkscape:window-y="0"
     inkscape:window-maximized="0"
     inkscape:current-layer="svg2" />
  <path
     d="m 9.4500446,18.898305 c -2.2295004,0 -4.3264094,-0.868228 -5.9027743,-2.445575 -1.5763648,-1.577347 -2.4455754,-3.673274 -2.4455754,-5.902775 0,-2.2295001 0.8682284,-4.3264091 2.4455754,-5.9027739 1.577347,-1.5763649 3.6732739,-2.4455754 5.9027743,-2.4455754 0.2710759,0 0.4910794,0.2200035 0.4910794,0.4910794 v 7.3661909 h 7.366191 c 0.271076,0 0.491079,0.220003 0.491079,0.491079 0,2.229501 -0.868228,4.32641 -2.445575,5.902775 -1.577347,1.576364 -3.673274,2.445575 -5.9027744,2.445575 z M 8.9589652,3.199479 c -3.8333657,0.253397 -6.8751115,3.4532703 -6.8751115,7.350476 0,4.062209 3.3039822,7.366191 7.3661909,7.366191 3.8962244,0 7.0960974,-3.041746 7.3504764,-6.875111 H 9.4500446 c -0.2710758,0 -0.4910794,-0.220004 -0.4910794,-0.49108 V 3.199479 z"
     id="path4"
     inkscape:connector-curvature="0"
     style="fill:#000000" />
  <path
     d="m 19.271633,9.0767172 h -7.857271 c -0.271076,0 -0.491079,-0.2200036 -0.491079,-0.4910794 V 0.72836753 c 0,-0.27107582 0.220003,-0.49107939 0.491079,-0.49107939 2.229501,0 4.32641,0.86822836 5.902775,2.44557536 1.576364,1.577347 2.445575,3.6732738 2.445575,5.9027743 0,0.2710758 -0.220004,0.4910794 -0.491079,0.4910794 z M 11.905442,8.0945584 h 6.859397 C 18.522245,4.4232489 15.576751,1.4787368 11.905442,1.2351614 v 6.859397 z"
     id="path6"
     inkscape:connector-curvature="0"
     style="fill:#000000" />
</svg>
