<?xml version="1.0" encoding="utf-8"?>
<!-- Generated by IcoMoon.io -->
<!DOCTYPE svg PUBLIC "-//W3C//DTD SVG 1.1//EN" "http://www.w3.org/Graphics/SVG/1.1/DTD/svg11.dtd">
<svg version="1.1" xmlns="http://www.w3.org/2000/svg" xmlns:xlink="http://www.w3.org/1999/xlink" width="32" height="32" viewBox="0 0 32 32">
<path d="M15.12 30.237c-3.567 0-6.922-1.389-9.444-3.913s-3.913-5.877-3.913-9.444c0-3.567 1.389-6.922 3.913-9.444s5.877-3.913 9.444-3.913c0.434 0 0.786 0.352 0.786 0.786v11.786h11.786c0.434 0 0.786 0.352 0.786 0.786 0 3.567-1.389 6.922-3.913 9.444s-5.877 3.913-9.444 3.913zM14.334 5.119c-6.133 0.405-11 5.525-11 11.761 0 6.5 5.286 11.786 11.786 11.786 6.234 0 11.354-4.867 11.761-11h-11.761c-0.434 0-0.786-0.352-0.786-0.786v-11.761z"></path>
<path d="M30.835 14.523h-12.572c-0.434 0-0.786-0.352-0.786-0.786v-12.572c0-0.434 0.352-0.786 0.786-0.786 3.567 0 6.922 1.389 9.444 3.913s3.913 5.877 3.913 9.444c0 0.434-0.352 0.786-0.786 0.786zM19.049 12.951h10.975c-0.388-5.874-5.101-10.585-10.975-10.975v10.975z"></path>
</svg>
