<?xml version="1.0" encoding="utf-8"?>
<!-- Generated by IcoMoon.io -->
<!DOCTYPE svg PUBLIC "-//W3C//DTD SVG 1.1//EN" "http://www.w3.org/Graphics/SVG/1.1/DTD/svg11.dtd">
<svg version="1.1" xmlns="http://www.w3.org/2000/svg" xmlns:xlink="http://www.w3.org/1999/xlink" width="32" height="32" viewBox="0 0 32 32">
<path d="M24.8 3.2h-13.6c-3.53 0-6.4 2.87-6.4 6.4s2.87 6.4 6.4 6.4h1.6v12c0 0.442 0.358 0.8 0.8 0.8s0.8-0.358 0.8-0.8v-23.2h4.8v23.2c0 0.442 0.358 0.8 0.8 0.8s0.8-0.358 0.8-0.8v-23.2h4c0.442 0 0.8-0.358 0.8-0.8s-0.358-0.8-0.8-0.8zM12.8 14.4h-1.6c-2.646 0-4.8-2.154-4.8-4.8s2.154-4.8 4.8-4.8h1.6v9.6z"></path>
</svg>
