<?xml version="1.0" encoding="utf-8"?>
<!-- Generated by IcoMoon.io -->
<!DOCTYPE svg PUBLIC "-//W3C//DTD SVG 1.1//EN" "http://www.w3.org/Graphics/SVG/1.1/DTD/svg11.dtd">
<svg version="1.1" xmlns="http://www.w3.org/2000/svg" xmlns:xlink="http://www.w3.org/1999/xlink" width="32" height="32" viewBox="0 0 32 32">
<path d="M16.8 15.459v-12.775c0-0.441-0.359-0.8-0.8-0.8s-0.8 0.359-0.8 0.8v12.775h-12.775c-0.441 0-0.8 0.359-0.8 0.8s0.359 0.8 0.8 0.8h12.775v12.775c0 0.441 0.359 0.8 0.8 0.8 0.222 0 0.421-0.090 0.566-0.235s0.234-0.345 0.235-0.566v-12.775h12.775c0.222 0 0.421-0.090 0.566-0.235s0.234-0.345 0.235-0.566c0-0.441-0.359-0.8-0.8-0.8h-12.775z"></path>
</svg>
