<?xml version="1.0" encoding="utf-8"?>
<!-- Generated by IcoMoon.io -->
<!DOCTYPE svg PUBLIC "-//W3C//DTD SVG 1.1//EN" "http://www.w3.org/Graphics/SVG/1.1/DTD/svg11.dtd">
<svg version="1.1" xmlns="http://www.w3.org/2000/svg" xmlns:xlink="http://www.w3.org/1999/xlink" width="32" height="32" viewBox="0 0 32 32">
<path d="M19.2 27.2c0-0.659-0.2-1.27-0.542-1.781 1.246-0.438 2.142-1.626 2.142-3.019 0-0.659-0.2-1.27-0.542-1.781 1.246-0.438 2.142-1.626 2.142-3.019 0-0.582-0.157-1.13-0.43-1.6h5.23c1.765 0 3.2-1.435 3.2-3.2s-1.435-3.2-3.2-3.2h-11.797l3.733-2.154c0.76-0.418 1.301-1.099 1.525-1.918 0.218-0.798 0.102-1.629-0.323-2.339-0.87-1.451-2.838-2.005-4.387-1.232-0.098 0.048-2.189 1.069-8.56 4.256-3 1.501-5.146 3.147-6.374 4.894-0.965 1.371-1.014 2.318-1.014 2.494v8c0 1.357 0.392 2.611 1.168 3.73 0.749 1.082 1.843 2.014 3.253 2.774 2.789 1.502 6.794 2.296 11.579 2.296 1.765 0 3.2-1.435 3.2-3.2zM5.179 26.696c-1.634-0.878-3.579-2.477-3.579-5.096v-7.984c0.005-0.062 0.080-0.736 0.84-1.752 0.758-1.013 2.355-2.568 5.664-4.221 6.486-3.243 8.53-4.24 8.549-4.25 0.003-0.002 0.005-0.002 0.006-0.003 0.805-0.402 1.859-0.117 2.302 0.622 0.2 0.333 0.253 0.722 0.152 1.096-0.109 0.398-0.378 0.733-0.755 0.939-0.005 0.003-0.011 0.006-0.016 0.010l-4.328 2.498c-0.933 0.51-1.325 1.085-1.166 1.707 0.158 0.624 0.782 0.939 1.851 0.939h12.499c0.882 0 1.6 0.718 1.6 1.6s-0.718 1.6-1.6 1.6h-10.4c-0.442 0-0.8 0.358-0.8 0.8s0.358 0.8 0.8 0.8h2.4c0.882 0 1.6 0.718 1.6 1.6s-0.718 1.6-1.6 1.6h-2.4c-0.442 0-0.8 0.358-0.8 0.8s0.358 0.8 0.8 0.8h0.8c0.882 0 1.6 0.718 1.6 1.6s-0.718 1.6-1.6 1.6h-2.4c-0.442 0-0.8 0.358-0.8 0.8s0.358 0.8 0.8 0.8h0.8c0.882 0 1.6 0.718 1.6 1.6s-0.718 1.6-1.6 1.6c-4.522 0-8.264-0.728-10.821-2.104z"></path>
</svg>
