<?xml version="1.0" encoding="utf-8"?>
<!-- Generated by IcoMoon.io -->
<!DOCTYPE svg PUBLIC "-//W3C//DTD SVG 1.1//EN" "http://www.w3.org/Graphics/SVG/1.1/DTD/svg11.dtd">
<svg version="1.1" xmlns="http://www.w3.org/2000/svg" xmlns:xlink="http://www.w3.org/1999/xlink" width="32" height="32" viewBox="0 0 32 32">
<path d="M27.2 19.2c-0.659 0-1.27-0.2-1.781-0.542-0.438 1.246-1.626 2.142-3.019 2.142-0.659 0-1.27-0.2-1.781-0.542-0.438 1.246-1.626 2.142-3.019 2.142-0.582 0-1.13-0.157-1.6-0.43v5.23c0 1.765-1.435 3.2-3.2 3.2s-3.2-1.435-3.2-3.2v-11.797l-2.154 3.733c-0.418 0.76-1.099 1.301-1.918 1.525-0.798 0.218-1.629 0.102-2.339-0.323-1.451-0.87-2.005-2.838-1.232-4.387 0.048-0.098 1.069-2.189 4.256-8.56 1.501-3 3.147-5.146 4.894-6.374 1.371-0.965 2.318-1.014 2.494-1.014h8c1.357 0 2.611 0.392 3.73 1.168 1.082 0.749 2.014 1.843 2.774 3.253 1.502 2.789 2.296 6.794 2.296 11.579 0 1.765-1.435 3.2-3.2 3.2zM26.696 5.179c-0.878-1.634-2.477-3.579-5.096-3.579h-7.984c-0.062 0.005-0.736 0.080-1.752 0.84-1.013 0.758-2.568 2.355-4.221 5.664-3.243 6.486-4.24 8.53-4.25 8.549-0.002 0.003-0.002 0.005-0.003 0.006-0.402 0.805-0.117 1.859 0.622 2.302 0.333 0.2 0.722 0.253 1.096 0.152 0.398-0.109 0.733-0.378 0.939-0.755 0.003-0.005 0.006-0.011 0.010-0.016l2.498-4.328c0.51-0.933 1.085-1.325 1.707-1.166 0.624 0.158 0.939 0.782 0.939 1.851v12.499c0 0.882 0.718 1.6 1.6 1.6s1.6-0.718 1.6-1.6v-10.4c0-0.442 0.358-0.8 0.8-0.8s0.8 0.358 0.8 0.8v2.4c0 0.882 0.718 1.6 1.6 1.6s1.6-0.718 1.6-1.6v-2.4c0-0.442 0.358-0.8 0.8-0.8s0.8 0.358 0.8 0.8v0.8c0 0.882 0.718 1.6 1.6 1.6s1.6-0.718 1.6-1.6v-2.4c0-0.442 0.358-0.8 0.8-0.8s0.8 0.358 0.8 0.8v0.8c0 0.882 0.718 1.6 1.6 1.6s1.6-0.718 1.6-1.6c0-4.522-0.728-8.264-2.104-10.821z"></path>
</svg>
