<?xml version="1.0" encoding="utf-8"?>
<!-- Generated by IcoMoon.io -->
<!DOCTYPE svg PUBLIC "-//W3C//DTD SVG 1.1//EN" "http://www.w3.org/Graphics/SVG/1.1/DTD/svg11.dtd">
<svg version="1.1" xmlns="http://www.w3.org/2000/svg" xmlns:xlink="http://www.w3.org/1999/xlink" width="32" height="32" viewBox="0 0 32 32">
<path d="M27.291 21.285c-0.123-0.070-0.251-0.139-0.382-0.206 1.528-1.198 1.89-2.509 1.89-3.478 0-2.27-1.909-4.248-5.080-5.454 0.184-0.562 0.28-1.152 0.28-1.746 0-3.088-2.512-5.6-5.6-5.6-1.094 0-2.4-0.277-2.4-1.6 0-0.725 0.925-1.517 1.246-1.736 0.293-0.197 0.422-0.56 0.32-0.898s-0.413-0.566-0.765-0.566c-2.507 0-5.085 0.824-7.069 2.261-1.013 0.733-1.816 1.581-2.389 2.52-0.626 1.026-0.942 2.109-0.942 3.219 0 0.461 0.038 0.918 0.112 1.368-1.358 0.656-2.506 1.522-3.344 2.53-1.026 1.232-1.568 2.651-1.568 4.102 0 0.874 0.197 1.765 0.57 2.626-1.421 1.366-2.17 2.938-2.17 4.574 0 2.44 1.645 4.698 4.629 6.357 2.837 1.576 6.59 2.443 10.571 2.443 4.093 0 7.806-0.533 10.456-1.499 3.92-1.429 4.744-3.454 4.744-4.901 0-1.165-0.539-2.859-3.109-4.315zM25.109 28.998c-2.48 0.904-5.998 1.402-9.909 1.402-3.712 0-7.19-0.797-9.794-2.243-2.454-1.363-3.806-3.125-3.806-4.957 0-1.275 0.656-2.338 1.387-3.123 0.184 0.262 0.384 0.518 0.603 0.766 1.274 1.454 3.046 2.565 4.989 3.125 0.074 0.021 0.149 0.032 0.222 0.032 0.347 0 0.667-0.227 0.768-0.578 0.123-0.424-0.122-0.867-0.547-0.99-3.318-0.958-5.822-3.723-5.822-6.432 0-1.958 1.408-3.838 3.726-5.048 0.838 2.309 2.608 4.226 4.806 5.003 0.088 0.030 0.178 0.046 0.267 0.046 0.33 0 0.638-0.205 0.754-0.533 0.147-0.416-0.070-0.874-0.488-1.021-2.432-0.859-4.267-3.63-4.267-6.446 0-1.619 0.947-3.197 2.669-4.443 1.19-0.861 2.629-1.469 4.125-1.76-0.23 0.413-0.394 0.886-0.394 1.403 0 1.547 1.051 3.2 4 3.2 2.205 0 4 1.795 4 4 0 0.434-0.067 0.853-0.2 1.254-0.653-0.178-1.346-0.326-2.072-0.443-0.437-0.070-0.846 0.227-0.917 0.662s0.227 0.846 0.662 0.917c2.219 0.357 4.101 1.035 5.442 1.962 0.861 0.595 1.886 1.571 1.886 2.848 0 1.032-0.685 1.949-2.037 2.728-1.464-0.52-3.178-0.902-5.070-1.123-0.438-0.051-0.837 0.262-0.888 0.702s0.262 0.837 0.702 0.888c2.698 0.315 4.979 0.966 6.595 1.882 1.048 0.594 2.298 1.582 2.298 2.923 0 1.696-2.008 2.784-3.691 3.398z"></path>
</svg>
