<?xml version="1.0" encoding="utf-8"?>
<!-- Generated by IcoMoon.io -->
<!DOCTYPE svg PUBLIC "-//W3C//DTD SVG 1.1//EN" "http://www.w3.org/Graphics/SVG/1.1/DTD/svg11.dtd">
<svg version="1.1" xmlns="http://www.w3.org/2000/svg" xmlns:xlink="http://www.w3.org/1999/xlink" width="32" height="32" viewBox="0 0 32 32">
<path d="M15.2 19.2c-0.442 0-0.8-0.358-0.8-0.8v-14.4c0-0.442 0.358-0.8 0.8-0.8s0.8 0.358 0.8 0.8v14.4c0 0.442-0.358 0.8-0.8 0.8z"></path>
<path d="M15.2 30.4c-3.205 0-6.219-1.248-8.485-3.515s-3.515-5.28-3.515-8.485c0-2.637 0.84-5.139 2.427-7.237 1.536-2.029 3.718-3.544 6.144-4.266 0.424-0.126 0.869 0.115 0.995 0.539s-0.115 0.869-0.539 0.995c-4.373 1.302-7.429 5.402-7.429 9.97 0 5.734 4.666 10.4 10.4 10.4s10.4-4.666 10.4-10.4c0-4.568-3.054-8.667-7.429-9.97-0.424-0.126-0.664-0.571-0.539-0.995s0.571-0.664 0.995-0.539c2.427 0.722 4.608 2.237 6.144 4.266 1.589 2.098 2.427 4.6 2.427 7.237 0 3.205-1.248 6.219-3.515 8.485s-5.28 3.515-8.485 3.515z"></path>
</svg>
