<?xml version="1.0" encoding="utf-8"?>
<!-- Generated by IcoMoon.io -->
<!DOCTYPE svg PUBLIC "-//W3C//DTD SVG 1.1//EN" "http://www.w3.org/Graphics/SVG/1.1/DTD/svg11.dtd">
<svg version="1.1" xmlns="http://www.w3.org/2000/svg" xmlns:xlink="http://www.w3.org/1999/xlink" width="32" height="32" viewBox="0 0 32 32">
<path d="M29.6 6.4h-2.4v-4c0-1.323-1.077-2.4-2.4-2.4h-17.6c-1.323 0-2.4 1.077-2.4 2.4v4h-2.4c-1.323 0-2.4 1.077-2.4 2.4v14.4c0 1.323 1.077 2.4 2.4 2.4h2.4v4c0 1.323 1.077 2.4 2.4 2.4h17.6c1.323 0 2.4-1.077 2.4-2.4v-4h2.4c1.323 0 2.4-1.077 2.4-2.4v-14.4c0-1.323-1.077-2.4-2.4-2.4zM6.4 2.4c0-0.442 0.358-0.8 0.8-0.8h17.6c0.442 0 0.8 0.358 0.8 0.8v4h-19.2v-4zM24.8 30.4h-17.6c-0.442 0-0.8-0.358-0.8-0.8v-10.4h19.2v10.4c0 0.442-0.358 0.8-0.8 0.8zM30.4 23.2c0 0.442-0.358 0.8-0.8 0.8h-2.4v-4.8h0.8c0.442 0 0.8-0.358 0.8-0.8s-0.358-0.8-0.8-0.8h-24c-0.442 0-0.8 0.358-0.8 0.8s0.358 0.8 0.8 0.8h0.8v4.8h-2.4c-0.442 0-0.8-0.358-0.8-0.8v-14.4c0-0.442 0.358-0.8 0.8-0.8h27.2c0.442 0 0.8 0.358 0.8 0.8v14.4z"></path>
<path d="M23.2 22.4h-14.4c-0.442 0-0.8-0.358-0.8-0.8s0.358-0.8 0.8-0.8h14.4c0.442 0 0.8 0.358 0.8 0.8s-0.358 0.8-0.8 0.8z"></path>
<path d="M23.2 25.6h-14.4c-0.442 0-0.8-0.358-0.8-0.8s0.358-0.8 0.8-0.8h14.4c0.442 0 0.8 0.358 0.8 0.8s-0.358 0.8-0.8 0.8z"></path>
<path d="M23.2 28.8h-14.4c-0.442 0-0.8-0.358-0.8-0.8s0.358-0.8 0.8-0.8h14.4c0.442 0 0.8 0.358 0.8 0.8s-0.358 0.8-0.8 0.8z"></path>
<path d="M26.4 14.4c-1.323 0-2.4-1.077-2.4-2.4s1.077-2.4 2.4-2.4 2.4 1.077 2.4 2.4-1.077 2.4-2.4 2.4zM26.4 11.2c-0.442 0-0.8 0.358-0.8 0.8s0.358 0.8 0.8 0.8 0.8-0.358 0.8-0.8-0.358-0.8-0.8-0.8z"></path>
</svg>
