<?xml version="1.0" encoding="utf-8"?>
<!-- Generated by IcoMoon.io -->
<!DOCTYPE svg PUBLIC "-//W3C//DTD SVG 1.1//EN" "http://www.w3.org/Graphics/SVG/1.1/DTD/svg11.dtd">
<svg version="1.1" xmlns="http://www.w3.org/2000/svg" xmlns:xlink="http://www.w3.org/1999/xlink" width="32" height="32" viewBox="0 0 32 32">
<path d="M28.8 10.869l-8.469-8.469c-0.301-0.301-0.704-0.467-1.131-0.467s-0.83 0.166-1.131 0.467l-0.469 0.469c-0.464 0.464-0.8 1.275-0.8 1.931v1.6c0 0.227-0.17 0.638-0.331 0.8l-4.469 4.469c-0.162 0.162-0.573 0.331-0.8 0.331h-1.6c-0.656 0-1.467 0.336-1.931 0.8l-0.469 0.469c-0.624 0.624-0.624 1.638 0 2.262l2.485 2.485-7.92 10.296c-0.245 0.318-0.216 0.77 0.069 1.053 0.155 0.155 0.36 0.234 0.566 0.234 0.171 0 0.342-0.054 0.488-0.166l10.296-7.92 2.485 2.485c0.301 0.301 0.704 0.467 1.131 0.467s0.83-0.166 1.131-0.467l0.469-0.469c0.464-0.464 0.8-1.275 0.8-1.931v-1.6c0-0.227 0.17-0.638 0.331-0.8l4.469-4.469c0.162-0.162 0.573-0.331 0.8-0.331h1.6c0.656 0 1.467-0.336 1.931-0.8l0.469-0.469c0.301-0.301 0.467-0.704 0.467-1.131s-0.166-0.83-0.467-1.131zM6.774 24.426l4.053-5.269 1.216 1.216-5.269 4.053zM27.2 12.469c-0.162 0.162-0.573 0.331-0.8 0.331h-1.6c-0.656 0-1.467 0.336-1.931 0.8l-4.469 4.469c-0.464 0.464-0.8 1.275-0.8 1.931v1.6c0 0.227-0.17 0.638-0.331 0.8l-0.467 0.467c0 0-0.002 0-0.002 0v0.002l-8.469-8.469 0.469-0.469c0.162-0.162 0.573-0.331 0.8-0.331h1.6c0.656 0 1.467-0.336 1.931-0.8l4.469-4.469c0.464-0.464 0.8-1.275 0.8-1.931v-1.6c0-0.227 0.17-0.638 0.331-0.8l0.469-0.469 8.469 8.469-0.469 0.469z"></path>
</svg>
