<?xml version="1.0" encoding="utf-8"?>
<!-- Generated by IcoMoon.io -->
<!DOCTYPE svg PUBLIC "-//W3C//DTD SVG 1.1//EN" "http://www.w3.org/Graphics/SVG/1.1/DTD/svg11.dtd">
<svg version="1.1" xmlns="http://www.w3.org/2000/svg" xmlns:xlink="http://www.w3.org/1999/xlink" width="32" height="32" viewBox="0 0 32 32">
<path d="M25.949 6.051c-2.87-2.87-6.688-4.451-10.749-4.451s-7.877 1.581-10.749 4.451-4.451 6.688-4.451 10.747 1.581 7.877 4.451 10.749 6.688 4.451 10.749 4.451 7.877-1.581 10.749-4.451 4.451-6.688 4.451-10.749-1.581-7.877-4.451-10.747zM15.2 30.4c-7.499 0-13.6-6.101-13.6-13.6s6.101-13.6 13.6-13.6c7.499 0 13.6 6.101 13.6 13.6s-6.101 13.6-13.6 13.6z"></path>
<path d="M15.2 24c-0.442 0-0.8-0.358-0.8-0.8v-3.2c0-0.442 0.358-0.8 0.8-0.8 3.088 0 5.6-2.512 5.6-5.6s-2.512-5.6-5.6-5.6-5.6 2.512-5.6 5.6c0 0.442-0.358 0.8-0.8 0.8s-0.8-0.358-0.8-0.8c0-3.97 3.23-7.2 7.2-7.2s7.2 3.23 7.2 7.2c0 3.699-2.805 6.757-6.4 7.155v2.445c0 0.442-0.358 0.8-0.8 0.8z"></path>
<path d="M15.2 28.8c0 0 0 0 0 0-0.442 0-0.8-0.358-0.8-0.8v-1.6c0-0.442 0.358-0.8 0.8-0.8 0 0 0 0 0 0 0.442 0 0.8 0.358 0.8 0.8v1.6c0 0.442-0.358 0.8-0.8 0.8z"></path>
</svg>
