<?xml version="1.0" encoding="utf-8"?>
<!-- Generated by IcoMoon.io -->
<!DOCTYPE svg PUBLIC "-//W3C//DTD SVG 1.1//EN" "http://www.w3.org/Graphics/SVG/1.1/DTD/svg11.dtd">
<svg version="1.1" xmlns="http://www.w3.org/2000/svg" xmlns:xlink="http://www.w3.org/1999/xlink" width="32" height="32" viewBox="0 0 32 32">
<path d="M21.6 14.4c-2.205 0-4-1.795-4-4s1.795-4 4-4 4 1.795 4 4-1.795 4-4 4zM21.6 8c-1.323 0-2.4 1.077-2.4 2.4s1.077 2.4 2.4 2.4 2.4-1.077 2.4-2.4-1.077-2.4-2.4-2.4z"></path>
<path d="M0.8 32c-0.208 0-0.413-0.082-0.566-0.234-0.219-0.219-0.293-0.547-0.186-0.838 2.462-6.77 5.051-10.203 7.693-10.203 0.872 0 1.686 0.374 2.424 1.11 1.165 1.165 1.206 2.325 1.037 3.093-0.534 2.413-3.942 4.776-10.128 7.026-0.090 0.032-0.182 0.048-0.274 0.048zM7.742 22.323c-0.792 0-1.725 0.694-2.696 2.008-0.955 1.291-1.915 3.131-2.861 5.483 2.136-0.859 3.853-1.731 5.118-2.6 1.707-1.173 2.213-2.080 2.336-2.634s-0.075-1.083-0.606-1.614c-0.432-0.432-0.854-0.642-1.293-0.642z"></path>
<path d="M31.2 0c-4.152 0-7.851 0.704-10.998 2.093-2.594 1.146-4.814 2.752-6.602 4.778-0.333 0.378-0.642 0.76-0.928 1.144-1.379 0.091-2.79 0.64-4.198 1.632-1.192 0.838-2.389 2-3.56 3.451-1.968 2.438-3.178 4.843-3.229 4.944-0.174 0.35-0.070 0.776 0.246 1.005 0.141 0.102 0.306 0.152 0.469 0.152 0.205 0 0.41-0.078 0.565-0.232 0.008-0.008 0.773-0.76 2.077-1.498 1.075-0.608 2.733-1.323 4.738-1.45 0.507 1.298 1.958 2.85 2.654 3.546s2.248 2.147 3.546 2.654c-0.126 2.005-0.842 3.662-1.45 4.738-0.739 1.306-1.49 2.069-1.496 2.075-0.277 0.277-0.312 0.715-0.083 1.034 0.155 0.214 0.398 0.333 0.65 0.333 0.122 0 0.243-0.027 0.357-0.085 0.101-0.051 2.506-1.261 4.944-3.229 1.451-1.171 2.613-2.368 3.451-3.56 0.992-1.41 1.539-2.819 1.632-4.198 0.382-0.285 0.765-0.594 1.144-0.928 2.026-1.787 3.632-4.008 4.778-6.602 1.389-3.146 2.093-6.846 2.093-10.998v-0.8h-0.8zM4.971 15.693c1.525-2.213 3.856-4.957 6.483-5.819-1.038 1.819-1.576 3.49-1.77 4.549-1.854 0.114-3.453 0.653-4.714 1.27zM16.309 27.024c0.618-1.261 1.157-2.858 1.269-4.71 1.058-0.194 2.73-0.731 4.547-1.768-0.864 2.622-3.606 4.954-5.818 6.478zM24.070 17.2c-3.328 2.936-6.774 3.6-7.27 3.6-0.003 0-0.331-0.006-1.214-0.629-0.616-0.434-1.334-1.051-2.019-1.736s-1.302-1.403-1.736-2.019c-0.622-0.883-0.629-1.211-0.629-1.214 0-0.496 0.664-3.942 3.6-7.27 3.514-3.981 8.891-6.158 15.59-6.32-0.162 6.699-2.338 12.077-6.32 15.59z"></path>
</svg>
