<?xml version="1.0" encoding="utf-8"?>
<!-- Generated by IcoMoon.io -->
<!DOCTYPE svg PUBLIC "-//W3C//DTD SVG 1.1//EN" "http://www.w3.org/Graphics/SVG/1.1/DTD/svg11.dtd">
<svg version="1.1" xmlns="http://www.w3.org/2000/svg" xmlns:xlink="http://www.w3.org/1999/xlink" width="32" height="32" viewBox="0 0 32 32">
<path d="M15.2 32c-4.061 0-7.877-1.581-10.749-4.451s-4.451-6.688-4.451-10.747c0-4.061 1.581-7.877 4.451-10.749s6.688-4.453 10.749-4.453c4.061 0 7.877 1.581 10.749 4.453s4.451 6.688 4.451 10.749-1.581 7.877-4.451 10.747c-2.87 2.87-6.688 4.451-10.749 4.451zM15.2 3.2c-7.499 0-13.6 6.101-13.6 13.6s6.101 13.6 13.6 13.6 13.6-6.101 13.6-13.6-6.101-13.6-13.6-13.6z"></path>
<path d="M10.4 12.8c-1.323 0-2.4-1.077-2.4-2.4s1.077-2.4 2.4-2.4 2.4 1.077 2.4 2.4-1.077 2.4-2.4 2.4zM10.4 9.6c-0.442 0-0.8 0.358-0.8 0.8s0.358 0.8 0.8 0.8 0.8-0.358 0.8-0.8-0.358-0.8-0.8-0.8z"></path>
<path d="M20 12.8c-1.323 0-2.4-1.077-2.4-2.4s1.077-2.4 2.4-2.4 2.4 1.077 2.4 2.4-1.077 2.4-2.4 2.4zM20 9.6c-0.442 0-0.8 0.358-0.8 0.8s0.358 0.8 0.8 0.8 0.8-0.358 0.8-0.8-0.358-0.8-0.8-0.8z"></path>
<path d="M8.798 24c-0.168 0-0.336-0.053-0.48-0.16-0.354-0.266-0.424-0.766-0.158-1.12 0.803-1.069 1.854-1.954 3.042-2.56 1.245-0.637 2.59-0.958 3.998-0.958s2.754 0.323 3.998 0.958c1.187 0.606 2.238 1.491 3.042 2.56 0.266 0.354 0.194 0.854-0.158 1.12s-0.854 0.194-1.12-0.158c-1.374-1.83-3.475-2.88-5.762-2.88s-4.386 1.050-5.762 2.88c-0.157 0.21-0.397 0.32-0.64 0.32z"></path>
</svg>
