<?xml version="1.0" encoding="utf-8"?>
<!-- Generated by IcoMoon.io -->
<!DOCTYPE svg PUBLIC "-//W3C//DTD SVG 1.1//EN" "http://www.w3.org/Graphics/SVG/1.1/DTD/svg11.dtd">
<svg version="1.1" xmlns="http://www.w3.org/2000/svg" xmlns:xlink="http://www.w3.org/1999/xlink" width="32" height="32" viewBox="0 0 32 32">
<path d="M28 3.2h-25.6c-1.323 0-2.4 1.077-2.4 2.4v16c0 1.323 1.077 2.4 2.4 2.4h12v3.2h-5.6c-0.442 0-0.8 0.358-0.8 0.8s0.358 0.8 0.8 0.8h12.8c0.442 0 0.8-0.358 0.8-0.8s-0.358-0.8-0.8-0.8h-5.6v-3.2h12c1.323 0 2.4-1.077 2.4-2.4v-16c0-1.323-1.077-2.4-2.4-2.4zM28.8 21.6c0 0.442-0.358 0.8-0.8 0.8h-25.6c-0.442 0-0.8-0.358-0.8-0.8v-16c0-0.442 0.358-0.8 0.8-0.8h25.6c0.442 0 0.8 0.358 0.8 0.8v16z"></path>
</svg>
