<?xml version="1.0" encoding="utf-8"?>
<!-- Generated by IcoMoon.io -->
<!DOCTYPE svg PUBLIC "-//W3C//DTD SVG 1.1//EN" "http://www.w3.org/Graphics/SVG/1.1/DTD/svg11.dtd">
<svg version="1.1" xmlns="http://www.w3.org/2000/svg" xmlns:xlink="http://www.w3.org/1999/xlink" width="32" height="32" viewBox="0 0 32 32">
<path d="M8.8 24h-6.4c-1.323 0-2.4-1.077-2.4-2.4v-19.2c0-1.323 1.077-2.4 2.4-2.4h22.4c1.323 0 2.4 1.077 2.4 2.4v11.2c0 0.442-0.358 0.8-0.8 0.8s-0.8-0.358-0.8-0.8v-11.2c0-0.442-0.358-0.8-0.8-0.8h-22.4c-0.442 0-0.8 0.358-0.8 0.8v19.2c0 0.442 0.358 0.8 0.8 0.8h6.4c0.442 0 0.8 0.358 0.8 0.8s-0.358 0.8-0.8 0.8z"></path>
<path d="M20.8 32c-0.317 0-0.618-0.19-0.742-0.502l-2.715-6.787-4.741 5.418c-0.219 0.251-0.571 0.339-0.883 0.222s-0.518-0.416-0.518-0.749v-24c0-0.317 0.187-0.603 0.477-0.731s0.627-0.074 0.862 0.139l17.6 16c0.245 0.222 0.328 0.573 0.208 0.88s-0.416 0.512-0.746 0.512h-6.818l2.762 6.902c0.165 0.41-0.035 0.875-0.446 1.040l-4 1.6c-0.098 0.038-0.198 0.058-0.298 0.058zM17.6 22.4c0.045 0 0.090 0.003 0.134 0.011 0.275 0.046 0.504 0.234 0.608 0.491l2.902 7.258 2.515-1.006-2.902-7.258c-0.099-0.246-0.069-0.526 0.080-0.746s0.397-0.352 0.662-0.352h5.931l-14.731-13.392v20.062l4.198-4.798c0.154-0.174 0.373-0.274 0.602-0.274z"></path>
</svg>
