<?xml version="1.0" encoding="utf-8"?>
<!-- Generated by IcoMoon.io -->
<!DOCTYPE svg PUBLIC "-//W3C//DTD SVG 1.1//EN" "http://www.w3.org/Graphics/SVG/1.1/DTD/svg11.dtd">
<svg version="1.1" xmlns="http://www.w3.org/2000/svg" xmlns:xlink="http://www.w3.org/1999/xlink" width="32" height="32" viewBox="0 0 32 32">
<path d="M21.6 30.4h-12.8c-1.323 0-2.4-1.077-2.4-2.4v-14.89l-3.747 1.25c-0.419 0.139-0.872-0.086-1.011-0.506l-1.6-4.8c-0.126-0.378 0.045-0.79 0.402-0.968l9.6-4.8c0.248-0.123 0.542-0.11 0.778 0.035s0.379 0.403 0.379 0.68c0 2.205 1.795 4 4 4s4-1.795 4-4c0-0.277 0.144-0.534 0.379-0.68s0.53-0.158 0.778-0.035l9.6 4.8c0.357 0.178 0.526 0.59 0.402 0.968l-1.6 4.8c-0.139 0.419-0.592 0.646-1.011 0.506l-3.747-1.25v14.89c0 1.323-1.077 2.4-2.4 2.4zM7.2 11.2c0.166 0 0.33 0.051 0.467 0.15 0.208 0.15 0.333 0.392 0.333 0.65v16c0 0.442 0.358 0.8 0.8 0.8h12.8c0.442 0 0.8-0.358 0.8-0.8v-16c0-0.258 0.123-0.499 0.333-0.65s0.477-0.192 0.72-0.11l4.042 1.347 1.128-3.382-7.957-3.979c-0.562 2.499-2.798 4.373-5.464 4.373s-4.904-1.874-5.464-4.373l-7.957 3.979 1.128 3.382 4.042-1.347c0.083-0.027 0.168-0.042 0.253-0.042z"></path>
</svg>
