<?xml version="1.0" encoding="utf-8"?>
<!-- Generated by IcoMoon.io -->
<!DOCTYPE svg PUBLIC "-//W3C//DTD SVG 1.1//EN" "http://www.w3.org/Graphics/SVG/1.1/DTD/svg11.dtd">
<svg version="1.1" xmlns="http://www.w3.org/2000/svg" xmlns:xlink="http://www.w3.org/1999/xlink" width="32" height="32" viewBox="0 0 32 32">
<path d="M14.166 23.434c-0.312-0.312-0.819-0.312-1.131 0l-5.034 5.034v-27.669c0-0.442-0.358-0.8-0.8-0.8s-0.8 0.358-0.8 0.8v27.669l-5.034-5.034c-0.312-0.312-0.819-0.312-1.131 0s-0.312 0.819 0 1.131l6.4 6.4c0.157 0.157 0.362 0.234 0.566 0.234s0.41-0.078 0.566-0.234l6.4-6.4c0.312-0.312 0.312-0.819 0-1.131z"></path>
<path d="M31.936 11.685l-4.8-11.2c-0.126-0.294-0.416-0.485-0.736-0.485s-0.61 0.19-0.736 0.485l-4.8 11.2c-0.174 0.406 0.014 0.877 0.421 1.051s0.877-0.014 1.051-0.421l1.85-4.315h4.43l1.85 4.315c0.13 0.304 0.426 0.485 0.736 0.485 0.106 0 0.213-0.021 0.315-0.066 0.406-0.174 0.594-0.645 0.421-1.051zM24.87 6.4l1.53-3.57 1.53 3.57h-3.059z"></path>
<path d="M29.6 32h-6.4c-0.285 0-0.549-0.152-0.691-0.398s-0.144-0.55-0.003-0.798l5.717-10.003h-5.021c-0.442 0-0.8-0.358-0.8-0.8s0.358-0.8 0.8-0.8h6.4c0.285 0 0.549 0.152 0.691 0.398s0.144 0.55 0.003 0.798l-5.717 10.003h5.021c0.442 0 0.8 0.358 0.8 0.8s-0.358 0.8-0.8 0.8z"></path>
</svg>
