<?xml version="1.0" encoding="utf-8"?>
<!-- Generated by IcoMoon.io -->
<!DOCTYPE svg PUBLIC "-//W3C//DTD SVG 1.1//EN" "http://www.w3.org/Graphics/SVG/1.1/DTD/svg11.dtd">
<svg version="1.1" xmlns="http://www.w3.org/2000/svg" xmlns:xlink="http://www.w3.org/1999/xlink" width="32" height="32" viewBox="0 0 32 32">
<path d="M14.166 23.434c-0.312-0.312-0.819-0.312-1.131 0l-5.034 5.034v-27.669c0-0.442-0.358-0.8-0.8-0.8s-0.8 0.358-0.8 0.8v27.669l-5.034-5.034c-0.312-0.312-0.819-0.312-1.131 0s-0.312 0.819 0 1.131l6.4 6.4c0.157 0.157 0.362 0.234 0.566 0.234s0.41-0.078 0.566-0.234l6.4-6.4c0.312-0.312 0.312-0.819 0-1.131z"></path>
<path d="M21.6 8h-3.2c-0.442 0-0.8-0.358-0.8-0.8v-3.2c0-0.442 0.358-0.8 0.8-0.8h3.2c0.442 0 0.8 0.358 0.8 0.8v3.2c0 0.442-0.358 0.8-0.8 0.8zM19.2 6.4h1.6v-1.6h-1.6v1.6z"></path>
<path d="M24.8 14.4h-6.4c-0.442 0-0.8-0.358-0.8-0.8v-3.2c0-0.442 0.358-0.8 0.8-0.8h6.4c0.442 0 0.8 0.358 0.8 0.8v3.2c0 0.442-0.358 0.8-0.8 0.8zM19.2 12.8h4.8v-1.6h-4.8v1.6z"></path>
<path d="M28 20.8h-9.6c-0.442 0-0.8-0.358-0.8-0.8v-3.2c0-0.442 0.358-0.8 0.8-0.8h9.6c0.442 0 0.8 0.358 0.8 0.8v3.2c0 0.442-0.358 0.8-0.8 0.8zM19.2 19.2h8v-1.6h-8v1.6z"></path>
<path d="M31.2 27.2h-12.8c-0.442 0-0.8-0.358-0.8-0.8v-3.2c0-0.442 0.358-0.8 0.8-0.8h12.8c0.442 0 0.8 0.358 0.8 0.8v3.2c0 0.442-0.358 0.8-0.8 0.8zM19.2 25.6h11.2v-1.6h-11.2v1.6z"></path>
</svg>
