<?xml version="1.0" encoding="utf-8"?>
<!-- Generated by IcoMoon.io -->
<!DOCTYPE svg PUBLIC "-//W3C//DTD SVG 1.1//EN" "http://www.w3.org/Graphics/SVG/1.1/DTD/svg11.dtd">
<svg version="1.1" xmlns="http://www.w3.org/2000/svg" xmlns:xlink="http://www.w3.org/1999/xlink" width="32" height="32" viewBox="0 0 32 32">
<path d="M7.2 22.4c-0.442 0-0.8 0.358-0.8 0.8v0.002c-0.669-0.504-1.501-0.802-2.4-0.802-2.205 0-4 1.795-4 4s1.795 4 4 4c0.899 0 1.731-0.299 2.4-0.802v0.002c0 0.442 0.358 0.8 0.8 0.8s0.8-0.358 0.8-0.8v-6.4c0-0.442-0.358-0.8-0.8-0.8zM4 28.8c-1.323 0-2.4-1.077-2.4-2.4s1.077-2.4 2.4-2.4 2.4 1.077 2.4 2.4-1.077 2.4-2.4 2.4z"></path>
<path d="M13.6 22.4c-0.899 0-1.731 0.299-2.4 0.802v-6.402c0-0.442-0.358-0.8-0.8-0.8s-0.8 0.358-0.8 0.8v12.8c0 0.442 0.358 0.8 0.8 0.8s0.8-0.358 0.8-0.8v-0.002c0.669 0.504 1.501 0.802 2.4 0.802 2.205 0 4-1.795 4-4s-1.795-4-4-4zM13.6 28.8c-1.323 0-2.4-1.077-2.4-2.4s1.077-2.4 2.4-2.4 2.4 1.077 2.4 2.4-1.077 2.4-2.4 2.4z"></path>
<path d="M23.2 30.4c-2.205 0-4-1.795-4-4s1.795-4 4-4c0.702 0 1.395 0.186 2 0.536 0.382 0.221 0.514 0.71 0.293 1.093s-0.71 0.514-1.093 0.293c-0.363-0.21-0.778-0.32-1.2-0.32-1.323 0-2.4 1.077-2.4 2.4s1.077 2.4 2.4 2.4c0.422 0 0.837-0.11 1.2-0.32 0.382-0.221 0.872-0.091 1.093 0.291s0.091 0.872-0.291 1.093c-0.606 0.35-1.298 0.536-2 0.536z"></path>
<path d="M18.4 16.8c-0.205 0-0.41-0.078-0.566-0.234l-4.8-4.8c-0.312-0.312-0.312-0.819 0-1.131s0.819-0.312 1.131 0l4.234 4.234 10.634-10.634c0.312-0.312 0.819-0.312 1.131 0s0.312 0.819 0 1.131l-11.2 11.2c-0.157 0.157-0.362 0.234-0.566 0.234z"></path>
</svg>
