<?xml version="1.0" encoding="utf-8"?>
<!-- Generated by IcoMoon.io -->
<!DOCTYPE svg PUBLIC "-//W3C//DTD SVG 1.1//EN" "http://www.w3.org/Graphics/SVG/1.1/DTD/svg11.dtd">
<svg version="1.1" xmlns="http://www.w3.org/2000/svg" xmlns:xlink="http://www.w3.org/1999/xlink" width="32" height="32" viewBox="0 0 32 32">
<path d="M24.8 30.4c-0.131 0-0.262-0.032-0.382-0.098l-8.418-4.59-8.418 4.59c-0.269 0.147-0.597 0.126-0.846-0.051s-0.376-0.482-0.325-0.784l1.533-9.194-6.109-6.109c-0.211-0.211-0.288-0.525-0.197-0.81s0.334-0.496 0.63-0.546l9.198-1.533 3.818-7.635c0.136-0.27 0.413-0.442 0.715-0.442s0.581 0.171 0.715 0.442l3.818 7.635 9.198 1.533c0.296 0.050 0.539 0.259 0.63 0.546s0.016 0.598-0.197 0.81l-6.109 6.109 1.533 9.194c0.050 0.302-0.077 0.606-0.325 0.784-0.138 0.098-0.301 0.149-0.464 0.149zM16 24c0.131 0 0.264 0.032 0.382 0.098l7.358 4.013-1.33-7.979c-0.043-0.254 0.040-0.515 0.224-0.698l5.301-5.301-8.067-1.344c-0.253-0.042-0.469-0.203-0.584-0.432l-3.285-6.57-3.285 6.57c-0.115 0.229-0.331 0.389-0.584 0.432l-8.067 1.344 5.301 5.301c0.182 0.182 0.266 0.442 0.224 0.698l-1.33 7.979 7.358-4.013c0.12-0.066 0.251-0.098 0.382-0.098z"></path>
</svg>
