<?xml version="1.0" encoding="utf-8"?>
<!-- Generated by IcoMoon.io -->
<!DOCTYPE svg PUBLIC "-//W3C//DTD SVG 1.1//EN" "http://www.w3.org/Graphics/SVG/1.1/DTD/svg11.dtd">
<svg version="1.1" xmlns="http://www.w3.org/2000/svg" xmlns:xlink="http://www.w3.org/1999/xlink" width="32" height="32" viewBox="0 0 32 32">
<path d="M24.8 30.4c-0.131 0-0.262-0.032-0.382-0.098l-4.8-2.618c-0.387-0.211-0.531-0.698-0.32-1.085s0.698-0.531 1.085-0.32l3.357 1.832-0.264-1.579c-0.072-0.435 0.222-0.848 0.658-0.92s0.848 0.222 0.92 0.658l0.533 3.2c0.050 0.302-0.077 0.606-0.325 0.784-0.138 0.098-0.301 0.149-0.464 0.149z"></path>
<path d="M23.733 24c-0.384 0-0.723-0.277-0.789-0.669l-0.533-3.2c-0.043-0.254 0.040-0.515 0.224-0.698l1.6-1.6c0.312-0.312 0.819-0.312 1.131 0s0.312 0.819 0 1.131l-1.309 1.309 0.466 2.794c0.072 0.435-0.222 0.848-0.658 0.92-0.045 0.008-0.088 0.011-0.133 0.011z"></path>
<path d="M28 16c-0.205 0-0.41-0.078-0.566-0.234-0.312-0.312-0.312-0.819 0-1.131l0.501-0.501-3.267-0.544c-0.435-0.072-0.73-0.485-0.658-0.92s0.485-0.73 0.92-0.658l4.8 0.8c0.296 0.050 0.539 0.259 0.63 0.546s0.016 0.598-0.197 0.81l-1.6 1.6c-0.157 0.157-0.362 0.235-0.566 0.235z"></path>
<path d="M21.602 13.067c-0.043 0-0.088-0.003-0.133-0.011l-1.6-0.267c-0.253-0.042-0.469-0.203-0.584-0.432l-1.6-3.2c-0.197-0.395-0.037-0.875 0.358-1.074s0.875-0.037 1.074 0.358l1.418 2.835 1.198 0.2c0.435 0.072 0.73 0.485 0.658 0.92-0.066 0.39-0.405 0.669-0.789 0.669z"></path>
<path d="M7.2 30.4c-0.163 0-0.326-0.050-0.464-0.149-0.25-0.178-0.376-0.482-0.325-0.784l1.533-9.194-6.109-6.109c-0.211-0.211-0.288-0.525-0.197-0.81s0.334-0.496 0.63-0.546l9.198-1.533 3.818-7.635c0.136-0.27 0.413-0.442 0.715-0.442 0 0 0 0 0 0 0.302 0 0.581 0.171 0.715 0.442l0.8 1.6c0.197 0.395 0.037 0.875-0.358 1.074s-0.875 0.037-1.074-0.358l-0.085-0.17-3.285 6.57c-0.115 0.229-0.331 0.389-0.584 0.432l-8.067 1.344 5.301 5.301c0.182 0.182 0.266 0.442 0.224 0.698l-1.33 7.979 7.358-4.013c0.238-0.13 0.528-0.13 0.766 0l0.8 0.437c0.387 0.211 0.531 0.698 0.318 1.085s-0.698 0.531-1.085 0.318l-0.418-0.227-8.418 4.59c-0.12 0.066-0.251 0.098-0.382 0.098z"></path>
</svg>
