<?xml version="1.0" encoding="utf-8"?>
<!-- Generated by IcoMoon.io -->
<!DOCTYPE svg PUBLIC "-//W3C//DTD SVG 1.1//EN" "http://www.w3.org/Graphics/SVG/1.1/DTD/svg11.dtd">
<svg version="1.1" xmlns="http://www.w3.org/2000/svg" xmlns:xlink="http://www.w3.org/1999/xlink" width="32" height="32" viewBox="0 0 32 32">
<path d="M28.8 15.2v-1.6c0-0.125-0.029-0.246-0.085-0.358l-3.2-6.4c-0.136-0.27-0.413-0.442-0.715-0.442h-19.2c-0.302 0-0.581 0.171-0.715 0.442l-3.2 6.4c-0.056 0.11-0.085 0.234-0.085 0.358v1.6c0 1.306 0.629 2.467 1.6 3.198v10.402h-0.8c-0.442 0-0.8 0.358-0.8 0.8s0.358 0.8 0.8 0.8h25.6c0.442 0 0.8-0.358 0.8-0.8s-0.358-0.8-0.8-0.8h-0.8v-10.402c0.971-0.731 1.6-1.891 1.6-3.198zM18.4 17.6c-1.323 0-2.4-1.077-2.4-2.4v-0.8h4.8v0.8c0 1.323-1.077 2.4-2.4 2.4zM3.2 15.2v-0.8h4.8v0.8c0 1.323-1.077 2.4-2.4 2.4s-2.4-1.077-2.4-2.4zM14.4 8v4.8h-4.576l1.2-4.8h3.376zM19.376 8l1.2 4.8h-4.576v-4.8h3.376zM9.6 14.4h4.8v0.8c0 1.323-1.077 2.4-2.4 2.4s-2.4-1.077-2.4-2.4v-0.8zM22.4 14.4h4.8v0.8c0 1.323-1.077 2.4-2.4 2.4s-2.4-1.077-2.4-2.4v-0.8zM26.706 12.8h-4.482l-1.2-4.8h3.282l2.4 4.8zM6.094 8h3.282l-1.2 4.8h-4.482l2.4-4.8zM4.8 19.12c0.259 0.053 0.526 0.080 0.8 0.080 1.307 0 2.47-0.63 3.2-1.603 0.73 0.973 1.893 1.603 3.2 1.603s2.47-0.63 3.2-1.603c0.578 0.768 1.424 1.323 2.4 1.522v9.68h-12.8v-9.68zM25.6 28.8h-6.4v-9.68c0.976-0.198 1.822-0.754 2.4-1.522 0.73 0.973 1.893 1.603 3.2 1.603 0.274 0 0.541-0.027 0.8-0.080v9.68z"></path>
<path d="M22.4 23.2c0 0.442-0.358 0.8-0.8 0.8s-0.8-0.358-0.8-0.8c0-0.442 0.358-0.8 0.8-0.8s0.8 0.358 0.8 0.8z"></path>
<path d="M7.2 24c-0.205 0-0.41-0.078-0.566-0.234-0.312-0.312-0.312-0.819 0-1.131l1.6-1.6c0.312-0.312 0.819-0.312 1.131 0s0.312 0.819 0 1.131l-1.6 1.6c-0.157 0.157-0.362 0.234-0.566 0.234z"></path>
<path d="M8.8 27.2c-0.205 0-0.41-0.078-0.566-0.234-0.312-0.312-0.312-0.819 0-1.131l4.8-4.8c0.312-0.312 0.819-0.312 1.131 0s0.312 0.819 0 1.131l-4.8 4.8c-0.157 0.157-0.362 0.234-0.566 0.234z"></path>
<path d="M13.6 27.2c-0.205 0-0.41-0.078-0.566-0.234-0.312-0.312-0.312-0.819 0-1.131l1.6-1.6c0.312-0.312 0.819-0.312 1.131 0s0.312 0.819 0 1.131l-1.6 1.6c-0.157 0.157-0.362 0.234-0.566 0.234z"></path>
</svg>
