<?xml version="1.0" encoding="utf-8"?>
<!-- Generated by IcoMoon.io -->
<!DOCTYPE svg PUBLIC "-//W3C//DTD SVG 1.1//EN" "http://www.w3.org/Graphics/SVG/1.1/DTD/svg11.dtd">
<svg version="1.1" xmlns="http://www.w3.org/2000/svg" xmlns:xlink="http://www.w3.org/1999/xlink" width="32" height="32" viewBox="0 0 32 32">
<path d="M26.4 3.2h-22.4c-0.442 0-0.8 0.358-0.8 0.8s0.358 0.8 0.8 0.8h10.4v7.2c0 0.442 0.358 0.8 0.8 0.8s0.8-0.358 0.8-0.8v-7.2h10.4c0.442 0 0.8-0.358 0.8-0.8s-0.358-0.8-0.8-0.8z"></path>
<path d="M15.2 28.8c-0.442 0-0.8-0.358-0.8-0.8v-6.4c0-0.442 0.358-0.8 0.8-0.8s0.8 0.358 0.8 0.8v6.4c0 0.442-0.358 0.8-0.8 0.8z"></path>
<path d="M29.6 19.2h-28.8c-0.442 0-0.8-0.358-0.8-0.8v-3.2c0-0.442 0.358-0.8 0.8-0.8h28.8c0.442 0 0.8 0.358 0.8 0.8v3.2c0 0.442-0.358 0.8-0.8 0.8zM1.6 17.6h27.2v-1.6h-27.2v1.6z"></path>
</svg>
