<?xml version="1.0" encoding="utf-8"?>
<!-- Generated by IcoMoon.io -->
<!DOCTYPE svg PUBLIC "-//W3C//DTD SVG 1.1//EN" "http://www.w3.org/Graphics/SVG/1.1/DTD/svg11.dtd">
<svg version="1.1" xmlns="http://www.w3.org/2000/svg" xmlns:xlink="http://www.w3.org/1999/xlink" width="32" height="32" viewBox="0 0 32 32">
<path d="M31.766 13.834c-0.312-0.312-0.819-0.312-1.131 0l-1.838 1.838c-0.082-3.296-1.405-6.384-3.746-8.723-2.418-2.418-5.632-3.749-9.051-3.749-4.758 0-9.098 2.616-11.323 6.826-0.206 0.39-0.058 0.875 0.333 1.082s0.875 0.058 1.082-0.333c1.947-3.685 5.744-5.974 9.909-5.974 6.062 0 11.016 4.843 11.195 10.862l-1.829-1.829c-0.312-0.312-0.819-0.312-1.131 0s-0.312 0.819 0 1.131l3.2 3.2c0.157 0.157 0.362 0.234 0.566 0.234s0.41-0.078 0.566-0.234l3.2-3.2c0.312-0.312 0.312-0.819 0-1.131z"></path>
<path d="M26.99 20.893c-0.39-0.206-0.875-0.058-1.082 0.333-1.947 3.685-5.744 5.974-9.909 5.974-6.062 0-11.016-4.843-11.195-10.862l1.829 1.829c0.157 0.157 0.362 0.234 0.566 0.234s0.41-0.078 0.566-0.234c0.312-0.312 0.312-0.819 0-1.131l-3.2-3.2c-0.312-0.312-0.819-0.312-1.131 0l-3.2 3.2c-0.312 0.312-0.312 0.819 0 1.131s0.819 0.312 1.131 0l1.838-1.838c0.082 3.296 1.405 6.384 3.746 8.723 2.418 2.418 5.632 3.749 9.051 3.749 4.758 0 9.098-2.616 11.323-6.826 0.206-0.39 0.058-0.875-0.333-1.082z"></path>
</svg>
