<?xml version="1.0" encoding="utf-8"?>
<!-- Generated by IcoMoon.io -->
<!DOCTYPE svg PUBLIC "-//W3C//DTD SVG 1.1//EN" "http://www.w3.org/Graphics/SVG/1.1/DTD/svg11.dtd">
<svg version="1.1" xmlns="http://www.w3.org/2000/svg" xmlns:xlink="http://www.w3.org/1999/xlink" width="32" height="32" viewBox="0 0 32 32">
<path d="M26.4 32h-20.8c-1.323 0-2.4-1.077-2.4-2.4v-27.2c0-1.323 1.077-2.4 2.4-2.4h20.8c1.323 0 2.4 1.077 2.4 2.4v27.2c0 1.323-1.077 2.4-2.4 2.4zM5.6 1.6c-0.442 0-0.8 0.358-0.8 0.8v27.2c0 0.442 0.358 0.8 0.8 0.8h20.8c0.442 0 0.8-0.358 0.8-0.8v-27.2c0-0.442-0.358-0.8-0.8-0.8h-20.8z"></path>
<path d="M16.8 28.8h-1.6c-0.442 0-0.8-0.358-0.8-0.8s0.358-0.8 0.8-0.8h1.6c0.442 0 0.8 0.358 0.8 0.8s-0.358 0.8-0.8 0.8z"></path>
<path d="M24.8 25.6h-17.6c-0.442 0-0.8-0.358-0.8-0.8v-20.8c0-0.442 0.358-0.8 0.8-0.8h17.6c0.442 0 0.8 0.358 0.8 0.8v20.8c0 0.442-0.358 0.8-0.8 0.8zM8 24h16v-19.2h-16v19.2z"></path>
</svg>
