<?xml version="1.0" encoding="utf-8"?>
<!-- Generated by IcoMoon.io -->
<!DOCTYPE svg PUBLIC "-//W3C//DTD SVG 1.1//EN" "http://www.w3.org/Graphics/SVG/1.1/DTD/svg11.dtd">
<svg version="1.1" xmlns="http://www.w3.org/2000/svg" xmlns:xlink="http://www.w3.org/1999/xlink" width="32" height="32" viewBox="0 0 32 32">
<path d="M12 30.536c-0.642 0-1.245-0.25-1.698-0.701l-8.138-8.138c-0.453-0.453-0.701-1.054-0.701-1.698s0.25-1.245 0.701-1.698l13.738-13.738c0.779-0.779 2.195-1.366 3.298-1.366h7.2c1.323 0 2.4 1.077 2.4 2.4v7.2c0 1.101-0.587 2.518-1.365 3.298l-13.738 13.738c-0.453 0.453-1.054 0.701-1.698 0.701zM19.2 4.8c-0.664 0-1.696 0.427-2.165 0.898l-13.738 13.738c-0.15 0.15-0.232 0.35-0.232 0.566s0.083 0.416 0.232 0.565l8.138 8.138c0.15 0.15 0.35 0.232 0.566 0.232s0.416-0.083 0.566-0.232l13.738-13.738c0.469-0.469 0.898-1.502 0.898-2.166v-7.2c0-0.442-0.358-0.8-0.8-0.8h-7.2z"></path>
<path d="M23.2 11.2c-1.323 0-2.4-1.077-2.4-2.4s1.077-2.4 2.4-2.4 2.4 1.077 2.4 2.4-1.077 2.4-2.4 2.4zM23.2 8c-0.442 0-0.8 0.358-0.8 0.8s0.358 0.8 0.8 0.8 0.8-0.358 0.8-0.8-0.358-0.8-0.8-0.8z"></path>
</svg>
