<?xml version="1.0" encoding="utf-8"?>
<!-- Generated by IcoMoon.io -->
<!DOCTYPE svg PUBLIC "-//W3C//DTD SVG 1.1//EN" "http://www.w3.org/Graphics/SVG/1.1/DTD/svg11.dtd">
<svg version="1.1" xmlns="http://www.w3.org/2000/svg" xmlns:xlink="http://www.w3.org/1999/xlink" width="32" height="32" viewBox="0 0 32 32">
<path d="M16.219 0.766c-0.137 0-0.278 0.048-0.391 0.141l-13.469 11.016c-0.445 0.364-0.185 1.094 0.391 1.094h26.938c0.575 0 0.836-0.729 0.391-1.094l-13.469-11.016c-0.113-0.092-0.253-0.141-0.391-0.141zM16.219 2.172l11.766 9.609h-23.531l11.766-9.609zM4.578 14.234c-0.338 0-0.609 0.271-0.609 0.609s0.271 0.609 0.609 0.609h0.609v12.25h-0.609c-0.338 0-0.609 0.271-0.609 0.609s0.271 0.625 0.609 0.625h23.266c0.338 0 0.625-0.287 0.625-0.625s-0.287-0.609-0.625-0.609h-0.609v-12.25h0.609c0.338 0 0.625-0.271 0.625-0.609s-0.287-0.609-0.625-0.609h-23.266zM6.422 15.453h1.219v12.25h-1.219v-12.25zM8.875 15.453h2.438v12.25h-2.438v-12.25zM12.547 15.453h1.219v12.25h-1.219v-12.25zM14.984 15.453h2.453v12.25h-2.453v-12.25zM18.672 15.453h1.219v12.25h-1.219v-12.25zM21.109 15.453h2.453v12.25h-2.453v-12.25zM24.781 15.453h1.234v12.25h-1.234v-12.25zM2.141 30.156c-0.338 0-0.625 0.271-0.625 0.609s0.287 0.609 0.625 0.609h28.156c0.338 0 0.609-0.271 0.609-0.609s-0.271-0.609-0.609-0.609h-28.156z"></path>
</svg>
