<?xml version="1.0" encoding="utf-8"?>
<!-- Generated by IcoMoon.io -->
<!DOCTYPE svg PUBLIC "-//W3C//DTD SVG 1.1//EN" "http://www.w3.org/Graphics/SVG/1.1/DTD/svg11.dtd">
<svg version="1.1" xmlns="http://www.w3.org/2000/svg" xmlns:xlink="http://www.w3.org/1999/xlink" width="32" height="32" viewBox="0 0 32 32">
<path d="M21.6 1.6h-19.2c-0.442 0-0.8 0.358-0.8 0.8s0.358 0.8 0.8 0.8h8.656l-3.045 18.269c-0.072 0.435 0.222 0.848 0.658 0.92 0.045 0.008 0.090 0.011 0.133 0.011 0.384 0 0.723-0.277 0.789-0.669l3.088-18.531h8.922c0.442 0 0.8-0.358 0.8-0.8s-0.358-0.8-0.8-0.8z"></path>
<path d="M16.8 25.6h-14.4c-0.442 0-0.8 0.358-0.8 0.8s0.358 0.8 0.8 0.8h14.4c0.442 0 0.8-0.358 0.8-0.8s-0.358-0.8-0.8-0.8z"></path>
<path d="M25.131 26.4l2.634-2.634c0.312-0.312 0.312-0.819 0-1.131s-0.819-0.312-1.131 0l-2.634 2.634-2.634-2.634c-0.312-0.312-0.819-0.312-1.131 0s-0.312 0.819 0 1.131l2.634 2.634-2.634 2.634c-0.312 0.312-0.312 0.819 0 1.131 0.157 0.157 0.362 0.234 0.566 0.234s0.41-0.078 0.566-0.234l2.634-2.634 2.634 2.634c0.157 0.157 0.362 0.234 0.566 0.234s0.41-0.078 0.566-0.234c0.312-0.312 0.312-0.819 0-1.131l-2.634-2.634z"></path>
</svg>
