<?xml version="1.0" encoding="utf-8"?>
<!-- Generated by IcoMoon.io -->
<!DOCTYPE svg PUBLIC "-//W3C//DTD SVG 1.1//EN" "http://www.w3.org/Graphics/SVG/1.1/DTD/svg11.dtd">
<svg version="1.1" xmlns="http://www.w3.org/2000/svg" xmlns:xlink="http://www.w3.org/1999/xlink" width="32" height="32" viewBox="0 0 32 32">
<path d="M11.136 26.085l-2.054-4.794c-0.002-0.002-0.002-0.005-0.003-0.006l-2.742-6.4c-0.126-0.294-0.416-0.485-0.736-0.485s-0.61 0.19-0.736 0.485l-2.742 6.4c-0.002 0.002-0.002 0.005-0.003 0.006l-2.054 4.794c-0.174 0.406 0.014 0.877 0.421 1.051s0.877-0.014 1.051-0.421l1.85-4.315h4.43l1.85 4.315c0.13 0.304 0.426 0.485 0.736 0.485 0.106 0 0.213-0.021 0.315-0.066 0.406-0.174 0.594-0.645 0.421-1.051zM4.070 20.8l1.53-3.57 1.53 3.57h-3.059z"></path>
<path d="M31.939 26.093l-3.333-8c-0.002-0.002-0.002-0.005-0.003-0.006l-4.664-11.194c-0.125-0.298-0.416-0.493-0.739-0.493s-0.614 0.194-0.739 0.493l-4.664 11.194c-0.002 0.002-0.002 0.005-0.003 0.006l-3.333 8c-0.17 0.408 0.022 0.877 0.43 1.046s0.877-0.022 1.046-0.43l3.128-7.507h8.267l3.128 7.507c0.128 0.307 0.426 0.493 0.739 0.493 0.102 0 0.206-0.019 0.307-0.062 0.408-0.17 0.6-0.638 0.43-1.046zM19.733 17.6l3.467-8.32 3.467 8.32h-6.933z"></path>
</svg>
