<?xml version="1.0" encoding="utf-8"?>
<!-- Generated by IcoMoon.io -->
<!DOCTYPE svg PUBLIC "-//W3C//DTD SVG 1.1//EN" "http://www.w3.org/Graphics/SVG/1.1/DTD/svg11.dtd">
<svg version="1.1" xmlns="http://www.w3.org/2000/svg" xmlns:xlink="http://www.w3.org/1999/xlink" width="32" height="32" viewBox="0 0 32 32">
<path d="M26.4 30.4h-22.4c-0.442 0-0.8-0.358-0.8-0.8s0.358-0.8 0.8-0.8h22.4c0.442 0 0.8 0.358 0.8 0.8s-0.358 0.8-0.8 0.8z"></path>
<path d="M25.536 24.485l-4.112-9.594c-0.002-0.002-0.002-0.005-0.003-0.006l-5.485-12.8c-0.126-0.294-0.416-0.485-0.736-0.485s-0.61 0.19-0.736 0.485l-5.485 12.8c-0.002 0.003-0.002 0.005-0.003 0.008l-4.112 9.594c-0.174 0.406 0.014 0.877 0.421 1.051s0.877-0.014 1.051-0.421l3.907-9.115h9.917l3.907 9.115c0.13 0.304 0.426 0.485 0.736 0.485 0.106 0 0.213-0.021 0.315-0.066 0.406-0.174 0.594-0.645 0.421-1.051zM10.928 14.4l4.272-9.97 4.272 9.97h-8.546z"></path>
</svg>
