<?xml version="1.0" encoding="utf-8"?>
<!-- Generated by IcoMoon.io -->
<!DOCTYPE svg PUBLIC "-//W3C//DTD SVG 1.1//EN" "http://www.w3.org/Graphics/SVG/1.1/DTD/svg11.dtd">
<svg version="1.1" xmlns="http://www.w3.org/2000/svg" xmlns:xlink="http://www.w3.org/1999/xlink" width="32" height="32" viewBox="0 0 32 32">
<path d="M18.854 7.307c0-1.61-1.325-3.015-2.936-3.015s-2.936 1.405-2.936 3.015c0 1.61 1.325 2.936 2.936 2.936s2.936-1.325 2.936-2.936zM18.854 16.273c0-1.61-1.325-2.936-2.936-2.936s-2.936 1.325-2.936 2.936c0 1.61 1.325 3.015 2.936 3.015s2.936-1.405 2.936-3.015zM18.854 25.476c0-1.61-1.325-2.936-2.936-2.936s-2.936 1.325-2.936 2.936c0 1.61 1.325 3.015 2.936 3.015s2.936-1.405 2.936-3.015zM17.346 7.307c0 0.782-0.647 1.428-1.428 1.428s-1.428-0.647-1.428-1.428c0-0.782 0.647-1.508 1.428-1.508s1.428 0.726 1.428 1.508zM17.346 16.273c0 0.782-0.647 1.428-1.428 1.428s-1.428-0.647-1.428-1.428c0-0.782 0.647-1.428 1.428-1.428s1.428 0.647 1.428 1.428zM17.346 25.476c0 0.782-0.647 1.428-1.428 1.428s-1.428-0.647-1.428-1.428c0-0.782 0.647-1.428 1.428-1.428s1.428 0.647 1.428 1.428z"></path>
</svg>
