<?xml version="1.0" encoding="UTF-8" standalone="no"?>
<!-- Generated by IcoMoon.io -->

<svg
   xmlns:dc="http://purl.org/dc/elements/1.1/"
   xmlns:cc="http://creativecommons.org/ns#"
   xmlns:rdf="http://www.w3.org/1999/02/22-rdf-syntax-ns#"
   xmlns:svg="http://www.w3.org/2000/svg"
   xmlns="http://www.w3.org/2000/svg"
   xmlns:sodipodi="http://sodipodi.sourceforge.net/DTD/sodipodi-0.dtd"
   xmlns:inkscape="http://www.inkscape.org/namespaces/inkscape"
   version="1.1"
   width="1024"
   height="1024"
   viewBox="0 0 1024 1024"
   id="svg2"
   inkscape:version="0.48.4 r9939"
   sodipodi:docname="text-bubble.svg">
  <metadata
     id="metadata11">
    <rdf:RDF>
      <cc:Work
         rdf:about="">
        <dc:format>image/svg+xml</dc:format>
        <dc:type
           rdf:resource="http://purl.org/dc/dcmitype/StillImage" />
        <dc:title></dc:title>
      </cc:Work>
    </rdf:RDF>
  </metadata>
  <defs
     id="defs9" />
  <sodipodi:namedview
     pagecolor="#ffffff"
     bordercolor="#666666"
     borderopacity="1"
     objecttolerance="10"
     gridtolerance="10"
     guidetolerance="10"
     inkscape:pageopacity="0"
     inkscape:pageshadow="2"
     inkscape:window-width="640"
     inkscape:window-height="480"
     id="namedview7"
     showgrid="false"
     inkscape:zoom="0.23046875"
     inkscape:cx="356.3155"
     inkscape:cy="477.17856"
     inkscape:window-x="0"
     inkscape:window-y="0"
     inkscape:window-maximized="0"
     inkscape:current-layer="svg2" />
  <g
     id="icomoon-ignore" />
  <path
     d="m 603.32337,233.82161 c 0,-51.52594 -42.41437,-96.47924 -93.94032,-96.47924 -51.52595,0 -93.94032,44.9533 -93.94032,96.47924 0,51.52595 42.41437,93.94032 93.94032,93.94032 51.52595,0 93.94032,-42.41437 93.94032,-93.94032 z m 0,286.89881 c 0,-51.52595 -42.41437,-93.94032 -93.94032,-93.94032 -51.52595,0 -93.94032,42.41437 -93.94032,93.94032 0,51.52595 42.41437,96.47924 93.94032,96.47924 51.52595,0 93.94032,-44.95329 93.94032,-96.47924 z m 0,294.51559 c 0,-51.52595 -42.41437,-93.94032 -93.94032,-93.94032 -51.52595,0 -93.94032,42.41437 -93.94032,93.94032 0,51.52594 42.41437,96.47924 93.94032,96.47924 51.52595,0 93.94032,-44.9533 93.94032,-96.47924 z m -48.23963,-581.4144 c 0,25.01161 -20.68908,45.7007 -45.70069,45.7007 -25.01161,0 -45.70069,-20.68909 -45.70069,-45.7007 0,-25.01161 20.68908,-48.23962 45.70069,-48.23962 25.01161,0 45.70069,23.22801 45.70069,48.23962 z m 0,286.89881 c 0,25.01161 -20.68908,45.70069 -45.70069,45.70069 -25.01161,0 -45.70069,-20.68908 -45.70069,-45.70069 0,-25.01161 20.68908,-45.7007 45.70069,-45.7007 25.01161,0 45.70069,20.68909 45.70069,45.7007 z m 0,294.51559 c 0,25.01161 -20.68908,45.70069 -45.70069,45.70069 -25.01161,0 -45.70069,-20.68908 -45.70069,-45.70069 0,-25.01161 20.68908,-45.7007 45.70069,-45.7007 25.01161,0 45.70069,20.68909 45.70069,45.7007 z"
     id="path5"
     inkscape:connector-curvature="0"
     style="fill:#000000"
     sodipodi:nodetypes="ssssssssssssssssssssssssssssss" />
</svg>
