<?xml version="1.0" encoding="utf-8"?>
<!-- Generated by IcoMoon.io -->
<!DOCTYPE svg PUBLIC "-//W3C//DTD SVG 1.1//EN" "http://www.w3.org/Graphics/SVG/1.1/DTD/svg11.dtd">
<svg version="1.1" xmlns="http://www.w3.org/2000/svg" xmlns:xlink="http://www.w3.org/1999/xlink" width="32" height="32" viewBox="0 0 32 32">
<path d="M30.266 14.067c0.709 0.818 1.112 2.168 1.112 3.454 0 0.85-0.184 1.594-0.533 2.152-0.454 0.726-1.181 1.126-2.045 1.126h-4.189c2.28 4.146 2.856 7.269 1.712 9.291-0.798 1.41-2.261 1.909-3.272 1.909-0.4 0-0.739-0.296-0.792-0.693-0.286-2.11-1.901-4.629-4.429-6.909-2.422-2.184-5.398-3.93-8.458-4.976-0.386 0.813-1.213 1.376-2.17 1.376h-4.8c-1.323 0-2.4-1.077-2.4-2.4v-14.4c0-1.323 1.077-2.4 2.4-2.4h4.8c1.014 0 1.882 0.632 2.234 1.523 3.138-0.394 4.318-1.024 5.462-1.635 1.432-0.765 2.782-1.488 7.205-1.488 1.152 0 2.237 0.301 3.056 0.846 0.8 0.533 1.312 1.282 1.482 2.149 0.638 0.259 1.205 0.858 1.638 1.747 0.422 0.866 0.696 1.971 0.696 2.818 0 0.158-0.010 0.304-0.027 0.438 0.405 0.298 0.768 0.757 1.067 1.362 0.432 0.872 0.691 1.965 0.691 2.922 0 0.678-0.126 1.243-0.374 1.682-0.021 0.035-0.042 0.070-0.062 0.104zM7.2 3.2h-4.8c-0.442 0-0.8 0.358-0.8 0.8v14.4c0 0.442 0.358 0.8 0.8 0.8h4.8c0.442 0 0.8-0.358 0.8-0.8v-14.398c0 0 0-0.002 0-0.002 0-0.442-0.358-0.8-0.8-0.8zM29.342 15.562c-0.242-0.486-0.486-0.662-0.592-0.662-0.442 0-0.8-0.358-0.8-0.8s0.358-0.8 0.8-0.8c0.067 0 0.115 0 0.187-0.125 0.106-0.187 0.166-0.512 0.166-0.893 0-0.712-0.202-1.558-0.525-2.211-0.317-0.638-0.638-0.87-0.779-0.87-0.442 0-0.8-0.358-0.8-0.8 0-0.283 0.147-0.533 0.37-0.675 0.050-0.507-0.187-1.864-0.802-2.749-0.232-0.334-0.477-0.526-0.669-0.526-0.442 0-0.8-0.358-0.8-0.8 0-1.408-1.555-2.050-3-2.050-4.021 0-5.147 0.602-6.451 1.299-1.219 0.651-2.589 1.384-6.050 1.814v13.099c3.362 1.102 6.643 3.003 9.299 5.397 2.549 2.298 4.222 4.781 4.79 7.082 0.435-0.139 0.926-0.434 1.242-0.989 0.534-0.944 0.934-3.354-2.389-8.891-0.149-0.246-0.152-0.555-0.010-0.806s0.408-0.406 0.696-0.406h5.573c0.318 0 0.523-0.112 0.688-0.374 0.187-0.299 0.29-0.763 0.29-1.304 0-0.678-0.163-1.411-0.435-1.96z"></path>
</svg>
