<?xml version="1.0" encoding="utf-8"?>
<!-- Generated by IcoMoon.io -->
<!DOCTYPE svg PUBLIC "-//W3C//DTD SVG 1.1//EN" "http://www.w3.org/Graphics/SVG/1.1/DTD/svg11.dtd">
<svg version="1.1" xmlns="http://www.w3.org/2000/svg" xmlns:xlink="http://www.w3.org/1999/xlink" width="26" height="32" viewBox="0 0 26 32">
<path d="M16.195 15.1l0.865-0.865-1.73-1.735-2.31 2.31-8.3-8.295 0.315-0.94-3.335-1.95-1.6 1.6 1.95 3.335 0.94-0.315 8.295 8.295-2.305 2.31 1.73 1.73 0.865-0.865 8.305 8.305c1.5 1.5 3.6 1.020 4.62 0 1.275-1.275 1.275-3.345 0-4.62l-8.305-8.3zM3.21 7.31l-0.79 0.265-1.295-2.22 0.71-0.71 2.215 1.3-0.265 0.79 8.655 8.655-0.575 0.575-8.655-8.655zM10.71 19.43l-0.575-0.58 5.195-5.195 0.58 0.575-5.2 5.2zM23.925 27.445c-0.955 0.955-2.51 0.955-3.465 0l-8.305-8.305 1.445-1.445 8.3 8.305 0.575-0.575-8.3-8.305 1.445-1.445 8.305 8.305c0.95 0.955 0.95 2.51 0 3.465z"></path>
<path d="M5.205 27.42c-0.955 0.955-2.51 0.955-3.465 0s-0.955-2.51 0-3.465l7.925-7.925-0.575-0.58-7.925 7.925c-1.275 1.275-1.275 3.345 0 4.62 1.525 1.525 3.74 0.98 4.62 0l6.5-6.5-0.575-0.575-6.505 6.5z"></path>
<path d="M12.525 13.17l1.070-1.070c-0.82-1.95-0.155-4.465 1.345-5.965 1.205-1.205 2.855-1.8 4.535-1.65l-2.74 2.74 1.95 3.25 3.25 1.95 2.74-2.74c0.15 1.675-0.44 3.33-1.65 4.535-1.165 1.165-2.775 1.77-4.425 1.66l-0.055 0.815c2.065 0.14 3.825-0.67 5.055-1.895 2.95-2.95 1.585-6.785 1.585-6.785l-3.38 3.38-2.525-1.515-1.515-2.525 3.38-3.38c0 0-3.845-1.35-6.78 1.585-1.655 1.655-2.29 4.055-1.69 6.31l-0.73 0.73 0.58 0.57z"></path>
<path d="M2.21 25.715c0 0.685 0.555 1.24 1.24 1.24s1.24-0.555 1.24-1.24c0-0.685-0.555-1.24-1.24-1.24-0.685-0.005-1.24 0.555-1.24 1.24zM3.875 25.715c0 0.235-0.19 0.425-0.425 0.425s-0.425-0.19-0.425-0.425c0-0.235 0.19-0.425 0.425-0.425s0.425 0.19 0.425 0.425z"></path>
</svg>
