<?xml version="1.0" encoding="utf-8"?>
<!-- Generated by IcoMoon.io -->
<!DOCTYPE svg PUBLIC "-//W3C//DTD SVG 1.1//EN" "http://www.w3.org/Graphics/SVG/1.1/DTD/svg11.dtd">
<svg version="1.1" xmlns="http://www.w3.org/2000/svg" xmlns:xlink="http://www.w3.org/1999/xlink" width="32" height="32" viewBox="0 0 32 32">
<path d="M23.2 24h-16c-2.205 0-4-1.795-4-4v-16c0-2.205 1.795-4 4-4h16c2.205 0 4 1.795 4 4v16c0 2.205-1.795 4-4 4zM7.2 1.6c-1.323 0-2.4 1.077-2.4 2.4v16c0 1.323 1.077 2.4 2.4 2.4h16c1.323 0 2.4-1.077 2.4-2.4v-16c0-1.323-1.077-2.4-2.4-2.4h-16z"></path>
<path d="M30.315 30.842l-3.2-6.4c-0.197-0.395-0.678-0.555-1.074-0.358s-0.555 0.678-0.358 1.074l0.221 0.442h-21.411l0.221-0.442c0.197-0.395 0.037-0.875-0.358-1.074s-0.875-0.037-1.074 0.358l-3.2 6.4c-0.197 0.395-0.037 0.875 0.358 1.074 0.115 0.058 0.237 0.085 0.357 0.085 0.293 0 0.576-0.162 0.717-0.443l0.579-1.158h26.211l0.579 1.158c0.141 0.28 0.422 0.443 0.717 0.443 0.12 0 0.242-0.027 0.357-0.085 0.395-0.197 0.555-0.678 0.358-1.074zM2.894 28.8l0.8-1.6h23.011l0.8 1.6h-24.611z"></path>
<path d="M8.8 20.8c-1.323 0-2.4-1.077-2.4-2.4s1.077-2.4 2.4-2.4 2.4 1.077 2.4 2.4-1.077 2.4-2.4 2.4zM8.8 17.6c-0.442 0-0.8 0.358-0.8 0.8s0.358 0.8 0.8 0.8 0.8-0.358 0.8-0.8-0.358-0.8-0.8-0.8z"></path>
<path d="M21.6 20.8c-1.323 0-2.4-1.077-2.4-2.4s1.077-2.4 2.4-2.4 2.4 1.077 2.4 2.4-1.077 2.4-2.4 2.4zM21.6 17.6c-0.442 0-0.8 0.358-0.8 0.8s0.358 0.8 0.8 0.8 0.8-0.358 0.8-0.8-0.358-0.8-0.8-0.8z"></path>
<path d="M20 4.8h-9.6c-0.442 0-0.8-0.358-0.8-0.8s0.358-0.8 0.8-0.8h9.6c0.442 0 0.8 0.358 0.8 0.8s-0.358 0.8-0.8 0.8z"></path>
<path d="M23.2 6.4h-16c-0.442 0-0.8 0.358-0.8 0.8v6.4c0 0.442 0.358 0.8 0.8 0.8h16c0.442 0 0.8-0.358 0.8-0.8v-6.4c0-0.442-0.358-0.8-0.8-0.8zM8 8h6.4v4.8h-6.4v-4.8zM22.4 12.8h-6.4v-4.8h6.4v4.8z"></path>
</svg>
