<?xml version="1.0" encoding="utf-8"?>
<!-- Generated by IcoMoon.io -->
<!DOCTYPE svg PUBLIC "-//W3C//DTD SVG 1.1//EN" "http://www.w3.org/Graphics/SVG/1.1/DTD/svg11.dtd">
<svg version="1.1" xmlns="http://www.w3.org/2000/svg" xmlns:xlink="http://www.w3.org/1999/xlink" width="32" height="32" viewBox="0 0 32 32">
<path d="M23.2 28.8h-14.4c-0.442 0-0.8-0.358-0.8-0.8s0.358-0.8 0.8-0.8h14.4c0.442 0 0.8 0.358 0.8 0.8s-0.358 0.8-0.8 0.8z"></path>
<path d="M16 24c-4.411 0-8-3.589-8-8v-12c0-0.442 0.358-0.8 0.8-0.8s0.8 0.358 0.8 0.8v12c0 3.53 2.87 6.4 6.4 6.4s6.4-2.87 6.4-6.4v-12c0-0.442 0.358-0.8 0.8-0.8s0.8 0.358 0.8 0.8v12c0 4.411-3.589 8-8 8z"></path>
</svg>
