<?xml version="1.0" encoding="utf-8"?>
<!-- Generated by IcoMoon.io -->
<!DOCTYPE svg PUBLIC "-//W3C//DTD SVG 1.1//EN" "http://www.w3.org/Graphics/SVG/1.1/DTD/svg11.dtd">
<svg version="1.1" xmlns="http://www.w3.org/2000/svg" xmlns:xlink="http://www.w3.org/1999/xlink" width="32" height="32" viewBox="0 0 32 32">
<path d="M28.016 7.184c-2.568-2.568-5.984-3.984-9.616-3.984s-7.048 1.414-9.616 3.984-3.984 5.984-3.984 9.616v2.069l-3.434-3.434c-0.312-0.312-0.819-0.312-1.131 0s-0.312 0.819 0 1.131l4.8 4.8c0.157 0.157 0.362 0.234 0.566 0.234s0.41-0.078 0.566-0.234l4.8-4.8c0.312-0.312 0.312-0.819 0-1.131s-0.819-0.312-1.131 0l-3.434 3.434v-2.069c0-6.618 5.382-12 12-12s12 5.382 12 12-5.382 12-12 12c-0.442 0-0.8 0.358-0.8 0.8s0.358 0.8 0.8 0.8c3.632 0 7.048-1.414 9.616-3.984s3.984-5.984 3.984-9.616c0-3.632-1.414-7.048-3.984-9.616z"></path>
</svg>
