<?xml version="1.0" encoding="utf-8"?>
<!-- Generated by IcoMoon.io -->
<!DOCTYPE svg PUBLIC "-//W3C//DTD SVG 1.1//EN" "http://www.w3.org/Graphics/SVG/1.1/DTD/svg11.dtd">
<svg version="1.1" xmlns="http://www.w3.org/2000/svg" xmlns:xlink="http://www.w3.org/1999/xlink" width="32" height="32" viewBox="0 0 32 32">
<path d="M21.6 18.4c-0.205 0-0.41-0.078-0.566-0.234-0.312-0.312-0.312-0.819 0-1.131l4.909-4.909c0.811-0.811 1.258-1.888 1.258-3.034s-0.446-2.224-1.258-3.034c-1.674-1.674-4.395-1.674-6.069 0l-4.909 4.909c-0.312 0.312-0.819 0.312-1.131 0s-0.312-0.819 0-1.131l4.909-4.909c2.298-2.298 6.035-2.298 8.331 0 1.112 1.112 1.725 2.592 1.725 4.166s-0.613 3.053-1.725 4.166l-4.909 4.909c-0.157 0.157-0.362 0.235-0.566 0.235z"></path>
<path d="M7.491 30.4c-1.573 0-3.053-0.613-4.166-1.725-2.298-2.298-2.298-6.035 0-8.331l4.909-4.909c0.312-0.312 0.819-0.312 1.131 0s0.312 0.819 0 1.131l-4.909 4.909c-1.674 1.674-1.674 4.395 0 6.069 0.811 0.811 1.888 1.258 3.034 1.258s2.224-0.446 3.034-1.258l4.909-4.909c0.312-0.312 0.819-0.312 1.131 0s0.312 0.819 0 1.131l-4.909 4.909c-1.112 1.112-2.592 1.725-4.166 1.725z"></path>
<path d="M8.8 11.2c-0.205 0-0.41-0.078-0.566-0.234l-3.2-3.2c-0.312-0.312-0.312-0.819 0-1.131s0.819-0.312 1.131 0l3.2 3.2c0.312 0.312 0.312 0.819 0 1.131-0.157 0.157-0.362 0.234-0.566 0.234z"></path>
<path d="M12 9.6c-0.442 0-0.8-0.358-0.8-0.8v-4.8c0-0.442 0.358-0.8 0.8-0.8s0.8 0.358 0.8 0.8v4.8c0 0.442-0.358 0.8-0.8 0.8z"></path>
<path d="M7.2 14.4h-4.8c-0.442 0-0.8-0.358-0.8-0.8s0.358-0.8 0.8-0.8h4.8c0.442 0 0.8 0.358 0.8 0.8s-0.358 0.8-0.8 0.8z"></path>
<path d="M24.8 27.2c-0.205 0-0.41-0.078-0.566-0.234l-3.2-3.2c-0.312-0.312-0.312-0.819 0-1.131s0.819-0.312 1.131 0l3.2 3.2c0.312 0.312 0.312 0.819 0 1.131-0.157 0.157-0.362 0.234-0.566 0.234z"></path>
<path d="M28 20.8h-4.8c-0.442 0-0.8-0.358-0.8-0.8s0.358-0.8 0.8-0.8h4.8c0.442 0 0.8 0.358 0.8 0.8s-0.358 0.8-0.8 0.8z"></path>
<path d="M18.4 30.4c-0.442 0-0.8-0.358-0.8-0.8v-4.8c0-0.442 0.358-0.8 0.8-0.8s0.8 0.358 0.8 0.8v4.8c0 0.442-0.358 0.8-0.8 0.8z"></path>
</svg>
