<?xml version="1.0" encoding="utf-8"?>
<!-- Generated by IcoMoon.io -->
<!DOCTYPE svg PUBLIC "-//W3C//DTD SVG 1.1//EN" "http://www.w3.org/Graphics/SVG/1.1/DTD/svg11.dtd">
<svg version="1.1" xmlns="http://www.w3.org/2000/svg" xmlns:xlink="http://www.w3.org/1999/xlink" width="32" height="32" viewBox="0 0 32 32">
<path d="M15.2 17.6c-4.853 0-8.8-3.947-8.8-8.8s3.947-8.8 8.8-8.8 8.8 3.947 8.8 8.8-3.947 8.8-8.8 8.8zM15.2 1.6c-3.97 0-7.2 3.23-7.2 7.2s3.23 7.2 7.2 7.2c3.97 0 7.2-3.23 7.2-7.2s-3.23-7.2-7.2-7.2z"></path>
<path d="M28 32h-25.6c-1.323 0-2.4-1.077-2.4-2.4 0-0.109 0.022-2.696 1.96-5.28 1.128-1.504 2.672-2.699 4.59-3.55 2.342-1.042 5.253-1.57 8.65-1.57s6.307 0.528 8.65 1.57c1.918 0.853 3.462 2.046 4.59 3.55 1.938 2.584 1.96 5.171 1.96 5.28 0 1.323-1.077 2.4-2.4 2.4zM15.2 20.8c-5.579 0-9.696 1.525-11.906 4.41-1.656 2.162-1.693 4.371-1.694 4.394 0 0.438 0.358 0.797 0.8 0.797h25.6c0.442 0 0.8-0.358 0.8-0.8 0-0.019-0.037-2.229-1.694-4.39-2.211-2.885-6.328-4.41-11.906-4.41z"></path>
</svg>
