<?xml version="1.0" encoding="utf-8"?>
<!-- Generated by IcoMoon.io -->
<!DOCTYPE svg PUBLIC "-//W3C//DTD SVG 1.1//EN" "http://www.w3.org/Graphics/SVG/1.1/DTD/svg11.dtd">
<svg version="1.1" xmlns="http://www.w3.org/2000/svg" xmlns:xlink="http://www.w3.org/1999/xlink" width="32" height="32" viewBox="0 0 32 32">
<path d="M29.6 28.8h-17.6c-1.323 0-2.4-1.077-2.4-2.4 0-0.077 0.018-1.904 1.478-3.704 0.84-1.034 1.986-1.853 3.405-2.435 1.714-0.704 3.84-1.059 6.317-1.059s4.602 0.357 6.317 1.059c1.419 0.582 2.565 1.402 3.405 2.435 1.462 1.8 1.478 3.627 1.478 3.704 0 1.323-1.077 2.4-2.4 2.4zM11.2 26.405c0.002 0.44 0.36 0.795 0.8 0.795h17.6c0.44 0 0.798-0.357 0.8-0.795-0.002-0.056-0.051-1.432-1.182-2.774-1.558-1.851-4.469-2.829-8.418-2.829s-6.859 0.979-8.418 2.829c-1.131 1.344-1.181 2.718-1.182 2.774z"></path>
<path d="M20.8 17.6c-3.53 0-6.4-2.87-6.4-6.4s2.87-6.4 6.4-6.4 6.4 2.87 6.4 6.4c0 3.53-2.87 6.4-6.4 6.4zM20.8 6.4c-2.646 0-4.8 2.154-4.8 4.8s2.154 4.8 4.8 4.8 4.8-2.154 4.8-4.8-2.154-4.8-4.8-4.8z"></path>
<path d="M7.2 28.8h-4.8c-1.323 0-2.4-1.077-2.4-2.4 0-0.059 0.013-1.483 1.061-2.88 0.605-0.808 1.43-1.446 2.453-1.901 1.222-0.544 2.733-0.819 4.488-0.819 0.286 0 0.57 0.008 0.843 0.022 0.442 0.024 0.779 0.4 0.757 0.842s-0.4 0.781-0.842 0.757c-0.245-0.013-0.499-0.019-0.757-0.019-6.23 0-6.395 3.806-6.4 4.005 0.002 0.438 0.36 0.795 0.8 0.795h4.8c0.442 0 0.8 0.358 0.8 0.8s-0.358 0.8-0.8 0.8z"></path>
<path d="M8 19.2c-2.646 0-4.8-2.154-4.8-4.8s2.154-4.8 4.8-4.8 4.8 2.154 4.8 4.8-2.154 4.8-4.8 4.8zM8 11.2c-1.765 0-3.2 1.435-3.2 3.2s1.435 3.2 3.2 3.2 3.2-1.435 3.2-3.2c0-1.765-1.435-3.2-3.2-3.2z"></path>
</svg>
