<?xml version="1.0" encoding="utf-8"?>
<!-- Generated by IcoMoon.io -->
<!DOCTYPE svg PUBLIC "-//W3C//DTD SVG 1.1//EN" "http://www.w3.org/Graphics/SVG/1.1/DTD/svg11.dtd">
<svg version="1.1" xmlns="http://www.w3.org/2000/svg" xmlns:xlink="http://www.w3.org/1999/xlink" width="32" height="32" viewBox="0 0 32 32">
<path d="M13.040 5.131c-0.395 0-0.79 0.166-1.178 0.494l-6.557 5.573h-2.906c-1.323 0-2.4 1.077-2.4 2.4v6.4c0 1.323 1.077 2.4 2.4 2.4h2.906l6.557 5.573c0.386 0.328 0.782 0.494 1.178 0.494 0 0 0 0 0 0 0.435 0 0.826-0.211 1.072-0.579 0.19-0.286 0.288-0.653 0.288-1.088v-20c0-1.152-0.683-1.669-1.36-1.669zM1.6 20v-6.4c0-0.442 0.358-0.8 0.8-0.8h2.4v8h-2.4c-0.442 0-0.8-0.358-0.8-0.8zM12.8 26.67l-6.4-5.44v-8.861l6.4-5.44v19.741z"></path>
</svg>
