<?xml version="1.0" encoding="utf-8"?>
<!-- Generated by IcoMoon.io -->
<!DOCTYPE svg PUBLIC "-//W3C//DTD SVG 1.1//EN" "http://www.w3.org/Graphics/SVG/1.1/DTD/svg11.dtd">
<svg version="1.1" xmlns="http://www.w3.org/2000/svg" xmlns:xlink="http://www.w3.org/1999/xlink" width="32" height="32" viewBox="0 0 32 32">
<path d="M21.845 23.81c-0.232 0-0.462-0.101-0.621-0.294-0.278-0.342-0.227-0.846 0.115-1.125 1.691-1.374 2.661-3.413 2.661-5.589s-0.97-4.213-2.659-5.589c-0.342-0.278-0.395-0.782-0.115-1.125s0.782-0.395 1.125-0.115c2.066 1.68 3.25 4.17 3.25 6.83s-1.184 5.149-3.25 6.83c-0.149 0.12-0.326 0.179-0.504 0.179z"></path>
<path d="M24.872 27.534c-0.232 0-0.462-0.101-0.621-0.294-0.278-0.342-0.227-0.846 0.115-1.125 2.818-2.291 4.434-5.686 4.434-9.314s-1.616-7.022-4.434-9.314c-0.342-0.278-0.395-0.782-0.115-1.125s0.782-0.395 1.125-0.115c3.192 2.597 5.024 6.445 5.024 10.555s-1.83 7.958-5.024 10.555c-0.149 0.12-0.326 0.179-0.504 0.179z"></path>
<path d="M18.819 20.083c-0.232 0-0.462-0.101-0.621-0.294-0.278-0.342-0.227-0.846 0.115-1.125 0.563-0.459 0.886-1.138 0.886-1.862s-0.323-1.405-0.886-1.862c-0.342-0.278-0.395-0.782-0.115-1.125s0.782-0.395 1.125-0.115c0.939 0.763 1.477 1.894 1.477 3.104s-0.539 2.341-1.477 3.104c-0.149 0.12-0.326 0.179-0.504 0.179z"></path>
<path d="M13.040 5.131c-0.395 0-0.79 0.166-1.178 0.494l-6.557 5.573h-2.906c-1.323 0-2.4 1.077-2.4 2.4v6.4c0 1.323 1.077 2.4 2.4 2.4h2.906l6.557 5.573c0.386 0.328 0.782 0.494 1.178 0.494 0 0 0 0 0 0 0.435 0 0.826-0.211 1.072-0.579 0.19-0.286 0.288-0.653 0.288-1.088v-20c0-1.152-0.683-1.669-1.36-1.669zM1.6 20v-6.4c0-0.442 0.358-0.8 0.8-0.8h2.4v8h-2.4c-0.442 0-0.8-0.358-0.8-0.8zM12.8 26.67l-6.4-5.44v-8.861l6.4-5.44v19.741z"></path>
</svg>
