<?xml version="1.0" encoding="utf-8"?>
<!-- Generated by IcoMoon.io -->
<!DOCTYPE svg PUBLIC "-//W3C//DTD SVG 1.1//EN" "http://www.w3.org/Graphics/SVG/1.1/DTD/svg11.dtd">
<svg version="1.1" xmlns="http://www.w3.org/2000/svg" xmlns:xlink="http://www.w3.org/1999/xlink" width="32" height="32" viewBox="0 0 32 32">
<path d="M29.6 30.4h-28.8c-0.285 0-0.547-0.15-0.691-0.397s-0.146-0.549-0.006-0.797l14.4-25.6c0.142-0.251 0.408-0.408 0.698-0.408s0.555 0.155 0.698 0.408l14.4 25.6c0.139 0.248 0.136 0.55-0.006 0.797s-0.406 0.397-0.691 0.397zM2.168 28.8h26.064l-13.032-23.168-13.032 23.168z"></path>
<path d="M15.2 22.4c-0.442 0-0.8-0.358-0.8-0.8v-8c0-0.442 0.358-0.8 0.8-0.8s0.8 0.358 0.8 0.8v8c0 0.442-0.358 0.8-0.8 0.8z"></path>
<path d="M15.2 27.2c-0.442 0-0.8-0.358-0.8-0.8v-1.6c0-0.442 0.358-0.8 0.8-0.8s0.8 0.358 0.8 0.8v1.6c0 0.442-0.358 0.8-0.8 0.8z"></path>
</svg>
