<?xml version="1.0" encoding="utf-8"?>
<!-- Generated by IcoMoon.io -->
<!DOCTYPE svg PUBLIC "-//W3C//DTD SVG 1.1//EN" "http://www.w3.org/Graphics/SVG/1.1/DTD/svg11.dtd">
<svg version="1.1" xmlns="http://www.w3.org/2000/svg" xmlns:xlink="http://www.w3.org/1999/xlink" width="32" height="32" viewBox="0 0 32 32">
<path d="M28.566 21.034c-0.312-0.312-0.819-0.312-1.131 0l-1.042 1.042-4.366-4.25c-0.003-0.003-0.005-0.005-0.008-0.006-0.011-0.011-0.024-0.021-0.035-0.030-0.010-0.008-0.018-0.014-0.027-0.022s-0.021-0.016-0.032-0.022c-0.011-0.008-0.022-0.016-0.034-0.022-0.010-0.005-0.018-0.011-0.027-0.016-0.013-0.008-0.027-0.016-0.042-0.022-0.010-0.005-0.018-0.008-0.027-0.013-0.014-0.006-0.029-0.013-0.043-0.019-0.011-0.005-0.022-0.008-0.034-0.011-0.013-0.005-0.026-0.010-0.038-0.013s-0.029-0.006-0.043-0.010c-0.011-0.002-0.021-0.005-0.032-0.006-0.016-0.003-0.032-0.005-0.050-0.006-0.010-0.002-0.018-0.003-0.027-0.003-0.016-0.002-0.032-0.002-0.048-0.002-0.010 0-0.019 0-0.030 0-0.014 0-0.029 0.002-0.042 0.003s-0.026 0.002-0.037 0.003c-0.011 0.002-0.024 0.003-0.035 0.005-0.014 0.003-0.030 0.005-0.045 0.008-0.003 0.002-0.006 0.002-0.011 0.002l-6.312 1.525c-0.17 0.042-0.318 0.021-0.416-0.056s-0.152-0.216-0.152-0.39v-2.701h5.6c0.442 0 0.8-0.358 0.8-0.8s-0.358-0.8-0.8-0.8h-5.6v-4.88c0.259 0.053 0.526 0.080 0.8 0.080 2.205 0 4-1.795 4-4s-1.795-4-4-4-4 1.795-4 4c0 1.306 0.629 2.467 1.6 3.198v9.902c0 0.666 0.278 1.267 0.762 1.648 0.349 0.275 0.784 0.419 1.243 0.419 0.178 0 0.357-0.021 0.538-0.066l5.883-1.421 4.616 4.493c0.155 0.15 0.357 0.227 0.558 0.227 0.205 0 0.41-0.078 0.566-0.234l1.6-1.6c0.312-0.312 0.312-0.819 0-1.131zM15.2 3.2c1.323 0 2.4 1.077 2.4 2.4s-1.077 2.4-2.4 2.4c-1.323 0-2.4-1.077-2.4-2.4s1.077-2.4 2.4-2.4z"></path>
<path d="M12 32c-5.734 0-10.4-4.666-10.4-10.4 0-2.475 0.883-4.872 2.49-6.752 1.587-1.858 3.781-3.102 6.179-3.506 0.435-0.074 0.848 0.221 0.922 0.656s-0.221 0.848-0.656 0.922c-4.248 0.714-7.333 4.363-7.333 8.678 0 4.853 3.947 8.8 8.8 8.8 4.315 0 7.965-3.083 8.678-7.333 0.074-0.435 0.486-0.73 0.922-0.656s0.73 0.485 0.656 0.922c-0.402 2.397-1.646 4.592-3.506 6.179-1.878 1.605-4.277 2.49-6.752 2.49z"></path>
</svg>
