<?xml version="1.0" encoding="UTF-8" standalone="no"?>
<!-- Created with Inkscape (http://www.inkscape.org/) -->

<svg
   xmlns:dc="http://purl.org/dc/elements/1.1/"
   xmlns:cc="http://creativecommons.org/ns#"
   xmlns:rdf="http://www.w3.org/1999/02/22-rdf-syntax-ns#"
   xmlns:svg="http://www.w3.org/2000/svg"
   xmlns="http://www.w3.org/2000/svg"
   xmlns:sodipodi="http://sodipodi.sourceforge.net/DTD/sodipodi-0.dtd"
   xmlns:inkscape="http://www.inkscape.org/namespaces/inkscape"
   width="64px"
   height="64px"
   id="svg8814"
   version="1.1"
   inkscape:version="0.48.4 r9939"
   sodipodi:docname="logo.svg"
   inkscape:export-filename="/home/poupi/Desktop/work/frameworkCss/src/images/logo.png"
   inkscape:export-xdpi="99.040001"
   inkscape:export-ydpi="99.040001">
  <defs
     id="defs8816" />
  <sodipodi:namedview
     id="base"
     pagecolor="#ffffff"
     bordercolor="#666666"
     borderopacity="1.0"
     inkscape:pageopacity="0.0"
     inkscape:pageshadow="2"
     inkscape:zoom="1.9445437"
     inkscape:cx="-19.391774"
     inkscape:cy="-6.1979784"
     inkscape:current-layer="layer1"
     showgrid="true"
     inkscape:document-units="px"
     inkscape:grid-bbox="true"
     inkscape:window-width="1280"
     inkscape:window-height="748"
     inkscape:window-x="0"
     inkscape:window-y="0"
     inkscape:window-maximized="1" />
  <metadata
     id="metadata8819">
    <rdf:RDF>
      <cc:Work
         rdf:about="">
        <dc:format>image/svg+xml</dc:format>
        <dc:type
           rdf:resource="http://purl.org/dc/dcmitype/StillImage" />
        <dc:title />
      </cc:Work>
    </rdf:RDF>
  </metadata>
  <g
     id="layer1"
     inkscape:label="Layer 1"
     inkscape:groupmode="layer">
    <g
       id="g10415-9-3-3"
       transform="matrix(0.56403608,0,0,0.56403608,-1862.2132,145.2023)"
       style="stroke:#df6058;stroke-opacity:1">
      <path
         transform="translate(171.42857,-70.714286)"
         d="m 3234.2857,-129.78067 c 0,25.64179 -20.7867,46.42857 -46.4285,46.42857 -25.6418,0 -46.4286,-20.78678 -46.4286,-46.42857 0,-25.64179 20.7868,-46.42857 46.4286,-46.42857 25.6418,0 46.4285,20.78678 46.4285,46.42857 z"
         sodipodi:ry="46.42857"
         sodipodi:rx="46.42857"
         sodipodi:cy="-129.78067"
         sodipodi:cx="3187.8572"
         id="path10406-4-4-6-0"
         style="fill:none;stroke:#df6058;stroke-width:2;stroke-linejoin:bevel;stroke-miterlimit:4;stroke-opacity:1;stroke-dasharray:none;stroke-dashoffset:0"
         sodipodi:type="arc" />
      <g
         style="fill:none;stroke:#df6058;stroke-opacity:1"
         transform="matrix(0.69993488,0,0,0.69993488,1154.9072,-38.431054)"
         id="g10408-2-8-7">
        <path
           inkscape:connector-curvature="0"
           style="fill:none;stroke:#df6058;stroke-width:3.14259052;stroke-opacity:1"
           d="m 3130.5993,-258.58767 36.2445,0 -33.1019,55.4443 36.3492,0"
           id="polyline5104-5-2-5-6" />
        <g
           style="fill:none;stroke:#df6058;stroke-opacity:1"
           transform="matrix(0.10475301,0,0,0.10475301,2689.3038,-426.20224)"
           id="g5106-8-6-3">
          <path
             inkscape:connector-curvature="0"
             style="fill:none;stroke:#df6058;stroke-width:30;stroke-opacity:1"
             d="m 4219.5148,1599.072 c 0,45.3034 -36.7256,82.029 -82.029,82.029 -45.3033,0 -82.029,-36.7256 -82.029,-82.029 0,-45.3033 36.7257,-82.029 82.029,-82.029 45.3034,0 82.029,36.7257 82.029,82.029 z"
             id="circle5108-2-6-5" />
        </g>
        <g
           style="fill:none;stroke:#df6058;stroke-opacity:1"
           transform="matrix(0.10475301,0,0,0.10475301,2689.3038,-426.20224)"
           id="g5110-8-1-6">
          <path
             inkscape:connector-curvature="0"
             style="fill:none;stroke:#df6058;stroke-width:30;stroke-opacity:1"
             d="m 4748.5339,2128.0759 c 0,45.3034 -36.7257,82.029 -82.029,82.029 -45.3034,0 -82.029,-36.7256 -82.029,-82.029 0,-45.3033 36.7256,-82.029 82.029,-82.029 45.3033,0 82.029,36.7257 82.029,82.029 z"
             id="circle5112-0-5-2" />
        </g>
      </g>
    </g>
  </g>
</svg>
